<?xml version="1.0" encoding="UTF-8" standalone="no"?>
<!DOCTYPE svg PUBLIC "-//W3C//DTD SVG 1.1//EN"
 "http://www.w3.org/Graphics/SVG/1.1/DTD/svg11.dtd">
<!-- Generated by graphviz version 2.44.1 (20200629.0800)
 -->
<!-- Title: G Pages: 1 -->
<svg width="1138pt" height="719pt"
 viewBox="0.00 0.00 1137.50 719.00" xmlns="http://www.w3.org/2000/svg" xmlns:xlink="http://www.w3.org/1999/xlink">
<g id="graph0" class="graph" transform="scale(1 1) rotate(0) translate(4 715)">
<title>G</title>
<polygon fill="white" stroke="transparent" points="-4,4 -4,-715 1133.5,-715 1133.5,4 -4,4"/>
<!-- decl_0 -->
<g id="node1" class="node">
<title>decl_0</title>
<polygon fill="none" stroke="black" points="88.5,-664.5 88.5,-710.5 363.5,-710.5 363.5,-664.5 88.5,-664.5"/>
<text text-anchor="middle" x="226" y="-695.3" font-family="Arial" font-size="14.00">FunctionDecl</text>
<polyline fill="none" stroke="black" points="88.5,-687.5 363.5,-687.5 "/>
<text text-anchor="middle" x="114.5" y="-672.3" font-family="Arial" font-size="14.00">name</text>
<polyline fill="none" stroke="black" points="140.5,-664.5 140.5,-687.5 "/>
<text text-anchor="middle" x="172.5" y="-672.3" font-family="Arial" font-size="14.00">params</text>
<polyline fill="none" stroke="black" points="204.5,-664.5 204.5,-687.5 "/>
<text text-anchor="middle" x="238.5" y="-672.3" font-family="Arial" font-size="14.00">ret_type</text>
<polyline fill="none" stroke="black" points="272.5,-664.5 272.5,-687.5 "/>
<text text-anchor="middle" x="296.5" y="-672.3" font-family="Arial" font-size="14.00">body</text>
<polyline fill="none" stroke="black" points="320.5,-664.5 320.5,-687.5 "/>
<text text-anchor="middle" x="342" y="-672.3" font-family="Arial" font-size="14.00">next</text>
</g>
<!-- str_1 -->
<g id="node2" class="node">
<title>str_1</title>
<polygon fill="none" stroke="black" points="0,-586.5 0,-622.5 84,-622.5 84,-586.5 0,-586.5"/>
<text text-anchor="middle" x="42" y="-600.8" font-family="Arial" font-size="14.00">&quot;fibonacci&quot;</text>
</g>
<!-- decl_0&#45;&gt;str_1 -->
<g id="edge1" class="edge">
<title>decl_0:f1&#45;&gt;str_1</title>
<path fill="none" stroke="black" d="M87,-675.5C65.72,-675.5 54.03,-652.32 47.94,-632.64"/>
<polygon fill="black" stroke="black" points="51.26,-631.52 45.24,-622.8 44.51,-633.37 51.26,-631.52"/>
</g>
<!-- param_2 -->
<g id="node3" class="node">
<title>param_2</title>
<polygon fill="none" stroke="black" points="102.5,-581.5 102.5,-627.5 241.5,-627.5 241.5,-581.5 102.5,-581.5"/>
<text text-anchor="middle" x="172" y="-612.3" font-family="Arial" font-size="14.00">ParameterNode</text>
<polyline fill="none" stroke="black" points="102.5,-604.5 241.5,-604.5 "/>
<text text-anchor="middle" x="128.5" y="-589.3" font-family="Arial" font-size="14.00">name</text>
<polyline fill="none" stroke="black" points="154.5,-581.5 154.5,-604.5 "/>
<text text-anchor="middle" x="176.5" y="-589.3" font-family="Arial" font-size="14.00">type</text>
<polyline fill="none" stroke="black" points="198.5,-581.5 198.5,-604.5 "/>
<text text-anchor="middle" x="220" y="-589.3" font-family="Arial" font-size="14.00">next</text>
</g>
<!-- decl_0&#45;&gt;param_2 -->
<g id="edge3" class="edge">
<title>decl_0:f2&#45;&gt;param_2</title>
<path fill="none" stroke="black" d="M172,-664C172,-655.57 172,-646.46 172,-638"/>
<polygon fill="black" stroke="black" points="175.5,-637.72 172,-627.72 168.5,-637.72 175.5,-637.72"/>
</g>
<!-- stmt_4 -->
<g id="node21" class="node">
<title>stmt_4</title>
<polygon fill="none" stroke="black" points="260,-581.5 260,-627.5 392,-627.5 392,-581.5 260,-581.5"/>
<text text-anchor="middle" x="326" y="-612.3" font-family="Arial" font-size="14.00">VarDeclStatement</text>
<polyline fill="none" stroke="black" points="260,-604.5 392,-604.5 "/>
<text text-anchor="middle" x="293" y="-589.3" font-family="Arial" font-size="14.00">decl</text>
<polyline fill="none" stroke="black" points="326,-581.5 326,-604.5 "/>
<text text-anchor="middle" x="359" y="-589.3" font-family="Arial" font-size="14.00">next</text>
</g>
<!-- decl_0&#45;&gt;stmt_4 -->
<g id="edge50" class="edge">
<title>decl_0:f4&#45;&gt;stmt_4</title>
<path fill="none" stroke="black" d="M297,-664C297,-654.51 300.1,-644.97 304.28,-636.43"/>
<polygon fill="black" stroke="black" points="307.38,-638.05 309.13,-627.6 301.24,-634.68 307.38,-638.05"/>
</g>
<!-- str_3 -->
<g id="node4" class="node">
<title>str_3</title>
<polygon fill="none" stroke="black" points="101,-503.5 101,-539.5 155,-539.5 155,-503.5 101,-503.5"/>
<text text-anchor="middle" x="128" y="-517.8" font-family="Arial" font-size="14.00">&quot;x&quot;</text>
</g>
<!-- param_2&#45;&gt;str_3 -->
<g id="edge2" class="edge">
<title>param_2:f1&#45;&gt;str_3</title>
<path fill="none" stroke="black" d="M128,-581C128,-570.78 128,-559.56 128,-549.7"/>
<polygon fill="black" stroke="black" points="131.5,-549.65 128,-539.65 124.5,-549.65 131.5,-549.65"/>
</g>
<!-- decl_5 -->
<g id="node5" class="node">
<title>decl_5</title>
<polygon fill="none" stroke="black" points="211,-498.5 211,-544.5 299,-544.5 299,-498.5 211,-498.5"/>
<text text-anchor="middle" x="255" y="-529.3" font-family="Arial" font-size="14.00">x</text>
<polyline fill="none" stroke="black" points="211,-521.5 299,-521.5 "/>
<text text-anchor="middle" x="233" y="-506.3" font-family="Arial" font-size="14.00">type</text>
<polyline fill="none" stroke="black" points="255,-498.5 255,-521.5 "/>
<text text-anchor="middle" x="277" y="-506.3" font-family="Arial" font-size="14.00">expr</text>
</g>
<!-- expr_6 -->
<g id="node6" class="node">
<title>expr_6</title>
<polygon fill="none" stroke="black" points="191.5,-415.5 191.5,-461.5 262.5,-461.5 262.5,-415.5 191.5,-415.5"/>
<text text-anchor="middle" x="227" y="-446.3" font-family="Arial" font-size="14.00">+</text>
<polyline fill="none" stroke="black" points="191.5,-438.5 262.5,-438.5 "/>
<text text-anchor="middle" x="209" y="-423.3" font-family="Arial" font-size="14.00">lhs</text>
<polyline fill="none" stroke="black" points="226.5,-415.5 226.5,-438.5 "/>
<text text-anchor="middle" x="244.5" y="-423.3" font-family="Arial" font-size="14.00">rhs</text>
</g>
<!-- decl_5&#45;&gt;expr_6 -->
<g id="edge18" class="edge">
<title>decl_5:f2&#45;&gt;expr_6</title>
<path fill="none" stroke="black" d="M277,-498C277,-487.27 272.08,-477.51 265.32,-469.17"/>
<polygon fill="black" stroke="black" points="267.73,-466.62 258.38,-461.63 262.58,-471.36 267.73,-466.62"/>
</g>
<!-- expr_7 -->
<g id="node7" class="node">
<title>expr_7</title>
<polygon fill="none" stroke="black" points="82.5,-332.5 82.5,-378.5 153.5,-378.5 153.5,-332.5 82.5,-332.5"/>
<text text-anchor="middle" x="118" y="-363.3" font-family="Arial" font-size="14.00">&lt;call&gt;</text>
<polyline fill="none" stroke="black" points="82.5,-355.5 153.5,-355.5 "/>
<text text-anchor="middle" x="100" y="-340.3" font-family="Arial" font-size="14.00">lhs</text>
<polyline fill="none" stroke="black" points="117.5,-332.5 117.5,-355.5 "/>
<text text-anchor="middle" x="135.5" y="-340.3" font-family="Arial" font-size="14.00">rhs</text>
</g>
<!-- expr_6&#45;&gt;expr_7 -->
<g id="edge9" class="edge">
<title>expr_6:f1&#45;&gt;expr_7</title>
<path fill="none" stroke="black" d="M190,-426.5C165.92,-426.5 146.86,-406.12 134.42,-387.36"/>
<polygon fill="black" stroke="black" points="137.26,-385.3 129.01,-378.65 131.32,-388.99 137.26,-385.3"/>
</g>
<!-- expr_13 -->
<g id="node13" class="node">
<title>expr_13</title>
<polygon fill="none" stroke="black" points="209.5,-332.5 209.5,-378.5 280.5,-378.5 280.5,-332.5 209.5,-332.5"/>
<text text-anchor="middle" x="245" y="-363.3" font-family="Arial" font-size="14.00">&lt;call&gt;</text>
<polyline fill="none" stroke="black" points="209.5,-355.5 280.5,-355.5 "/>
<text text-anchor="middle" x="227" y="-340.3" font-family="Arial" font-size="14.00">lhs</text>
<polyline fill="none" stroke="black" points="244.5,-332.5 244.5,-355.5 "/>
<text text-anchor="middle" x="262.5" y="-340.3" font-family="Arial" font-size="14.00">rhs</text>
</g>
<!-- expr_6&#45;&gt;expr_13 -->
<g id="edge17" class="edge">
<title>expr_6:f2&#45;&gt;expr_13</title>
<path fill="none" stroke="black" d="M245,-415C245,-406.57 245,-397.46 245,-389"/>
<polygon fill="black" stroke="black" points="248.5,-388.72 245,-378.72 241.5,-388.72 248.5,-388.72"/>
</g>
<!-- expr_8 -->
<g id="node8" class="node">
<title>expr_8</title>
<polygon fill="none" stroke="black" points="8,-249.5 8,-295.5 82,-295.5 82,-249.5 8,-249.5"/>
<text text-anchor="middle" x="45" y="-280.3" font-family="Arial" font-size="14.00">fibonacci</text>
<polyline fill="none" stroke="black" points="8,-272.5 82,-272.5 "/>
<text text-anchor="middle" x="26" y="-257.3" font-family="Arial" font-size="14.00">lhs</text>
<polyline fill="none" stroke="black" points="44,-249.5 44,-272.5 "/>
<text text-anchor="middle" x="63" y="-257.3" font-family="Arial" font-size="14.00">rhs</text>
</g>
<!-- expr_7&#45;&gt;expr_8 -->
<g id="edge4" class="edge">
<title>expr_7:f1&#45;&gt;expr_8</title>
<path fill="none" stroke="black" d="M100,-332C100,-320.9 94.68,-311.05 87.35,-302.74"/>
<polygon fill="black" stroke="black" points="89.69,-300.13 80.14,-295.55 84.75,-305.09 89.69,-300.13"/>
</g>
<!-- expr_9 -->
<g id="node9" class="node">
<title>expr_9</title>
<polygon fill="none" stroke="black" points="100.5,-249.5 100.5,-295.5 171.5,-295.5 171.5,-249.5 100.5,-249.5"/>
<text text-anchor="middle" x="136" y="-280.3" font-family="Arial" font-size="14.00">&lt;args&gt;</text>
<polyline fill="none" stroke="black" points="100.5,-272.5 171.5,-272.5 "/>
<text text-anchor="middle" x="118" y="-257.3" font-family="Arial" font-size="14.00">lhs</text>
<polyline fill="none" stroke="black" points="135.5,-249.5 135.5,-272.5 "/>
<text text-anchor="middle" x="153.5" y="-257.3" font-family="Arial" font-size="14.00">rhs</text>
</g>
<!-- expr_7&#45;&gt;expr_9 -->
<g id="edge8" class="edge">
<title>expr_7:f2&#45;&gt;expr_9</title>
<path fill="none" stroke="black" d="M136,-332C136,-323.57 136,-314.46 136,-306"/>
<polygon fill="black" stroke="black" points="139.5,-305.72 136,-295.72 132.5,-305.72 139.5,-305.72"/>
</g>
<!-- expr_10 -->
<g id="node10" class="node">
<title>expr_10</title>
<polygon fill="none" stroke="black" points="82.5,-166.5 82.5,-212.5 153.5,-212.5 153.5,-166.5 82.5,-166.5"/>
<text text-anchor="middle" x="118" y="-197.3" font-family="Arial" font-size="14.00">&#45;</text>
<polyline fill="none" stroke="black" points="82.5,-189.5 153.5,-189.5 "/>
<text text-anchor="middle" x="100" y="-174.3" font-family="Arial" font-size="14.00">lhs</text>
<polyline fill="none" stroke="black" points="117.5,-166.5 117.5,-189.5 "/>
<text text-anchor="middle" x="135.5" y="-174.3" font-family="Arial" font-size="14.00">rhs</text>
</g>
<!-- expr_9&#45;&gt;expr_10 -->
<g id="edge7" class="edge">
<title>expr_9:f1&#45;&gt;expr_10</title>
<path fill="none" stroke="black" d="M118,-249C118,-240.57 118,-231.46 118,-223"/>
<polygon fill="black" stroke="black" points="121.5,-222.72 118,-212.72 114.5,-222.72 121.5,-222.72"/>
</g>
<!-- expr_11 -->
<g id="node11" class="node">
<title>expr_11</title>
<polygon fill="none" stroke="black" points="38.5,-83.5 38.5,-129.5 109.5,-129.5 109.5,-83.5 38.5,-83.5"/>
<text text-anchor="middle" x="74" y="-114.3" font-family="Arial" font-size="14.00">x</text>
<polyline fill="none" stroke="black" points="38.5,-106.5 109.5,-106.5 "/>
<text text-anchor="middle" x="56" y="-91.3" font-family="Arial" font-size="14.00">lhs</text>
<polyline fill="none" stroke="black" points="73.5,-83.5 73.5,-106.5 "/>
<text text-anchor="middle" x="91.5" y="-91.3" font-family="Arial" font-size="14.00">rhs</text>
</g>
<!-- expr_10&#45;&gt;expr_11 -->
<g id="edge5" class="edge">
<title>expr_10:f1&#45;&gt;expr_11</title>
<path fill="none" stroke="black" d="M100,-166C100,-156.71 97.23,-147.26 93.5,-138.73"/>
<polygon fill="black" stroke="black" points="96.54,-136.98 88.97,-129.56 90.26,-140.08 96.54,-136.98"/>
</g>
<!-- expr_12 -->
<g id="node12" class="node">
<title>expr_12</title>
<polygon fill="none" stroke="black" points="127.5,-83.5 127.5,-129.5 198.5,-129.5 198.5,-83.5 127.5,-83.5"/>
<text text-anchor="middle" x="163" y="-114.3" font-family="Arial" font-size="14.00">2</text>
<polyline fill="none" stroke="black" points="127.5,-106.5 198.5,-106.5 "/>
<text text-anchor="middle" x="145" y="-91.3" font-family="Arial" font-size="14.00">lhs</text>
<polyline fill="none" stroke="black" points="162.5,-83.5 162.5,-106.5 "/>
<text text-anchor="middle" x="180.5" y="-91.3" font-family="Arial" font-size="14.00">rhs</text>
</g>
<!-- expr_10&#45;&gt;expr_12 -->
<g id="edge6" class="edge">
<title>expr_10:f2&#45;&gt;expr_12</title>
<path fill="none" stroke="black" d="M136,-166C136,-156.74 138.83,-147.34 142.65,-138.87"/>
<polygon fill="black" stroke="black" points="145.87,-140.26 147.29,-129.76 139.64,-137.08 145.87,-140.26"/>
</g>
<!-- expr_14 -->
<g id="node14" class="node">
<title>expr_14</title>
<polygon fill="none" stroke="black" points="190,-249.5 190,-295.5 264,-295.5 264,-249.5 190,-249.5"/>
<text text-anchor="middle" x="227" y="-280.3" font-family="Arial" font-size="14.00">fibonacci</text>
<polyline fill="none" stroke="black" points="190,-272.5 264,-272.5 "/>
<text text-anchor="middle" x="208" y="-257.3" font-family="Arial" font-size="14.00">lhs</text>
<polyline fill="none" stroke="black" points="226,-249.5 226,-272.5 "/>
<text text-anchor="middle" x="245" y="-257.3" font-family="Arial" font-size="14.00">rhs</text>
</g>
<!-- expr_13&#45;&gt;expr_14 -->
<g id="edge10" class="edge">
<title>expr_13:f1&#45;&gt;expr_14</title>
<path fill="none" stroke="black" d="M227,-332C227,-323.57 227,-314.46 227,-306"/>
<polygon fill="black" stroke="black" points="230.5,-305.72 227,-295.72 223.5,-305.72 230.5,-305.72"/>
</g>
<!-- expr_15 -->
<g id="node15" class="node">
<title>expr_15</title>
<polygon fill="none" stroke="black" points="282.5,-249.5 282.5,-295.5 353.5,-295.5 353.5,-249.5 282.5,-249.5"/>
<text text-anchor="middle" x="318" y="-280.3" font-family="Arial" font-size="14.00">&lt;args&gt;</text>
<polyline fill="none" stroke="black" points="282.5,-272.5 353.5,-272.5 "/>
<text text-anchor="middle" x="300" y="-257.3" font-family="Arial" font-size="14.00">lhs</text>
<polyline fill="none" stroke="black" points="317.5,-249.5 317.5,-272.5 "/>
<text text-anchor="middle" x="335.5" y="-257.3" font-family="Arial" font-size="14.00">rhs</text>
</g>
<!-- expr_13&#45;&gt;expr_15 -->
<g id="edge16" class="edge">
<title>expr_13:f2&#45;&gt;expr_15</title>
<path fill="none" stroke="black" d="M282,-343.5C283.17,-343.5 293.38,-323.49 302.63,-304.87"/>
<polygon fill="black" stroke="black" points="305.89,-306.16 307.19,-295.65 299.62,-303.06 305.89,-306.16"/>
</g>
<!-- expr_16 -->
<g id="node16" class="node">
<title>expr_16</title>
<polygon fill="none" stroke="black" points="264.5,-166.5 264.5,-212.5 335.5,-212.5 335.5,-166.5 264.5,-166.5"/>
<text text-anchor="middle" x="300" y="-197.3" font-family="Arial" font-size="14.00">+</text>
<polyline fill="none" stroke="black" points="264.5,-189.5 335.5,-189.5 "/>
<text text-anchor="middle" x="282" y="-174.3" font-family="Arial" font-size="14.00">lhs</text>
<polyline fill="none" stroke="black" points="299.5,-166.5 299.5,-189.5 "/>
<text text-anchor="middle" x="317.5" y="-174.3" font-family="Arial" font-size="14.00">rhs</text>
</g>
<!-- expr_15&#45;&gt;expr_16 -->
<g id="edge15" class="edge">
<title>expr_15:f1&#45;&gt;expr_16</title>
<path fill="none" stroke="black" d="M300,-249C300,-240.57 300,-231.46 300,-223"/>
<polygon fill="black" stroke="black" points="303.5,-222.72 300,-212.72 296.5,-222.72 303.5,-222.72"/>
</g>
<!-- expr_17 -->
<g id="node17" class="node">
<title>expr_17</title>
<polygon fill="none" stroke="black" points="231.5,-83.5 231.5,-129.5 302.5,-129.5 302.5,-83.5 231.5,-83.5"/>
<text text-anchor="middle" x="267" y="-114.3" font-family="Arial" font-size="14.00">x</text>
<polyline fill="none" stroke="black" points="231.5,-106.5 302.5,-106.5 "/>
<text text-anchor="middle" x="249" y="-91.3" font-family="Arial" font-size="14.00">lhs</text>
<polyline fill="none" stroke="black" points="266.5,-83.5 266.5,-106.5 "/>
<text text-anchor="middle" x="284.5" y="-91.3" font-family="Arial" font-size="14.00">rhs</text>
</g>
<!-- expr_16&#45;&gt;expr_17 -->
<g id="edge11" class="edge">
<title>expr_16:f1&#45;&gt;expr_17</title>
<path fill="none" stroke="black" d="M282,-166C282,-157.18 280.38,-147.85 278.21,-139.28"/>
<polygon fill="black" stroke="black" points="281.57,-138.32 275.46,-129.66 274.84,-140.24 281.57,-138.32"/>
</g>
<!-- expr_18 -->
<g id="node18" class="node">
<title>expr_18</title>
<polygon fill="none" stroke="black" points="320.5,-83.5 320.5,-129.5 391.5,-129.5 391.5,-83.5 320.5,-83.5"/>
<text text-anchor="middle" x="356" y="-114.3" font-family="Arial" font-size="14.00">/</text>
<polyline fill="none" stroke="black" points="320.5,-106.5 391.5,-106.5 "/>
<text text-anchor="middle" x="338" y="-91.3" font-family="Arial" font-size="14.00">lhs</text>
<polyline fill="none" stroke="black" points="355.5,-83.5 355.5,-106.5 "/>
<text text-anchor="middle" x="373.5" y="-91.3" font-family="Arial" font-size="14.00">rhs</text>
</g>
<!-- expr_16&#45;&gt;expr_18 -->
<g id="edge14" class="edge">
<title>expr_16:f2&#45;&gt;expr_18</title>
<path fill="none" stroke="black" d="M318,-166C318,-156.02 321.94,-146.41 327.27,-137.96"/>
<polygon fill="black" stroke="black" points="330.27,-139.78 333.24,-129.6 324.58,-135.71 330.27,-139.78"/>
</g>
<!-- expr_19 -->
<g id="node19" class="node">
<title>expr_19</title>
<polygon fill="none" stroke="black" points="275.5,-0.5 275.5,-46.5 346.5,-46.5 346.5,-0.5 275.5,-0.5"/>
<text text-anchor="middle" x="311" y="-31.3" font-family="Arial" font-size="14.00">3</text>
<polyline fill="none" stroke="black" points="275.5,-23.5 346.5,-23.5 "/>
<text text-anchor="middle" x="293" y="-8.3" font-family="Arial" font-size="14.00">lhs</text>
<polyline fill="none" stroke="black" points="310.5,-0.5 310.5,-23.5 "/>
<text text-anchor="middle" x="328.5" y="-8.3" font-family="Arial" font-size="14.00">rhs</text>
</g>
<!-- expr_18&#45;&gt;expr_19 -->
<g id="edge12" class="edge">
<title>expr_18:f1&#45;&gt;expr_19</title>
<path fill="none" stroke="black" d="M338,-83C338,-73.74 335.17,-64.34 331.35,-55.87"/>
<polygon fill="black" stroke="black" points="334.36,-54.08 326.71,-46.76 328.13,-57.26 334.36,-54.08"/>
</g>
<!-- expr_20 -->
<g id="node20" class="node">
<title>expr_20</title>
<polygon fill="none" stroke="black" points="364.5,-0.5 364.5,-46.5 435.5,-46.5 435.5,-0.5 364.5,-0.5"/>
<text text-anchor="middle" x="400" y="-31.3" font-family="Arial" font-size="14.00">2</text>
<polyline fill="none" stroke="black" points="364.5,-23.5 435.5,-23.5 "/>
<text text-anchor="middle" x="382" y="-8.3" font-family="Arial" font-size="14.00">lhs</text>
<polyline fill="none" stroke="black" points="399.5,-0.5 399.5,-23.5 "/>
<text text-anchor="middle" x="417.5" y="-8.3" font-family="Arial" font-size="14.00">rhs</text>
</g>
<!-- expr_18&#45;&gt;expr_20 -->
<g id="edge13" class="edge">
<title>expr_18:f2&#45;&gt;expr_20</title>
<path fill="none" stroke="black" d="M374,-83C374,-73.71 376.77,-64.26 380.5,-55.73"/>
<polygon fill="black" stroke="black" points="383.74,-57.08 385.03,-46.56 377.46,-53.98 383.74,-57.08"/>
</g>
<!-- stmt_4&#45;&gt;decl_5 -->
<g id="edge19" class="edge">
<title>stmt_4:f1&#45;&gt;decl_5</title>
<path fill="none" stroke="black" d="M293,-581C293,-571.02 289.06,-561.41 283.73,-552.96"/>
<polygon fill="black" stroke="black" points="286.42,-550.71 277.76,-544.6 280.73,-554.78 286.42,-550.71"/>
</g>
<!-- stmt_21 -->
<g id="node22" class="node">
<title>stmt_21</title>
<polygon fill="none" stroke="black" points="406.5,-498.5 406.5,-544.5 611.5,-544.5 611.5,-498.5 406.5,-498.5"/>
<text text-anchor="middle" x="509" y="-529.3" font-family="Arial" font-size="14.00">IfStatement</text>
<polyline fill="none" stroke="black" points="406.5,-521.5 611.5,-521.5 "/>
<text text-anchor="middle" x="443.5" y="-506.3" font-family="Arial" font-size="14.00">condition</text>
<polyline fill="none" stroke="black" points="480.5,-498.5 480.5,-521.5 "/>
<text text-anchor="middle" x="502.5" y="-506.3" font-family="Arial" font-size="14.00">then</text>
<polyline fill="none" stroke="black" points="524.5,-498.5 524.5,-521.5 "/>
<text text-anchor="middle" x="546.5" y="-506.3" font-family="Arial" font-size="14.00">else</text>
<polyline fill="none" stroke="black" points="568.5,-498.5 568.5,-521.5 "/>
<text text-anchor="middle" x="590" y="-506.3" font-family="Arial" font-size="14.00">next</text>
</g>
<!-- stmt_4&#45;&gt;stmt_21 -->
<g id="edge49" class="edge">
<title>stmt_4:f2&#45;&gt;stmt_21</title>
<path fill="none" stroke="black" d="M393,-592.5C426.52,-592.5 458.66,-570.81 480.58,-551.58"/>
<polygon fill="black" stroke="black" points="483.15,-553.97 488.17,-544.65 478.43,-548.8 483.15,-553.97"/>
</g>
<!-- expr_22 -->
<g id="node23" class="node">
<title>expr_22</title>
<polygon fill="none" stroke="black" points="369.5,-415.5 369.5,-461.5 440.5,-461.5 440.5,-415.5 369.5,-415.5"/>
<text text-anchor="middle" x="405" y="-446.3" font-family="Arial" font-size="14.00">op</text>
<polyline fill="none" stroke="black" points="369.5,-438.5 440.5,-438.5 "/>
<text text-anchor="middle" x="387" y="-423.3" font-family="Arial" font-size="14.00">lhs</text>
<polyline fill="none" stroke="black" points="404.5,-415.5 404.5,-438.5 "/>
<text text-anchor="middle" x="422.5" y="-423.3" font-family="Arial" font-size="14.00">rhs</text>
</g>
<!-- stmt_21&#45;&gt;expr_22 -->
<g id="edge22" class="edge">
<title>stmt_21:f1&#45;&gt;expr_22</title>
<path fill="none" stroke="black" d="M443,-498C443,-488.02 439.06,-478.41 433.73,-469.96"/>
<polygon fill="black" stroke="black" points="436.42,-467.71 427.76,-461.6 430.73,-471.78 436.42,-467.71"/>
</g>
<!-- stmt_25 -->
<g id="node26" class="node">
<title>stmt_25</title>
<polygon fill="none" stroke="black" points="485,-415.5 485,-461.5 595,-461.5 595,-415.5 485,-415.5"/>
<text text-anchor="middle" x="540" y="-446.3" font-family="Arial" font-size="14.00">ExprStatement</text>
<polyline fill="none" stroke="black" points="485,-438.5 595,-438.5 "/>
<text text-anchor="middle" x="512.5" y="-423.3" font-family="Arial" font-size="14.00">expr</text>
<polyline fill="none" stroke="black" points="540,-415.5 540,-438.5 "/>
<text text-anchor="middle" x="567.5" y="-423.3" font-family="Arial" font-size="14.00">next</text>
</g>
<!-- stmt_21&#45;&gt;stmt_25 -->
<g id="edge31" class="edge">
<title>stmt_21:f2&#45;&gt;stmt_25</title>
<path fill="none" stroke="black" d="M502,-498C502,-488.02 505.94,-478.41 511.27,-469.96"/>
<polygon fill="black" stroke="black" points="514.27,-471.78 517.24,-461.6 508.58,-467.71 514.27,-471.78"/>
</g>
<!-- stmt_34 -->
<g id="node35" class="node">
<title>stmt_34</title>
<polygon fill="none" stroke="black" points="723.5,-415.5 723.5,-461.5 928.5,-461.5 928.5,-415.5 723.5,-415.5"/>
<text text-anchor="middle" x="826" y="-446.3" font-family="Arial" font-size="14.00">IfStatement</text>
<polyline fill="none" stroke="black" points="723.5,-438.5 928.5,-438.5 "/>
<text text-anchor="middle" x="760.5" y="-423.3" font-family="Arial" font-size="14.00">condition</text>
<polyline fill="none" stroke="black" points="797.5,-415.5 797.5,-438.5 "/>
<text text-anchor="middle" x="819.5" y="-423.3" font-family="Arial" font-size="14.00">then</text>
<polyline fill="none" stroke="black" points="841.5,-415.5 841.5,-438.5 "/>
<text text-anchor="middle" x="863.5" y="-423.3" font-family="Arial" font-size="14.00">else</text>
<polyline fill="none" stroke="black" points="885.5,-415.5 885.5,-438.5 "/>
<text text-anchor="middle" x="907" y="-423.3" font-family="Arial" font-size="14.00">next</text>
</g>
<!-- stmt_21&#45;&gt;stmt_34 -->
<g id="edge48" class="edge">
<title>stmt_21:f4&#45;&gt;stmt_34</title>
<path fill="none" stroke="black" d="M613,-509.5C670.9,-509.5 733.43,-485.87 775.66,-466.06"/>
<polygon fill="black" stroke="black" points="777.37,-469.12 784.88,-461.65 774.35,-462.81 777.37,-469.12"/>
</g>
<!-- expr_23 -->
<g id="node24" class="node">
<title>expr_23</title>
<polygon fill="none" stroke="black" points="298.5,-332.5 298.5,-378.5 369.5,-378.5 369.5,-332.5 298.5,-332.5"/>
<text text-anchor="middle" x="334" y="-363.3" font-family="Arial" font-size="14.00">x</text>
<polyline fill="none" stroke="black" points="298.5,-355.5 369.5,-355.5 "/>
<text text-anchor="middle" x="316" y="-340.3" font-family="Arial" font-size="14.00">lhs</text>
<polyline fill="none" stroke="black" points="333.5,-332.5 333.5,-355.5 "/>
<text text-anchor="middle" x="351.5" y="-340.3" font-family="Arial" font-size="14.00">rhs</text>
</g>
<!-- expr_22&#45;&gt;expr_23 -->
<g id="edge20" class="edge">
<title>expr_22:f1&#45;&gt;expr_23</title>
<path fill="none" stroke="black" d="M387,-415C387,-403.98 381.77,-394.12 374.6,-385.76"/>
<polygon fill="black" stroke="black" points="377.05,-383.26 367.57,-378.53 372.03,-388.14 377.05,-383.26"/>
</g>
<!-- expr_24 -->
<g id="node25" class="node">
<title>expr_24</title>
<polygon fill="none" stroke="black" points="387.5,-332.5 387.5,-378.5 458.5,-378.5 458.5,-332.5 387.5,-332.5"/>
<text text-anchor="middle" x="423" y="-363.3" font-family="Arial" font-size="14.00">2</text>
<polyline fill="none" stroke="black" points="387.5,-355.5 458.5,-355.5 "/>
<text text-anchor="middle" x="405" y="-340.3" font-family="Arial" font-size="14.00">lhs</text>
<polyline fill="none" stroke="black" points="422.5,-332.5 422.5,-355.5 "/>
<text text-anchor="middle" x="440.5" y="-340.3" font-family="Arial" font-size="14.00">rhs</text>
</g>
<!-- expr_22&#45;&gt;expr_24 -->
<g id="edge21" class="edge">
<title>expr_22:f2&#45;&gt;expr_24</title>
<path fill="none" stroke="black" d="M423,-415C423,-406.57 423,-397.46 423,-389"/>
<polygon fill="black" stroke="black" points="426.5,-388.72 423,-378.72 419.5,-388.72 426.5,-388.72"/>
</g>
<!-- expr_26 -->
<g id="node27" class="node">
<title>expr_26</title>
<polygon fill="none" stroke="black" points="476.5,-332.5 476.5,-378.5 547.5,-378.5 547.5,-332.5 476.5,-332.5"/>
<text text-anchor="middle" x="512" y="-363.3" font-family="Arial" font-size="14.00">&lt;call&gt;</text>
<polyline fill="none" stroke="black" points="476.5,-355.5 547.5,-355.5 "/>
<text text-anchor="middle" x="494" y="-340.3" font-family="Arial" font-size="14.00">lhs</text>
<polyline fill="none" stroke="black" points="511.5,-332.5 511.5,-355.5 "/>
<text text-anchor="middle" x="529.5" y="-340.3" font-family="Arial" font-size="14.00">rhs</text>
</g>
<!-- stmt_25&#45;&gt;expr_26 -->
<g id="edge28" class="edge">
<title>stmt_25:f1&#45;&gt;expr_26</title>
<path fill="none" stroke="black" d="M512,-415C512,-406.57 512,-397.46 512,-389"/>
<polygon fill="black" stroke="black" points="515.5,-388.72 512,-378.72 508.5,-388.72 515.5,-388.72"/>
</g>
<!-- stmt_32 -->
<g id="node33" class="node">
<title>stmt_32</title>
<polygon fill="none" stroke="black" points="576.5,-332.5 576.5,-378.5 699.5,-378.5 699.5,-332.5 576.5,-332.5"/>
<text text-anchor="middle" x="638" y="-363.3" font-family="Arial" font-size="14.00">ReturnStatement</text>
<polyline fill="none" stroke="black" points="576.5,-355.5 699.5,-355.5 "/>
<text text-anchor="middle" x="607.5" y="-340.3" font-family="Arial" font-size="14.00">expr</text>
<polyline fill="none" stroke="black" points="638.5,-332.5 638.5,-355.5 "/>
<text text-anchor="middle" x="669" y="-340.3" font-family="Arial" font-size="14.00">next</text>
</g>
<!-- stmt_25&#45;&gt;stmt_32 -->
<g id="edge30" class="edge">
<title>stmt_25:f2&#45;&gt;stmt_32</title>
<path fill="none" stroke="black" d="M596,-426.5C615.22,-426.5 625.86,-406.85 631.62,-388.38"/>
<polygon fill="black" stroke="black" points="635.02,-389.22 634.28,-378.65 628.27,-387.37 635.02,-389.22"/>
</g>
<!-- expr_27 -->
<g id="node28" class="node">
<title>expr_27</title>
<polygon fill="none" stroke="black" points="399.5,-249.5 399.5,-295.5 470.5,-295.5 470.5,-249.5 399.5,-249.5"/>
<text text-anchor="middle" x="435" y="-280.3" font-family="Arial" font-size="14.00">print</text>
<polyline fill="none" stroke="black" points="399.5,-272.5 470.5,-272.5 "/>
<text text-anchor="middle" x="417" y="-257.3" font-family="Arial" font-size="14.00">lhs</text>
<polyline fill="none" stroke="black" points="434.5,-249.5 434.5,-272.5 "/>
<text text-anchor="middle" x="452.5" y="-257.3" font-family="Arial" font-size="14.00">rhs</text>
</g>
<!-- expr_26&#45;&gt;expr_27 -->
<g id="edge23" class="edge">
<title>expr_26:f1&#45;&gt;expr_27</title>
<path fill="none" stroke="black" d="M475,-343.5C473.8,-343.5 462.35,-323.31 452,-304.61"/>
<polygon fill="black" stroke="black" points="454.96,-302.72 447.07,-295.65 448.83,-306.1 454.96,-302.72"/>
</g>
<!-- expr_28 -->
<g id="node29" class="node">
<title>expr_28</title>
<polygon fill="none" stroke="black" points="488.5,-249.5 488.5,-295.5 559.5,-295.5 559.5,-249.5 488.5,-249.5"/>
<text text-anchor="middle" x="524" y="-280.3" font-family="Arial" font-size="14.00">&lt;args&gt;</text>
<polyline fill="none" stroke="black" points="488.5,-272.5 559.5,-272.5 "/>
<text text-anchor="middle" x="506" y="-257.3" font-family="Arial" font-size="14.00">lhs</text>
<polyline fill="none" stroke="black" points="523.5,-249.5 523.5,-272.5 "/>
<text text-anchor="middle" x="541.5" y="-257.3" font-family="Arial" font-size="14.00">rhs</text>
</g>
<!-- expr_26&#45;&gt;expr_28 -->
<g id="edge27" class="edge">
<title>expr_26:f2&#45;&gt;expr_28</title>
<path fill="none" stroke="black" d="M530,-332C530,-323.44 529.36,-314.2 528.49,-305.66"/>
<polygon fill="black" stroke="black" points="531.96,-305.21 527.35,-295.67 525.01,-306 531.96,-305.21"/>
</g>
<!-- expr_29 -->
<g id="node30" class="node">
<title>expr_29</title>
<polygon fill="none" stroke="black" points="383.5,-166.5 383.5,-212.5 488.5,-212.5 488.5,-166.5 383.5,-166.5"/>
<text text-anchor="middle" x="436" y="-197.3" font-family="Arial" font-size="14.00">&quot;fibbonaci: %&quot;</text>
<polyline fill="none" stroke="black" points="383.5,-189.5 488.5,-189.5 "/>
<text text-anchor="middle" x="409.5" y="-174.3" font-family="Arial" font-size="14.00">lhs</text>
<polyline fill="none" stroke="black" points="435.5,-166.5 435.5,-189.5 "/>
<text text-anchor="middle" x="462" y="-174.3" font-family="Arial" font-size="14.00">rhs</text>
</g>
<!-- expr_28&#45;&gt;expr_29 -->
<g id="edge24" class="edge">
<title>expr_28:f1&#45;&gt;expr_29</title>
<path fill="none" stroke="black" d="M487,-260.5C480.77,-260.5 482.62,-254.06 479,-249 472.44,-239.83 465.22,-229.93 458.6,-220.93"/>
<polygon fill="black" stroke="black" points="461.22,-218.59 452.47,-212.62 455.59,-222.75 461.22,-218.59"/>
</g>
<!-- expr_30 -->
<g id="node31" class="node">
<title>expr_30</title>
<polygon fill="none" stroke="black" points="506.5,-166.5 506.5,-212.5 577.5,-212.5 577.5,-166.5 506.5,-166.5"/>
<text text-anchor="middle" x="542" y="-197.3" font-family="Arial" font-size="14.00">&lt;args&gt;</text>
<polyline fill="none" stroke="black" points="506.5,-189.5 577.5,-189.5 "/>
<text text-anchor="middle" x="524" y="-174.3" font-family="Arial" font-size="14.00">lhs</text>
<polyline fill="none" stroke="black" points="541.5,-166.5 541.5,-189.5 "/>
<text text-anchor="middle" x="559.5" y="-174.3" font-family="Arial" font-size="14.00">rhs</text>
</g>
<!-- expr_28&#45;&gt;expr_30 -->
<g id="edge26" class="edge">
<title>expr_28:f2&#45;&gt;expr_30</title>
<path fill="none" stroke="black" d="M542,-249C542,-240.57 542,-231.46 542,-223"/>
<polygon fill="black" stroke="black" points="545.5,-222.72 542,-212.72 538.5,-222.72 545.5,-222.72"/>
</g>
<!-- expr_31 -->
<g id="node32" class="node">
<title>expr_31</title>
<polygon fill="none" stroke="black" points="488.5,-83.5 488.5,-129.5 559.5,-129.5 559.5,-83.5 488.5,-83.5"/>
<text text-anchor="middle" x="524" y="-114.3" font-family="Arial" font-size="14.00">x</text>
<polyline fill="none" stroke="black" points="488.5,-106.5 559.5,-106.5 "/>
<text text-anchor="middle" x="506" y="-91.3" font-family="Arial" font-size="14.00">lhs</text>
<polyline fill="none" stroke="black" points="523.5,-83.5 523.5,-106.5 "/>
<text text-anchor="middle" x="541.5" y="-91.3" font-family="Arial" font-size="14.00">rhs</text>
</g>
<!-- expr_30&#45;&gt;expr_31 -->
<g id="edge25" class="edge">
<title>expr_30:f1&#45;&gt;expr_31</title>
<path fill="none" stroke="black" d="M524,-166C524,-157.57 524,-148.46 524,-140"/>
<polygon fill="black" stroke="black" points="527.5,-139.72 524,-129.72 520.5,-139.72 527.5,-139.72"/>
</g>
<!-- expr_33 -->
<g id="node34" class="node">
<title>expr_33</title>
<polygon fill="none" stroke="black" points="577.5,-249.5 577.5,-295.5 648.5,-295.5 648.5,-249.5 577.5,-249.5"/>
<text text-anchor="middle" x="613" y="-280.3" font-family="Arial" font-size="14.00">x</text>
<polyline fill="none" stroke="black" points="577.5,-272.5 648.5,-272.5 "/>
<text text-anchor="middle" x="595" y="-257.3" font-family="Arial" font-size="14.00">lhs</text>
<polyline fill="none" stroke="black" points="612.5,-249.5 612.5,-272.5 "/>
<text text-anchor="middle" x="630.5" y="-257.3" font-family="Arial" font-size="14.00">rhs</text>
</g>
<!-- stmt_32&#45;&gt;expr_33 -->
<g id="edge29" class="edge">
<title>stmt_32:f1&#45;&gt;expr_33</title>
<path fill="none" stroke="black" d="M607,-332C607,-323.44 607.64,-314.2 608.51,-305.66"/>
<polygon fill="black" stroke="black" points="611.99,-306 609.65,-295.67 605.04,-305.21 611.99,-306"/>
</g>
<!-- expr_35 -->
<g id="node36" class="node">
<title>expr_35</title>
<polygon fill="none" stroke="black" points="724.5,-332.5 724.5,-378.5 795.5,-378.5 795.5,-332.5 724.5,-332.5"/>
<text text-anchor="middle" x="760" y="-363.3" font-family="Arial" font-size="14.00">/</text>
<polyline fill="none" stroke="black" points="724.5,-355.5 795.5,-355.5 "/>
<text text-anchor="middle" x="742" y="-340.3" font-family="Arial" font-size="14.00">lhs</text>
<polyline fill="none" stroke="black" points="759.5,-332.5 759.5,-355.5 "/>
<text text-anchor="middle" x="777.5" y="-340.3" font-family="Arial" font-size="14.00">rhs</text>
</g>
<!-- stmt_34&#45;&gt;expr_35 -->
<g id="edge36" class="edge">
<title>stmt_34:f1&#45;&gt;expr_35</title>
<path fill="none" stroke="black" d="M760,-415C760,-406.57 760,-397.46 760,-389"/>
<polygon fill="black" stroke="black" points="763.5,-388.72 760,-378.72 756.5,-388.72 763.5,-388.72"/>
</g>
<!-- stmt_40 -->
<g id="node41" class="node">
<title>stmt_40</title>
<polygon fill="none" stroke="black" points="853,-332.5 853,-378.5 963,-378.5 963,-332.5 853,-332.5"/>
<text text-anchor="middle" x="908" y="-363.3" font-family="Arial" font-size="14.00">ExprStatement</text>
<polyline fill="none" stroke="black" points="853,-355.5 963,-355.5 "/>
<text text-anchor="middle" x="880.5" y="-340.3" font-family="Arial" font-size="14.00">expr</text>
<polyline fill="none" stroke="black" points="908,-332.5 908,-355.5 "/>
<text text-anchor="middle" x="935.5" y="-340.3" font-family="Arial" font-size="14.00">next</text>
</g>
<!-- stmt_34&#45;&gt;stmt_40 -->
<g id="edge47" class="edge">
<title>stmt_34:f2&#45;&gt;stmt_40</title>
<path fill="none" stroke="black" d="M819,-415C819,-398.54 829.76,-386.45 843.8,-377.69"/>
<polygon fill="black" stroke="black" points="845.85,-380.56 852.9,-372.65 842.46,-374.43 845.85,-380.56"/>
</g>
<!-- expr_36 -->
<g id="node37" class="node">
<title>expr_36</title>
<polygon fill="none" stroke="black" points="666.5,-249.5 666.5,-295.5 737.5,-295.5 737.5,-249.5 666.5,-249.5"/>
<text text-anchor="middle" x="702" y="-280.3" font-family="Arial" font-size="14.00">op</text>
<polyline fill="none" stroke="black" points="666.5,-272.5 737.5,-272.5 "/>
<text text-anchor="middle" x="684" y="-257.3" font-family="Arial" font-size="14.00">lhs</text>
<polyline fill="none" stroke="black" points="701.5,-249.5 701.5,-272.5 "/>
<text text-anchor="middle" x="719.5" y="-257.3" font-family="Arial" font-size="14.00">rhs</text>
</g>
<!-- expr_35&#45;&gt;expr_36 -->
<g id="edge34" class="edge">
<title>expr_35:f1&#45;&gt;expr_36</title>
<path fill="none" stroke="black" d="M742,-332C742,-321.85 737.85,-312.17 732.21,-303.7"/>
<polygon fill="black" stroke="black" points="734.99,-301.57 726.19,-295.67 729.39,-305.77 734.99,-301.57"/>
</g>
<!-- expr_39 -->
<g id="node40" class="node">
<title>expr_39</title>
<polygon fill="none" stroke="black" points="755.5,-249.5 755.5,-295.5 826.5,-295.5 826.5,-249.5 755.5,-249.5"/>
<text text-anchor="middle" x="791" y="-280.3" font-family="Arial" font-size="14.00">4</text>
<polyline fill="none" stroke="black" points="755.5,-272.5 826.5,-272.5 "/>
<text text-anchor="middle" x="773" y="-257.3" font-family="Arial" font-size="14.00">lhs</text>
<polyline fill="none" stroke="black" points="790.5,-249.5 790.5,-272.5 "/>
<text text-anchor="middle" x="808.5" y="-257.3" font-family="Arial" font-size="14.00">rhs</text>
</g>
<!-- expr_35&#45;&gt;expr_39 -->
<g id="edge35" class="edge">
<title>expr_35:f2&#45;&gt;expr_39</title>
<path fill="none" stroke="black" d="M778,-332C778,-323.35 779.37,-314.14 781.23,-305.65"/>
<polygon fill="black" stroke="black" points="784.67,-306.29 783.66,-295.75 777.88,-304.62 784.67,-306.29"/>
</g>
<!-- expr_37 -->
<g id="node38" class="node">
<title>expr_37</title>
<polygon fill="none" stroke="black" points="595.5,-166.5 595.5,-212.5 666.5,-212.5 666.5,-166.5 595.5,-166.5"/>
<text text-anchor="middle" x="631" y="-197.3" font-family="Arial" font-size="14.00">x</text>
<polyline fill="none" stroke="black" points="595.5,-189.5 666.5,-189.5 "/>
<text text-anchor="middle" x="613" y="-174.3" font-family="Arial" font-size="14.00">lhs</text>
<polyline fill="none" stroke="black" points="630.5,-166.5 630.5,-189.5 "/>
<text text-anchor="middle" x="648.5" y="-174.3" font-family="Arial" font-size="14.00">rhs</text>
</g>
<!-- expr_36&#45;&gt;expr_37 -->
<g id="edge32" class="edge">
<title>expr_36:f1&#45;&gt;expr_37</title>
<path fill="none" stroke="black" d="M684,-249C684,-237.98 678.77,-228.12 671.6,-219.76"/>
<polygon fill="black" stroke="black" points="674.05,-217.26 664.57,-212.53 669.03,-222.14 674.05,-217.26"/>
</g>
<!-- expr_38 -->
<g id="node39" class="node">
<title>expr_38</title>
<polygon fill="none" stroke="black" points="684.5,-166.5 684.5,-212.5 755.5,-212.5 755.5,-166.5 684.5,-166.5"/>
<text text-anchor="middle" x="720" y="-197.3" font-family="Arial" font-size="14.00">23</text>
<polyline fill="none" stroke="black" points="684.5,-189.5 755.5,-189.5 "/>
<text text-anchor="middle" x="702" y="-174.3" font-family="Arial" font-size="14.00">lhs</text>
<polyline fill="none" stroke="black" points="719.5,-166.5 719.5,-189.5 "/>
<text text-anchor="middle" x="737.5" y="-174.3" font-family="Arial" font-size="14.00">rhs</text>
</g>
<!-- expr_36&#45;&gt;expr_38 -->
<g id="edge33" class="edge">
<title>expr_36:f2&#45;&gt;expr_38</title>
<path fill="none" stroke="black" d="M720,-249C720,-240.57 720,-231.46 720,-223"/>
<polygon fill="black" stroke="black" points="723.5,-222.72 720,-212.72 716.5,-222.72 723.5,-222.72"/>
</g>
<!-- expr_41 -->
<g id="node42" class="node">
<title>expr_41</title>
<polygon fill="none" stroke="black" points="844.5,-249.5 844.5,-295.5 915.5,-295.5 915.5,-249.5 844.5,-249.5"/>
<text text-anchor="middle" x="880" y="-280.3" font-family="Arial" font-size="14.00">&lt;call&gt;</text>
<polyline fill="none" stroke="black" points="844.5,-272.5 915.5,-272.5 "/>
<text text-anchor="middle" x="862" y="-257.3" font-family="Arial" font-size="14.00">lhs</text>
<polyline fill="none" stroke="black" points="879.5,-249.5 879.5,-272.5 "/>
<text text-anchor="middle" x="897.5" y="-257.3" font-family="Arial" font-size="14.00">rhs</text>
</g>
<!-- stmt_40&#45;&gt;expr_41 -->
<g id="edge42" class="edge">
<title>stmt_40:f1&#45;&gt;expr_41</title>
<path fill="none" stroke="black" d="M880,-332C880,-323.57 880,-314.46 880,-306"/>
<polygon fill="black" stroke="black" points="883.5,-305.72 880,-295.72 876.5,-305.72 883.5,-305.72"/>
</g>
<!-- stmt_47 -->
<g id="node48" class="node">
<title>stmt_47</title>
<polygon fill="none" stroke="black" points="963.5,-249.5 963.5,-295.5 1086.5,-295.5 1086.5,-249.5 963.5,-249.5"/>
<text text-anchor="middle" x="1025" y="-280.3" font-family="Arial" font-size="14.00">ReturnStatement</text>
<polyline fill="none" stroke="black" points="963.5,-272.5 1086.5,-272.5 "/>
<text text-anchor="middle" x="994.5" y="-257.3" font-family="Arial" font-size="14.00">expr</text>
<polyline fill="none" stroke="black" points="1025.5,-249.5 1025.5,-272.5 "/>
<text text-anchor="middle" x="1056" y="-257.3" font-family="Arial" font-size="14.00">next</text>
</g>
<!-- stmt_40&#45;&gt;stmt_47 -->
<g id="edge46" class="edge">
<title>stmt_40:f2&#45;&gt;stmt_47</title>
<path fill="none" stroke="black" d="M964,-343.5C986.16,-343.5 1002.12,-323.31 1012.14,-304.61"/>
<polygon fill="black" stroke="black" points="1015.27,-306.16 1016.58,-295.65 1009,-303.05 1015.27,-306.16"/>
</g>
<!-- expr_42 -->
<g id="node43" class="node">
<title>expr_42</title>
<polygon fill="none" stroke="black" points="773.5,-166.5 773.5,-212.5 844.5,-212.5 844.5,-166.5 773.5,-166.5"/>
<text text-anchor="middle" x="809" y="-197.3" font-family="Arial" font-size="14.00">print</text>
<polyline fill="none" stroke="black" points="773.5,-189.5 844.5,-189.5 "/>
<text text-anchor="middle" x="791" y="-174.3" font-family="Arial" font-size="14.00">lhs</text>
<polyline fill="none" stroke="black" points="808.5,-166.5 808.5,-189.5 "/>
<text text-anchor="middle" x="826.5" y="-174.3" font-family="Arial" font-size="14.00">rhs</text>
</g>
<!-- expr_41&#45;&gt;expr_42 -->
<g id="edge37" class="edge">
<title>expr_41:f1&#45;&gt;expr_42</title>
<path fill="none" stroke="black" d="M862,-249C862,-237.98 856.77,-228.12 849.6,-219.76"/>
<polygon fill="black" stroke="black" points="852.05,-217.26 842.57,-212.53 847.03,-222.14 852.05,-217.26"/>
</g>
<!-- expr_43 -->
<g id="node44" class="node">
<title>expr_43</title>
<polygon fill="none" stroke="black" points="862.5,-166.5 862.5,-212.5 933.5,-212.5 933.5,-166.5 862.5,-166.5"/>
<text text-anchor="middle" x="898" y="-197.3" font-family="Arial" font-size="14.00">&lt;args&gt;</text>
<polyline fill="none" stroke="black" points="862.5,-189.5 933.5,-189.5 "/>
<text text-anchor="middle" x="880" y="-174.3" font-family="Arial" font-size="14.00">lhs</text>
<polyline fill="none" stroke="black" points="897.5,-166.5 897.5,-189.5 "/>
<text text-anchor="middle" x="915.5" y="-174.3" font-family="Arial" font-size="14.00">rhs</text>
</g>
<!-- expr_41&#45;&gt;expr_43 -->
<g id="edge41" class="edge">
<title>expr_41:f2&#45;&gt;expr_43</title>
<path fill="none" stroke="black" d="M898,-249C898,-240.57 898,-231.46 898,-223"/>
<polygon fill="black" stroke="black" points="901.5,-222.72 898,-212.72 894.5,-222.72 901.5,-222.72"/>
</g>
<!-- expr_44 -->
<g id="node45" class="node">
<title>expr_44</title>
<polygon fill="none" stroke="black" points="758,-83.5 758,-129.5 862,-129.5 862,-83.5 758,-83.5"/>
<text text-anchor="middle" x="810" y="-114.3" font-family="Arial" font-size="14.00">&quot;fibonacci: %&quot;</text>
<polyline fill="none" stroke="black" points="758,-106.5 862,-106.5 "/>
<text text-anchor="middle" x="783.5" y="-91.3" font-family="Arial" font-size="14.00">lhs</text>
<polyline fill="none" stroke="black" points="809,-83.5 809,-106.5 "/>
<text text-anchor="middle" x="835.5" y="-91.3" font-family="Arial" font-size="14.00">rhs</text>
</g>
<!-- expr_43&#45;&gt;expr_44 -->
<g id="edge38" class="edge">
<title>expr_43:f1&#45;&gt;expr_44</title>
<path fill="none" stroke="black" d="M861,-177.5C854.77,-177.5 856.62,-171.06 853,-166 846.44,-156.83 839.22,-146.93 832.6,-137.93"/>
<polygon fill="black" stroke="black" points="835.22,-135.59 826.47,-129.62 829.59,-139.75 835.22,-135.59"/>
</g>
<!-- expr_45 -->
<g id="node46" class="node">
<title>expr_45</title>
<polygon fill="none" stroke="black" points="880.5,-83.5 880.5,-129.5 951.5,-129.5 951.5,-83.5 880.5,-83.5"/>
<text text-anchor="middle" x="916" y="-114.3" font-family="Arial" font-size="14.00">&lt;args&gt;</text>
<polyline fill="none" stroke="black" points="880.5,-106.5 951.5,-106.5 "/>
<text text-anchor="middle" x="898" y="-91.3" font-family="Arial" font-size="14.00">lhs</text>
<polyline fill="none" stroke="black" points="915.5,-83.5 915.5,-106.5 "/>
<text text-anchor="middle" x="933.5" y="-91.3" font-family="Arial" font-size="14.00">rhs</text>
</g>
<!-- expr_43&#45;&gt;expr_45 -->
<g id="edge40" class="edge">
<title>expr_43:f2&#45;&gt;expr_45</title>
<path fill="none" stroke="black" d="M916,-166C916,-157.57 916,-148.46 916,-140"/>
<polygon fill="black" stroke="black" points="919.5,-139.72 916,-129.72 912.5,-139.72 919.5,-139.72"/>
</g>
<!-- expr_46 -->
<g id="node47" class="node">
<title>expr_46</title>
<polygon fill="none" stroke="black" points="862.5,-0.5 862.5,-46.5 933.5,-46.5 933.5,-0.5 862.5,-0.5"/>
<text text-anchor="middle" x="898" y="-31.3" font-family="Arial" font-size="14.00">x</text>
<polyline fill="none" stroke="black" points="862.5,-23.5 933.5,-23.5 "/>
<text text-anchor="middle" x="880" y="-8.3" font-family="Arial" font-size="14.00">lhs</text>
<polyline fill="none" stroke="black" points="897.5,-0.5 897.5,-23.5 "/>
<text text-anchor="middle" x="915.5" y="-8.3" font-family="Arial" font-size="14.00">rhs</text>
</g>
<!-- expr_45&#45;&gt;expr_46 -->
<g id="edge39" class="edge">
<title>expr_45:f1&#45;&gt;expr_46</title>
<path fill="none" stroke="black" d="M898,-83C898,-74.57 898,-65.46 898,-57"/>
<polygon fill="black" stroke="black" points="901.5,-56.72 898,-46.72 894.5,-56.72 901.5,-56.72"/>
</g>
<!-- expr_48 -->
<g id="node49" class="node">
<title>expr_48</title>
<polygon fill="none" stroke="black" points="987.5,-166.5 987.5,-212.5 1058.5,-212.5 1058.5,-166.5 987.5,-166.5"/>
<text text-anchor="middle" x="1023" y="-197.3" font-family="Arial" font-size="14.00">+</text>
<polyline fill="none" stroke="black" points="987.5,-189.5 1058.5,-189.5 "/>
<text text-anchor="middle" x="1005" y="-174.3" font-family="Arial" font-size="14.00">lhs</text>
<polyline fill="none" stroke="black" points="1022.5,-166.5 1022.5,-189.5 "/>
<text text-anchor="middle" x="1040.5" y="-174.3" font-family="Arial" font-size="14.00">rhs</text>
</g>
<!-- stmt_47&#45;&gt;expr_48 -->
<g id="edge45" class="edge">
<title>stmt_47:f1&#45;&gt;expr_48</title>
<path fill="none" stroke="black" d="M994,-249C994,-239.51 997.1,-229.97 1001.28,-221.43"/>
<polygon fill="black" stroke="black" points="1004.38,-223.05 1006.13,-212.6 998.24,-219.68 1004.38,-223.05"/>
</g>
<!-- expr_49 -->
<g id="node50" class="node">
<title>expr_49</title>
<polygon fill="none" stroke="black" points="969.5,-83.5 969.5,-129.5 1040.5,-129.5 1040.5,-83.5 969.5,-83.5"/>
<text text-anchor="middle" x="1005" y="-114.3" font-family="Arial" font-size="14.00">x</text>
<polyline fill="none" stroke="black" points="969.5,-106.5 1040.5,-106.5 "/>
<text text-anchor="middle" x="987" y="-91.3" font-family="Arial" font-size="14.00">lhs</text>
<polyline fill="none" stroke="black" points="1004.5,-83.5 1004.5,-106.5 "/>
<text text-anchor="middle" x="1022.5" y="-91.3" font-family="Arial" font-size="14.00">rhs</text>
</g>
<!-- expr_48&#45;&gt;expr_49 -->
<g id="edge43" class="edge">
<title>expr_48:f1&#45;&gt;expr_49</title>
<path fill="none" stroke="black" d="M1005,-166C1005,-157.57 1005,-148.46 1005,-140"/>
<polygon fill="black" stroke="black" points="1008.5,-139.72 1005,-129.72 1001.5,-139.72 1008.5,-139.72"/>
</g>
<!-- expr_50 -->
<g id="node51" class="node">
<title>expr_50</title>
<polygon fill="none" stroke="black" points="1058.5,-83.5 1058.5,-129.5 1129.5,-129.5 1129.5,-83.5 1058.5,-83.5"/>
<text text-anchor="middle" x="1094" y="-114.3" font-family="Arial" font-size="14.00">2</text>
<polyline fill="none" stroke="black" points="1058.5,-106.5 1129.5,-106.5 "/>
<text text-anchor="middle" x="1076" y="-91.3" font-family="Arial" font-size="14.00">lhs</text>
<polyline fill="none" stroke="black" points="1093.5,-83.5 1093.5,-106.5 "/>
<text text-anchor="middle" x="1111.5" y="-91.3" font-family="Arial" font-size="14.00">rhs</text>
</g>
<!-- expr_48&#45;&gt;expr_50 -->
<g id="edge44" class="edge">
<title>expr_48:f2&#45;&gt;expr_50</title>
<path fill="none" stroke="black" d="M1060,-177.5C1078.24,-177.5 1086.7,-158.03 1090.62,-139.63"/>
<polygon fill="black" stroke="black" points="1094.09,-140.1 1092.36,-129.65 1087.19,-138.9 1094.09,-140.1"/>
</g>
</g>
</svg>
