<?xml version="1.0" encoding="UTF-8" standalone="no"?>
<!DOCTYPE svg PUBLIC "-//W3C//DTD SVG 1.1//EN"
 "http://www.w3.org/Graphics/SVG/1.1/DTD/svg11.dtd">
<!-- Generated by graphviz version 2.44.1 (20200629.0800)
 -->
<!-- Title: G Pages: 1 -->
<svg width="979pt" height="802pt"
 viewBox="0.00 0.00 978.50 802.00" xmlns="http://www.w3.org/2000/svg" xmlns:xlink="http://www.w3.org/1999/xlink">
<g id="graph0" class="graph" transform="scale(1 1) rotate(0) translate(4 798)">
<title>G</title>
<polygon fill="white" stroke="transparent" points="-4,4 -4,-798 974.5,-798 974.5,4 -4,4"/>
<!-- decl_0 -->
<g id="node1" class="node">
<title>decl_0</title>
<polygon fill="none" stroke="black" points="88.5,-747.5 88.5,-793.5 363.5,-793.5 363.5,-747.5 88.5,-747.5"/>
<text text-anchor="middle" x="226" y="-778.3" font-family="Arial" font-size="14.00">FunctionDecl</text>
<polyline fill="none" stroke="black" points="88.5,-770.5 363.5,-770.5 "/>
<text text-anchor="middle" x="114.5" y="-755.3" font-family="Arial" font-size="14.00">name</text>
<polyline fill="none" stroke="black" points="140.5,-747.5 140.5,-770.5 "/>
<text text-anchor="middle" x="172.5" y="-755.3" font-family="Arial" font-size="14.00">params</text>
<polyline fill="none" stroke="black" points="204.5,-747.5 204.5,-770.5 "/>
<text text-anchor="middle" x="238.5" y="-755.3" font-family="Arial" font-size="14.00">ret_type</text>
<polyline fill="none" stroke="black" points="272.5,-747.5 272.5,-770.5 "/>
<text text-anchor="middle" x="296.5" y="-755.3" font-family="Arial" font-size="14.00">body</text>
<polyline fill="none" stroke="black" points="320.5,-747.5 320.5,-770.5 "/>
<text text-anchor="middle" x="342" y="-755.3" font-family="Arial" font-size="14.00">next</text>
</g>
<!-- str_1 -->
<g id="node2" class="node">
<title>str_1</title>
<polygon fill="none" stroke="black" points="0,-669.5 0,-705.5 84,-705.5 84,-669.5 0,-669.5"/>
<text text-anchor="middle" x="42" y="-683.8" font-family="Arial" font-size="14.00">&quot;fibonacci&quot;</text>
</g>
<!-- decl_0&#45;&gt;str_1 -->
<g id="edge1" class="edge">
<title>decl_0:f1&#45;&gt;str_1</title>
<path fill="none" stroke="black" d="M87,-758.5C65.72,-758.5 54.03,-735.32 47.94,-715.64"/>
<polygon fill="black" stroke="black" points="51.26,-714.52 45.24,-705.8 44.51,-716.37 51.26,-714.52"/>
</g>
<!-- param_2 -->
<g id="node3" class="node">
<title>param_2</title>
<polygon fill="none" stroke="black" points="102.5,-664.5 102.5,-710.5 241.5,-710.5 241.5,-664.5 102.5,-664.5"/>
<text text-anchor="middle" x="172" y="-695.3" font-family="Arial" font-size="14.00">ParameterNode</text>
<polyline fill="none" stroke="black" points="102.5,-687.5 241.5,-687.5 "/>
<text text-anchor="middle" x="128.5" y="-672.3" font-family="Arial" font-size="14.00">name</text>
<polyline fill="none" stroke="black" points="154.5,-664.5 154.5,-687.5 "/>
<text text-anchor="middle" x="176.5" y="-672.3" font-family="Arial" font-size="14.00">type</text>
<polyline fill="none" stroke="black" points="198.5,-664.5 198.5,-687.5 "/>
<text text-anchor="middle" x="220" y="-672.3" font-family="Arial" font-size="14.00">next</text>
</g>
<!-- decl_0&#45;&gt;param_2 -->
<g id="edge3" class="edge">
<title>decl_0:f2&#45;&gt;param_2</title>
<path fill="none" stroke="black" d="M172,-747C172,-738.57 172,-729.46 172,-721"/>
<polygon fill="black" stroke="black" points="175.5,-720.72 172,-710.72 168.5,-720.72 175.5,-720.72"/>
</g>
<!-- stmt_4 -->
<g id="node21" class="node">
<title>stmt_4</title>
<polygon fill="none" stroke="black" points="260,-664.5 260,-710.5 392,-710.5 392,-664.5 260,-664.5"/>
<text text-anchor="middle" x="326" y="-695.3" font-family="Arial" font-size="14.00">VarDeclStatement</text>
<polyline fill="none" stroke="black" points="260,-687.5 392,-687.5 "/>
<text text-anchor="middle" x="293" y="-672.3" font-family="Arial" font-size="14.00">decl</text>
<polyline fill="none" stroke="black" points="326,-664.5 326,-687.5 "/>
<text text-anchor="middle" x="359" y="-672.3" font-family="Arial" font-size="14.00">next</text>
</g>
<!-- decl_0&#45;&gt;stmt_4 -->
<g id="edge50" class="edge">
<title>decl_0:f4&#45;&gt;stmt_4</title>
<path fill="none" stroke="black" d="M297,-747C297,-737.51 300.1,-727.97 304.28,-719.43"/>
<polygon fill="black" stroke="black" points="307.38,-721.05 309.13,-710.6 301.24,-717.68 307.38,-721.05"/>
</g>
<!-- str_3 -->
<g id="node4" class="node">
<title>str_3</title>
<polygon fill="none" stroke="black" points="101,-586.5 101,-622.5 155,-622.5 155,-586.5 101,-586.5"/>
<text text-anchor="middle" x="128" y="-600.8" font-family="Arial" font-size="14.00">&quot;x&quot;</text>
</g>
<!-- param_2&#45;&gt;str_3 -->
<g id="edge2" class="edge">
<title>param_2:f1&#45;&gt;str_3</title>
<path fill="none" stroke="black" d="M128,-664C128,-653.78 128,-642.56 128,-632.7"/>
<polygon fill="black" stroke="black" points="131.5,-632.65 128,-622.65 124.5,-632.65 131.5,-632.65"/>
</g>
<!-- decl_5 -->
<g id="node5" class="node">
<title>decl_5</title>
<polygon fill="none" stroke="black" points="211,-581.5 211,-627.5 299,-627.5 299,-581.5 211,-581.5"/>
<text text-anchor="middle" x="255" y="-612.3" font-family="Arial" font-size="14.00">x</text>
<polyline fill="none" stroke="black" points="211,-604.5 299,-604.5 "/>
<text text-anchor="middle" x="233" y="-589.3" font-family="Arial" font-size="14.00">type</text>
<polyline fill="none" stroke="black" points="255,-581.5 255,-604.5 "/>
<text text-anchor="middle" x="277" y="-589.3" font-family="Arial" font-size="14.00">expr</text>
</g>
<!-- expr_6 -->
<g id="node6" class="node">
<title>expr_6</title>
<polygon fill="none" stroke="black" points="191.5,-498.5 191.5,-544.5 262.5,-544.5 262.5,-498.5 191.5,-498.5"/>
<text text-anchor="middle" x="227" y="-529.3" font-family="Arial" font-size="14.00">+</text>
<polyline fill="none" stroke="black" points="191.5,-521.5 262.5,-521.5 "/>
<text text-anchor="middle" x="209" y="-506.3" font-family="Arial" font-size="14.00">lhs</text>
<polyline fill="none" stroke="black" points="226.5,-498.5 226.5,-521.5 "/>
<text text-anchor="middle" x="244.5" y="-506.3" font-family="Arial" font-size="14.00">rhs</text>
</g>
<!-- decl_5&#45;&gt;expr_6 -->
<g id="edge18" class="edge">
<title>decl_5:f2&#45;&gt;expr_6</title>
<path fill="none" stroke="black" d="M277,-581C277,-570.27 272.08,-560.51 265.32,-552.17"/>
<polygon fill="black" stroke="black" points="267.73,-549.62 258.38,-544.63 262.58,-554.36 267.73,-549.62"/>
</g>
<!-- expr_7 -->
<g id="node7" class="node">
<title>expr_7</title>
<polygon fill="none" stroke="black" points="82.5,-415.5 82.5,-461.5 153.5,-461.5 153.5,-415.5 82.5,-415.5"/>
<text text-anchor="middle" x="118" y="-446.3" font-family="Arial" font-size="14.00">&lt;call&gt;</text>
<polyline fill="none" stroke="black" points="82.5,-438.5 153.5,-438.5 "/>
<text text-anchor="middle" x="100" y="-423.3" font-family="Arial" font-size="14.00">lhs</text>
<polyline fill="none" stroke="black" points="117.5,-415.5 117.5,-438.5 "/>
<text text-anchor="middle" x="135.5" y="-423.3" font-family="Arial" font-size="14.00">rhs</text>
</g>
<!-- expr_6&#45;&gt;expr_7 -->
<g id="edge9" class="edge">
<title>expr_6:f1&#45;&gt;expr_7</title>
<path fill="none" stroke="black" d="M190,-509.5C165.92,-509.5 146.86,-489.12 134.42,-470.36"/>
<polygon fill="black" stroke="black" points="137.26,-468.3 129.01,-461.65 131.32,-471.99 137.26,-468.3"/>
</g>
<!-- expr_13 -->
<g id="node13" class="node">
<title>expr_13</title>
<polygon fill="none" stroke="black" points="209.5,-415.5 209.5,-461.5 280.5,-461.5 280.5,-415.5 209.5,-415.5"/>
<text text-anchor="middle" x="245" y="-446.3" font-family="Arial" font-size="14.00">&lt;call&gt;</text>
<polyline fill="none" stroke="black" points="209.5,-438.5 280.5,-438.5 "/>
<text text-anchor="middle" x="227" y="-423.3" font-family="Arial" font-size="14.00">lhs</text>
<polyline fill="none" stroke="black" points="244.5,-415.5 244.5,-438.5 "/>
<text text-anchor="middle" x="262.5" y="-423.3" font-family="Arial" font-size="14.00">rhs</text>
</g>
<!-- expr_6&#45;&gt;expr_13 -->
<g id="edge17" class="edge">
<title>expr_6:f2&#45;&gt;expr_13</title>
<path fill="none" stroke="black" d="M245,-498C245,-489.57 245,-480.46 245,-472"/>
<polygon fill="black" stroke="black" points="248.5,-471.72 245,-461.72 241.5,-471.72 248.5,-471.72"/>
</g>
<!-- expr_8 -->
<g id="node8" class="node">
<title>expr_8</title>
<polygon fill="none" stroke="black" points="8,-332.5 8,-378.5 82,-378.5 82,-332.5 8,-332.5"/>
<text text-anchor="middle" x="45" y="-363.3" font-family="Arial" font-size="14.00">fibonacci</text>
<polyline fill="none" stroke="black" points="8,-355.5 82,-355.5 "/>
<text text-anchor="middle" x="26" y="-340.3" font-family="Arial" font-size="14.00">lhs</text>
<polyline fill="none" stroke="black" points="44,-332.5 44,-355.5 "/>
<text text-anchor="middle" x="63" y="-340.3" font-family="Arial" font-size="14.00">rhs</text>
</g>
<!-- expr_7&#45;&gt;expr_8 -->
<g id="edge4" class="edge">
<title>expr_7:f1&#45;&gt;expr_8</title>
<path fill="none" stroke="black" d="M100,-415C100,-403.9 94.68,-394.05 87.35,-385.74"/>
<polygon fill="black" stroke="black" points="89.69,-383.13 80.14,-378.55 84.75,-388.09 89.69,-383.13"/>
</g>
<!-- expr_9 -->
<g id="node9" class="node">
<title>expr_9</title>
<polygon fill="none" stroke="black" points="100.5,-332.5 100.5,-378.5 171.5,-378.5 171.5,-332.5 100.5,-332.5"/>
<text text-anchor="middle" x="136" y="-363.3" font-family="Arial" font-size="14.00">&lt;args&gt;</text>
<polyline fill="none" stroke="black" points="100.5,-355.5 171.5,-355.5 "/>
<text text-anchor="middle" x="118" y="-340.3" font-family="Arial" font-size="14.00">lhs</text>
<polyline fill="none" stroke="black" points="135.5,-332.5 135.5,-355.5 "/>
<text text-anchor="middle" x="153.5" y="-340.3" font-family="Arial" font-size="14.00">rhs</text>
</g>
<!-- expr_7&#45;&gt;expr_9 -->
<g id="edge8" class="edge">
<title>expr_7:f2&#45;&gt;expr_9</title>
<path fill="none" stroke="black" d="M136,-415C136,-406.57 136,-397.46 136,-389"/>
<polygon fill="black" stroke="black" points="139.5,-388.72 136,-378.72 132.5,-388.72 139.5,-388.72"/>
</g>
<!-- expr_10 -->
<g id="node10" class="node">
<title>expr_10</title>
<polygon fill="none" stroke="black" points="82.5,-249.5 82.5,-295.5 153.5,-295.5 153.5,-249.5 82.5,-249.5"/>
<text text-anchor="middle" x="118" y="-280.3" font-family="Arial" font-size="14.00">&#45;</text>
<polyline fill="none" stroke="black" points="82.5,-272.5 153.5,-272.5 "/>
<text text-anchor="middle" x="100" y="-257.3" font-family="Arial" font-size="14.00">lhs</text>
<polyline fill="none" stroke="black" points="117.5,-249.5 117.5,-272.5 "/>
<text text-anchor="middle" x="135.5" y="-257.3" font-family="Arial" font-size="14.00">rhs</text>
</g>
<!-- expr_9&#45;&gt;expr_10 -->
<g id="edge7" class="edge">
<title>expr_9:f1&#45;&gt;expr_10</title>
<path fill="none" stroke="black" d="M118,-332C118,-323.57 118,-314.46 118,-306"/>
<polygon fill="black" stroke="black" points="121.5,-305.72 118,-295.72 114.5,-305.72 121.5,-305.72"/>
</g>
<!-- expr_11 -->
<g id="node11" class="node">
<title>expr_11</title>
<polygon fill="none" stroke="black" points="15.5,-166.5 15.5,-212.5 86.5,-212.5 86.5,-166.5 15.5,-166.5"/>
<text text-anchor="middle" x="51" y="-197.3" font-family="Arial" font-size="14.00">x</text>
<polyline fill="none" stroke="black" points="15.5,-189.5 86.5,-189.5 "/>
<text text-anchor="middle" x="33" y="-174.3" font-family="Arial" font-size="14.00">lhs</text>
<polyline fill="none" stroke="black" points="50.5,-166.5 50.5,-189.5 "/>
<text text-anchor="middle" x="68.5" y="-174.3" font-family="Arial" font-size="14.00">rhs</text>
</g>
<!-- expr_10&#45;&gt;expr_11 -->
<g id="edge5" class="edge">
<title>expr_10:f1&#45;&gt;expr_11</title>
<path fill="none" stroke="black" d="M100,-249C100,-238.36 95.18,-228.63 88.55,-220.3"/>
<polygon fill="black" stroke="black" points="91.05,-217.84 81.75,-212.75 85.85,-222.53 91.05,-217.84"/>
</g>
<!-- expr_12 -->
<g id="node12" class="node">
<title>expr_12</title>
<polygon fill="none" stroke="black" points="104.5,-166.5 104.5,-212.5 175.5,-212.5 175.5,-166.5 104.5,-166.5"/>
<text text-anchor="middle" x="140" y="-197.3" font-family="Arial" font-size="14.00">2</text>
<polyline fill="none" stroke="black" points="104.5,-189.5 175.5,-189.5 "/>
<text text-anchor="middle" x="122" y="-174.3" font-family="Arial" font-size="14.00">lhs</text>
<polyline fill="none" stroke="black" points="139.5,-166.5 139.5,-189.5 "/>
<text text-anchor="middle" x="157.5" y="-174.3" font-family="Arial" font-size="14.00">rhs</text>
</g>
<!-- expr_10&#45;&gt;expr_12 -->
<g id="edge6" class="edge">
<title>expr_10:f2&#45;&gt;expr_12</title>
<path fill="none" stroke="black" d="M136,-249C136,-240.46 136.43,-231.23 137.01,-222.69"/>
<polygon fill="black" stroke="black" points="140.5,-222.94 137.77,-212.7 133.52,-222.4 140.5,-222.94"/>
</g>
<!-- expr_14 -->
<g id="node14" class="node">
<title>expr_14</title>
<polygon fill="none" stroke="black" points="190,-332.5 190,-378.5 264,-378.5 264,-332.5 190,-332.5"/>
<text text-anchor="middle" x="227" y="-363.3" font-family="Arial" font-size="14.00">fibonacci</text>
<polyline fill="none" stroke="black" points="190,-355.5 264,-355.5 "/>
<text text-anchor="middle" x="208" y="-340.3" font-family="Arial" font-size="14.00">lhs</text>
<polyline fill="none" stroke="black" points="226,-332.5 226,-355.5 "/>
<text text-anchor="middle" x="245" y="-340.3" font-family="Arial" font-size="14.00">rhs</text>
</g>
<!-- expr_13&#45;&gt;expr_14 -->
<g id="edge10" class="edge">
<title>expr_13:f1&#45;&gt;expr_14</title>
<path fill="none" stroke="black" d="M227,-415C227,-406.57 227,-397.46 227,-389"/>
<polygon fill="black" stroke="black" points="230.5,-388.72 227,-378.72 223.5,-388.72 230.5,-388.72"/>
</g>
<!-- expr_15 -->
<g id="node15" class="node">
<title>expr_15</title>
<polygon fill="none" stroke="black" points="282.5,-332.5 282.5,-378.5 353.5,-378.5 353.5,-332.5 282.5,-332.5"/>
<text text-anchor="middle" x="318" y="-363.3" font-family="Arial" font-size="14.00">&lt;args&gt;</text>
<polyline fill="none" stroke="black" points="282.5,-355.5 353.5,-355.5 "/>
<text text-anchor="middle" x="300" y="-340.3" font-family="Arial" font-size="14.00">lhs</text>
<polyline fill="none" stroke="black" points="317.5,-332.5 317.5,-355.5 "/>
<text text-anchor="middle" x="335.5" y="-340.3" font-family="Arial" font-size="14.00">rhs</text>
</g>
<!-- expr_13&#45;&gt;expr_15 -->
<g id="edge16" class="edge">
<title>expr_13:f2&#45;&gt;expr_15</title>
<path fill="none" stroke="black" d="M282,-426.5C283.17,-426.5 293.38,-406.49 302.63,-387.87"/>
<polygon fill="black" stroke="black" points="305.89,-389.16 307.19,-378.65 299.62,-386.06 305.89,-389.16"/>
</g>
<!-- expr_16 -->
<g id="node16" class="node">
<title>expr_16</title>
<polygon fill="none" stroke="black" points="264.5,-249.5 264.5,-295.5 335.5,-295.5 335.5,-249.5 264.5,-249.5"/>
<text text-anchor="middle" x="300" y="-280.3" font-family="Arial" font-size="14.00">+</text>
<polyline fill="none" stroke="black" points="264.5,-272.5 335.5,-272.5 "/>
<text text-anchor="middle" x="282" y="-257.3" font-family="Arial" font-size="14.00">lhs</text>
<polyline fill="none" stroke="black" points="299.5,-249.5 299.5,-272.5 "/>
<text text-anchor="middle" x="317.5" y="-257.3" font-family="Arial" font-size="14.00">rhs</text>
</g>
<!-- expr_15&#45;&gt;expr_16 -->
<g id="edge15" class="edge">
<title>expr_15:f1&#45;&gt;expr_16</title>
<path fill="none" stroke="black" d="M300,-332C300,-323.57 300,-314.46 300,-306"/>
<polygon fill="black" stroke="black" points="303.5,-305.72 300,-295.72 296.5,-305.72 303.5,-305.72"/>
</g>
<!-- expr_17 -->
<g id="node17" class="node">
<title>expr_17</title>
<polygon fill="none" stroke="black" points="197.5,-166.5 197.5,-212.5 268.5,-212.5 268.5,-166.5 197.5,-166.5"/>
<text text-anchor="middle" x="233" y="-197.3" font-family="Arial" font-size="14.00">x</text>
<polyline fill="none" stroke="black" points="197.5,-189.5 268.5,-189.5 "/>
<text text-anchor="middle" x="215" y="-174.3" font-family="Arial" font-size="14.00">lhs</text>
<polyline fill="none" stroke="black" points="232.5,-166.5 232.5,-189.5 "/>
<text text-anchor="middle" x="250.5" y="-174.3" font-family="Arial" font-size="14.00">rhs</text>
</g>
<!-- expr_16&#45;&gt;expr_17 -->
<g id="edge11" class="edge">
<title>expr_16:f1&#45;&gt;expr_17</title>
<path fill="none" stroke="black" d="M282,-249C282,-238.36 277.18,-228.63 270.55,-220.3"/>
<polygon fill="black" stroke="black" points="273.05,-217.84 263.75,-212.75 267.85,-222.53 273.05,-217.84"/>
</g>
<!-- expr_18 -->
<g id="node18" class="node">
<title>expr_18</title>
<polygon fill="none" stroke="black" points="286.5,-166.5 286.5,-212.5 357.5,-212.5 357.5,-166.5 286.5,-166.5"/>
<text text-anchor="middle" x="322" y="-197.3" font-family="Arial" font-size="14.00">/</text>
<polyline fill="none" stroke="black" points="286.5,-189.5 357.5,-189.5 "/>
<text text-anchor="middle" x="304" y="-174.3" font-family="Arial" font-size="14.00">lhs</text>
<polyline fill="none" stroke="black" points="321.5,-166.5 321.5,-189.5 "/>
<text text-anchor="middle" x="339.5" y="-174.3" font-family="Arial" font-size="14.00">rhs</text>
</g>
<!-- expr_16&#45;&gt;expr_18 -->
<g id="edge14" class="edge">
<title>expr_16:f2&#45;&gt;expr_18</title>
<path fill="none" stroke="black" d="M318,-249C318,-240.46 318.43,-231.23 319.01,-222.69"/>
<polygon fill="black" stroke="black" points="322.5,-222.94 319.77,-212.7 315.52,-222.4 322.5,-222.94"/>
</g>
<!-- expr_19 -->
<g id="node19" class="node">
<title>expr_19</title>
<polygon fill="none" stroke="black" points="220.5,-83.5 220.5,-129.5 291.5,-129.5 291.5,-83.5 220.5,-83.5"/>
<text text-anchor="middle" x="256" y="-114.3" font-family="Arial" font-size="14.00">3</text>
<polyline fill="none" stroke="black" points="220.5,-106.5 291.5,-106.5 "/>
<text text-anchor="middle" x="238" y="-91.3" font-family="Arial" font-size="14.00">lhs</text>
<polyline fill="none" stroke="black" points="255.5,-83.5 255.5,-106.5 "/>
<text text-anchor="middle" x="273.5" y="-91.3" font-family="Arial" font-size="14.00">rhs</text>
</g>
<!-- expr_18&#45;&gt;expr_19 -->
<g id="edge12" class="edge">
<title>expr_18:f1&#45;&gt;expr_19</title>
<path fill="none" stroke="black" d="M304,-166C304,-155.35 299.18,-145.57 292.6,-137.19"/>
<polygon fill="black" stroke="black" points="295.11,-134.75 285.85,-129.6 289.88,-139.4 295.11,-134.75"/>
</g>
<!-- expr_20 -->
<g id="node20" class="node">
<title>expr_20</title>
<polygon fill="none" stroke="black" points="309.5,-83.5 309.5,-129.5 380.5,-129.5 380.5,-83.5 309.5,-83.5"/>
<text text-anchor="middle" x="345" y="-114.3" font-family="Arial" font-size="14.00">2</text>
<polyline fill="none" stroke="black" points="309.5,-106.5 380.5,-106.5 "/>
<text text-anchor="middle" x="327" y="-91.3" font-family="Arial" font-size="14.00">lhs</text>
<polyline fill="none" stroke="black" points="344.5,-83.5 344.5,-106.5 "/>
<text text-anchor="middle" x="362.5" y="-91.3" font-family="Arial" font-size="14.00">rhs</text>
</g>
<!-- expr_18&#45;&gt;expr_20 -->
<g id="edge13" class="edge">
<title>expr_18:f2&#45;&gt;expr_20</title>
<path fill="none" stroke="black" d="M340,-166C340,-157.45 340.54,-148.22 341.26,-139.68"/>
<polygon fill="black" stroke="black" points="344.75,-139.97 342.21,-129.69 337.78,-139.31 344.75,-139.97"/>
</g>
<!-- stmt_4&#45;&gt;decl_5 -->
<g id="edge19" class="edge">
<title>stmt_4:f1&#45;&gt;decl_5</title>
<path fill="none" stroke="black" d="M293,-664C293,-654.02 289.06,-644.41 283.73,-635.96"/>
<polygon fill="black" stroke="black" points="286.42,-633.71 277.76,-627.6 280.73,-637.78 286.42,-633.71"/>
</g>
<!-- stmt_21 -->
<g id="node22" class="node">
<title>stmt_21</title>
<polygon fill="none" stroke="black" points="388.5,-581.5 388.5,-627.5 593.5,-627.5 593.5,-581.5 388.5,-581.5"/>
<text text-anchor="middle" x="491" y="-612.3" font-family="Arial" font-size="14.00">IfStatement</text>
<polyline fill="none" stroke="black" points="388.5,-604.5 593.5,-604.5 "/>
<text text-anchor="middle" x="425.5" y="-589.3" font-family="Arial" font-size="14.00">condition</text>
<polyline fill="none" stroke="black" points="462.5,-581.5 462.5,-604.5 "/>
<text text-anchor="middle" x="484.5" y="-589.3" font-family="Arial" font-size="14.00">then</text>
<polyline fill="none" stroke="black" points="506.5,-581.5 506.5,-604.5 "/>
<text text-anchor="middle" x="528.5" y="-589.3" font-family="Arial" font-size="14.00">else</text>
<polyline fill="none" stroke="black" points="550.5,-581.5 550.5,-604.5 "/>
<text text-anchor="middle" x="572" y="-589.3" font-family="Arial" font-size="14.00">next</text>
</g>
<!-- stmt_4&#45;&gt;stmt_21 -->
<g id="edge49" class="edge">
<title>stmt_4:f2&#45;&gt;stmt_21</title>
<path fill="none" stroke="black" d="M393,-675.5C422.53,-675.5 449.31,-654.19 467.38,-635.08"/>
<polygon fill="black" stroke="black" points="470,-637.41 474.11,-627.65 464.8,-632.72 470,-637.41"/>
</g>
<!-- expr_22 -->
<g id="node23" class="node">
<title>expr_22</title>
<polygon fill="none" stroke="black" points="361.5,-498.5 361.5,-544.5 432.5,-544.5 432.5,-498.5 361.5,-498.5"/>
<text text-anchor="middle" x="397" y="-529.3" font-family="Arial" font-size="14.00">op</text>
<polyline fill="none" stroke="black" points="361.5,-521.5 432.5,-521.5 "/>
<text text-anchor="middle" x="379" y="-506.3" font-family="Arial" font-size="14.00">lhs</text>
<polyline fill="none" stroke="black" points="396.5,-498.5 396.5,-521.5 "/>
<text text-anchor="middle" x="414.5" y="-506.3" font-family="Arial" font-size="14.00">rhs</text>
</g>
<!-- stmt_21&#45;&gt;expr_22 -->
<g id="edge22" class="edge">
<title>stmt_21:f1&#45;&gt;expr_22</title>
<path fill="none" stroke="black" d="M425,-581C425,-571.57 422.01,-562.06 417.98,-553.52"/>
<polygon fill="black" stroke="black" points="421.07,-551.87 413.29,-544.68 414.88,-555.16 421.07,-551.87"/>
</g>
<!-- stmt_25 -->
<g id="node26" class="node">
<title>stmt_25</title>
<polygon fill="none" stroke="black" points="450.5,-498.5 450.5,-544.5 573.5,-544.5 573.5,-498.5 450.5,-498.5"/>
<text text-anchor="middle" x="512" y="-529.3" font-family="Arial" font-size="14.00">ReturnStatement</text>
<polyline fill="none" stroke="black" points="450.5,-521.5 573.5,-521.5 "/>
<text text-anchor="middle" x="481.5" y="-506.3" font-family="Arial" font-size="14.00">expr</text>
<polyline fill="none" stroke="black" points="512.5,-498.5 512.5,-521.5 "/>
<text text-anchor="middle" x="543" y="-506.3" font-family="Arial" font-size="14.00">next</text>
</g>
<!-- stmt_21&#45;&gt;stmt_25 -->
<g id="edge24" class="edge">
<title>stmt_21:f2&#45;&gt;stmt_25</title>
<path fill="none" stroke="black" d="M484,-581C484,-571.57 486.99,-562.06 491.02,-553.52"/>
<polygon fill="black" stroke="black" points="494.12,-555.16 495.71,-544.68 487.93,-551.87 494.12,-555.16"/>
</g>
<!-- stmt_27 -->
<g id="node28" class="node">
<title>stmt_27</title>
<polygon fill="none" stroke="black" points="591.5,-498.5 591.5,-544.5 714.5,-544.5 714.5,-498.5 591.5,-498.5"/>
<text text-anchor="middle" x="653" y="-529.3" font-family="Arial" font-size="14.00">ReturnStatement</text>
<polyline fill="none" stroke="black" points="591.5,-521.5 714.5,-521.5 "/>
<text text-anchor="middle" x="622.5" y="-506.3" font-family="Arial" font-size="14.00">expr</text>
<polyline fill="none" stroke="black" points="653.5,-498.5 653.5,-521.5 "/>
<text text-anchor="middle" x="684" y="-506.3" font-family="Arial" font-size="14.00">next</text>
</g>
<!-- stmt_21&#45;&gt;stmt_27 -->
<g id="edge48" class="edge">
<title>stmt_21:f3&#45;&gt;stmt_27</title>
<path fill="none" stroke="black" d="M529,-581C529,-573.86 556.25,-560.56 585.2,-548.44"/>
<polygon fill="black" stroke="black" points="586.72,-551.6 594.63,-544.56 584.05,-545.13 586.72,-551.6"/>
</g>
<!-- expr_23 -->
<g id="node24" class="node">
<title>expr_23</title>
<polygon fill="none" stroke="black" points="298.5,-415.5 298.5,-461.5 369.5,-461.5 369.5,-415.5 298.5,-415.5"/>
<text text-anchor="middle" x="334" y="-446.3" font-family="Arial" font-size="14.00">x</text>
<polyline fill="none" stroke="black" points="298.5,-438.5 369.5,-438.5 "/>
<text text-anchor="middle" x="316" y="-423.3" font-family="Arial" font-size="14.00">lhs</text>
<polyline fill="none" stroke="black" points="333.5,-415.5 333.5,-438.5 "/>
<text text-anchor="middle" x="351.5" y="-423.3" font-family="Arial" font-size="14.00">rhs</text>
</g>
<!-- expr_22&#45;&gt;expr_23 -->
<g id="edge20" class="edge">
<title>expr_22:f1&#45;&gt;expr_23</title>
<path fill="none" stroke="black" d="M379,-498C379,-487.62 374.49,-477.95 368.34,-469.59"/>
<polygon fill="black" stroke="black" points="370.83,-467.11 361.73,-461.67 365.45,-471.59 370.83,-467.11"/>
</g>
<!-- expr_24 -->
<g id="node25" class="node">
<title>expr_24</title>
<polygon fill="none" stroke="black" points="387.5,-415.5 387.5,-461.5 458.5,-461.5 458.5,-415.5 387.5,-415.5"/>
<text text-anchor="middle" x="423" y="-446.3" font-family="Arial" font-size="14.00">2</text>
<polyline fill="none" stroke="black" points="387.5,-438.5 458.5,-438.5 "/>
<text text-anchor="middle" x="405" y="-423.3" font-family="Arial" font-size="14.00">lhs</text>
<polyline fill="none" stroke="black" points="422.5,-415.5 422.5,-438.5 "/>
<text text-anchor="middle" x="440.5" y="-423.3" font-family="Arial" font-size="14.00">rhs</text>
</g>
<!-- expr_22&#45;&gt;expr_24 -->
<g id="edge21" class="edge">
<title>expr_22:f2&#45;&gt;expr_24</title>
<path fill="none" stroke="black" d="M415,-498C415,-489.4 415.86,-480.16 417.01,-471.61"/>
<polygon fill="black" stroke="black" points="420.49,-472.04 418.53,-461.63 413.57,-470.99 420.49,-472.04"/>
</g>
<!-- expr_26 -->
<g id="node27" class="node">
<title>expr_26</title>
<polygon fill="none" stroke="black" points="476.5,-415.5 476.5,-461.5 547.5,-461.5 547.5,-415.5 476.5,-415.5"/>
<text text-anchor="middle" x="512" y="-446.3" font-family="Arial" font-size="14.00">x</text>
<polyline fill="none" stroke="black" points="476.5,-438.5 547.5,-438.5 "/>
<text text-anchor="middle" x="494" y="-423.3" font-family="Arial" font-size="14.00">lhs</text>
<polyline fill="none" stroke="black" points="511.5,-415.5 511.5,-438.5 "/>
<text text-anchor="middle" x="529.5" y="-423.3" font-family="Arial" font-size="14.00">rhs</text>
</g>
<!-- stmt_25&#45;&gt;expr_26 -->
<g id="edge23" class="edge">
<title>stmt_25:f1&#45;&gt;expr_26</title>
<path fill="none" stroke="black" d="M481,-498C481,-488.46 484.26,-478.96 488.66,-470.47"/>
<polygon fill="black" stroke="black" points="491.76,-472.11 493.79,-461.71 485.72,-468.57 491.76,-472.11"/>
</g>
<!-- expr_28 -->
<g id="node29" class="node">
<title>expr_28</title>
<polygon fill="none" stroke="black" points="579.5,-415.5 579.5,-461.5 650.5,-461.5 650.5,-415.5 579.5,-415.5"/>
<text text-anchor="middle" x="615" y="-446.3" font-family="Arial" font-size="14.00">+</text>
<polyline fill="none" stroke="black" points="579.5,-438.5 650.5,-438.5 "/>
<text text-anchor="middle" x="597" y="-423.3" font-family="Arial" font-size="14.00">lhs</text>
<polyline fill="none" stroke="black" points="614.5,-415.5 614.5,-438.5 "/>
<text text-anchor="middle" x="632.5" y="-423.3" font-family="Arial" font-size="14.00">rhs</text>
</g>
<!-- stmt_27&#45;&gt;expr_28 -->
<g id="edge37" class="edge">
<title>stmt_27:f1&#45;&gt;expr_28</title>
<path fill="none" stroke="black" d="M622,-498C622,-489.42 621.25,-480.18 620.24,-471.64"/>
<polygon fill="black" stroke="black" points="623.7,-471.1 618.91,-461.65 616.76,-472.02 623.7,-471.1"/>
</g>
<!-- stmt_41 -->
<g id="node42" class="node">
<title>stmt_41</title>
<polygon fill="none" stroke="black" points="707,-415.5 707,-461.5 817,-461.5 817,-415.5 707,-415.5"/>
<text text-anchor="middle" x="762" y="-446.3" font-family="Arial" font-size="14.00">ExprStatement</text>
<polyline fill="none" stroke="black" points="707,-438.5 817,-438.5 "/>
<text text-anchor="middle" x="734.5" y="-423.3" font-family="Arial" font-size="14.00">expr</text>
<polyline fill="none" stroke="black" points="762,-415.5 762,-438.5 "/>
<text text-anchor="middle" x="789.5" y="-423.3" font-family="Arial" font-size="14.00">next</text>
</g>
<!-- stmt_27&#45;&gt;stmt_41 -->
<g id="edge47" class="edge">
<title>stmt_27:f2&#45;&gt;stmt_41</title>
<path fill="none" stroke="black" d="M716,-509.5C735.72,-509.5 747.46,-489.85 754.13,-471.38"/>
<polygon fill="black" stroke="black" points="757.53,-472.24 757.26,-461.65 750.87,-470.1 757.53,-472.24"/>
</g>
<!-- expr_29 -->
<g id="node30" class="node">
<title>expr_29</title>
<polygon fill="none" stroke="black" points="429.5,-332.5 429.5,-378.5 500.5,-378.5 500.5,-332.5 429.5,-332.5"/>
<text text-anchor="middle" x="465" y="-363.3" font-family="Arial" font-size="14.00">&lt;call&gt;</text>
<polyline fill="none" stroke="black" points="429.5,-355.5 500.5,-355.5 "/>
<text text-anchor="middle" x="447" y="-340.3" font-family="Arial" font-size="14.00">lhs</text>
<polyline fill="none" stroke="black" points="464.5,-332.5 464.5,-355.5 "/>
<text text-anchor="middle" x="482.5" y="-340.3" font-family="Arial" font-size="14.00">rhs</text>
</g>
<!-- expr_28&#45;&gt;expr_29 -->
<g id="edge30" class="edge">
<title>expr_28:f1&#45;&gt;expr_29</title>
<path fill="none" stroke="black" d="M578,-426.5C573.8,-426.5 537.81,-403.85 507.56,-384.32"/>
<polygon fill="black" stroke="black" points="509.1,-381.15 498.81,-378.65 505.3,-387.02 509.1,-381.15"/>
</g>
<!-- expr_35 -->
<g id="node36" class="node">
<title>expr_35</title>
<polygon fill="none" stroke="black" points="597.5,-332.5 597.5,-378.5 668.5,-378.5 668.5,-332.5 597.5,-332.5"/>
<text text-anchor="middle" x="633" y="-363.3" font-family="Arial" font-size="14.00">&lt;call&gt;</text>
<polyline fill="none" stroke="black" points="597.5,-355.5 668.5,-355.5 "/>
<text text-anchor="middle" x="615" y="-340.3" font-family="Arial" font-size="14.00">lhs</text>
<polyline fill="none" stroke="black" points="632.5,-332.5 632.5,-355.5 "/>
<text text-anchor="middle" x="650.5" y="-340.3" font-family="Arial" font-size="14.00">rhs</text>
</g>
<!-- expr_28&#45;&gt;expr_35 -->
<g id="edge36" class="edge">
<title>expr_28:f2&#45;&gt;expr_35</title>
<path fill="none" stroke="black" d="M633,-415C633,-406.57 633,-397.46 633,-389"/>
<polygon fill="black" stroke="black" points="636.5,-388.72 633,-378.72 629.5,-388.72 636.5,-388.72"/>
</g>
<!-- expr_30 -->
<g id="node31" class="node">
<title>expr_30</title>
<polygon fill="none" stroke="black" points="355,-249.5 355,-295.5 429,-295.5 429,-249.5 355,-249.5"/>
<text text-anchor="middle" x="392" y="-280.3" font-family="Arial" font-size="14.00">fibonacci</text>
<polyline fill="none" stroke="black" points="355,-272.5 429,-272.5 "/>
<text text-anchor="middle" x="373" y="-257.3" font-family="Arial" font-size="14.00">lhs</text>
<polyline fill="none" stroke="black" points="391,-249.5 391,-272.5 "/>
<text text-anchor="middle" x="410" y="-257.3" font-family="Arial" font-size="14.00">rhs</text>
</g>
<!-- expr_29&#45;&gt;expr_30 -->
<g id="edge25" class="edge">
<title>expr_29:f1&#45;&gt;expr_30</title>
<path fill="none" stroke="black" d="M447,-332C447,-320.9 441.68,-311.05 434.35,-302.74"/>
<polygon fill="black" stroke="black" points="436.69,-300.13 427.14,-295.55 431.75,-305.09 436.69,-300.13"/>
</g>
<!-- expr_31 -->
<g id="node32" class="node">
<title>expr_31</title>
<polygon fill="none" stroke="black" points="447.5,-249.5 447.5,-295.5 518.5,-295.5 518.5,-249.5 447.5,-249.5"/>
<text text-anchor="middle" x="483" y="-280.3" font-family="Arial" font-size="14.00">&lt;args&gt;</text>
<polyline fill="none" stroke="black" points="447.5,-272.5 518.5,-272.5 "/>
<text text-anchor="middle" x="465" y="-257.3" font-family="Arial" font-size="14.00">lhs</text>
<polyline fill="none" stroke="black" points="482.5,-249.5 482.5,-272.5 "/>
<text text-anchor="middle" x="500.5" y="-257.3" font-family="Arial" font-size="14.00">rhs</text>
</g>
<!-- expr_29&#45;&gt;expr_31 -->
<g id="edge29" class="edge">
<title>expr_29:f2&#45;&gt;expr_31</title>
<path fill="none" stroke="black" d="M483,-332C483,-323.57 483,-314.46 483,-306"/>
<polygon fill="black" stroke="black" points="486.5,-305.72 483,-295.72 479.5,-305.72 486.5,-305.72"/>
</g>
<!-- expr_32 -->
<g id="node33" class="node">
<title>expr_32</title>
<polygon fill="none" stroke="black" points="429.5,-166.5 429.5,-212.5 500.5,-212.5 500.5,-166.5 429.5,-166.5"/>
<text text-anchor="middle" x="465" y="-197.3" font-family="Arial" font-size="14.00">&#45;</text>
<polyline fill="none" stroke="black" points="429.5,-189.5 500.5,-189.5 "/>
<text text-anchor="middle" x="447" y="-174.3" font-family="Arial" font-size="14.00">lhs</text>
<polyline fill="none" stroke="black" points="464.5,-166.5 464.5,-189.5 "/>
<text text-anchor="middle" x="482.5" y="-174.3" font-family="Arial" font-size="14.00">rhs</text>
</g>
<!-- expr_31&#45;&gt;expr_32 -->
<g id="edge28" class="edge">
<title>expr_31:f1&#45;&gt;expr_32</title>
<path fill="none" stroke="black" d="M465,-249C465,-240.57 465,-231.46 465,-223"/>
<polygon fill="black" stroke="black" points="468.5,-222.72 465,-212.72 461.5,-222.72 468.5,-222.72"/>
</g>
<!-- expr_33 -->
<g id="node34" class="node">
<title>expr_33</title>
<polygon fill="none" stroke="black" points="407.5,-83.5 407.5,-129.5 478.5,-129.5 478.5,-83.5 407.5,-83.5"/>
<text text-anchor="middle" x="443" y="-114.3" font-family="Arial" font-size="14.00">x</text>
<polyline fill="none" stroke="black" points="407.5,-106.5 478.5,-106.5 "/>
<text text-anchor="middle" x="425" y="-91.3" font-family="Arial" font-size="14.00">lhs</text>
<polyline fill="none" stroke="black" points="442.5,-83.5 442.5,-106.5 "/>
<text text-anchor="middle" x="460.5" y="-91.3" font-family="Arial" font-size="14.00">rhs</text>
</g>
<!-- expr_32&#45;&gt;expr_33 -->
<g id="edge26" class="edge">
<title>expr_32:f1&#45;&gt;expr_33</title>
<path fill="none" stroke="black" d="M447,-166C447,-157.46 446.57,-148.23 445.99,-139.69"/>
<polygon fill="black" stroke="black" points="449.48,-139.4 445.23,-129.7 442.5,-139.94 449.48,-139.4"/>
</g>
<!-- expr_34 -->
<g id="node35" class="node">
<title>expr_34</title>
<polygon fill="none" stroke="black" points="496.5,-83.5 496.5,-129.5 567.5,-129.5 567.5,-83.5 496.5,-83.5"/>
<text text-anchor="middle" x="532" y="-114.3" font-family="Arial" font-size="14.00">1</text>
<polyline fill="none" stroke="black" points="496.5,-106.5 567.5,-106.5 "/>
<text text-anchor="middle" x="514" y="-91.3" font-family="Arial" font-size="14.00">lhs</text>
<polyline fill="none" stroke="black" points="531.5,-83.5 531.5,-106.5 "/>
<text text-anchor="middle" x="549.5" y="-91.3" font-family="Arial" font-size="14.00">rhs</text>
</g>
<!-- expr_32&#45;&gt;expr_34 -->
<g id="edge27" class="edge">
<title>expr_32:f2&#45;&gt;expr_34</title>
<path fill="none" stroke="black" d="M483,-166C483,-155.36 487.82,-145.63 494.45,-137.3"/>
<polygon fill="black" stroke="black" points="497.15,-139.53 501.25,-129.75 491.95,-134.84 497.15,-139.53"/>
</g>
<!-- expr_36 -->
<g id="node37" class="node">
<title>expr_36</title>
<polygon fill="none" stroke="black" points="537,-249.5 537,-295.5 611,-295.5 611,-249.5 537,-249.5"/>
<text text-anchor="middle" x="574" y="-280.3" font-family="Arial" font-size="14.00">fibonacci</text>
<polyline fill="none" stroke="black" points="537,-272.5 611,-272.5 "/>
<text text-anchor="middle" x="555" y="-257.3" font-family="Arial" font-size="14.00">lhs</text>
<polyline fill="none" stroke="black" points="573,-249.5 573,-272.5 "/>
<text text-anchor="middle" x="592" y="-257.3" font-family="Arial" font-size="14.00">rhs</text>
</g>
<!-- expr_35&#45;&gt;expr_36 -->
<g id="edge31" class="edge">
<title>expr_35:f1&#45;&gt;expr_36</title>
<path fill="none" stroke="black" d="M615,-332C615,-321.77 610.74,-312.06 604.97,-303.59"/>
<polygon fill="black" stroke="black" points="607.67,-301.36 598.8,-295.57 602.12,-305.63 607.67,-301.36"/>
</g>
<!-- expr_37 -->
<g id="node38" class="node">
<title>expr_37</title>
<polygon fill="none" stroke="black" points="629.5,-249.5 629.5,-295.5 700.5,-295.5 700.5,-249.5 629.5,-249.5"/>
<text text-anchor="middle" x="665" y="-280.3" font-family="Arial" font-size="14.00">&lt;args&gt;</text>
<polyline fill="none" stroke="black" points="629.5,-272.5 700.5,-272.5 "/>
<text text-anchor="middle" x="647" y="-257.3" font-family="Arial" font-size="14.00">lhs</text>
<polyline fill="none" stroke="black" points="664.5,-249.5 664.5,-272.5 "/>
<text text-anchor="middle" x="682.5" y="-257.3" font-family="Arial" font-size="14.00">rhs</text>
</g>
<!-- expr_35&#45;&gt;expr_37 -->
<g id="edge35" class="edge">
<title>expr_35:f2&#45;&gt;expr_37</title>
<path fill="none" stroke="black" d="M651,-332C651,-323.31 652.48,-314.1 654.47,-305.61"/>
<polygon fill="black" stroke="black" points="657.92,-306.27 657.1,-295.7 651.15,-304.47 657.92,-306.27"/>
</g>
<!-- expr_38 -->
<g id="node39" class="node">
<title>expr_38</title>
<polygon fill="none" stroke="black" points="611.5,-166.5 611.5,-212.5 682.5,-212.5 682.5,-166.5 611.5,-166.5"/>
<text text-anchor="middle" x="647" y="-197.3" font-family="Arial" font-size="14.00">&#45;</text>
<polyline fill="none" stroke="black" points="611.5,-189.5 682.5,-189.5 "/>
<text text-anchor="middle" x="629" y="-174.3" font-family="Arial" font-size="14.00">lhs</text>
<polyline fill="none" stroke="black" points="646.5,-166.5 646.5,-189.5 "/>
<text text-anchor="middle" x="664.5" y="-174.3" font-family="Arial" font-size="14.00">rhs</text>
</g>
<!-- expr_37&#45;&gt;expr_38 -->
<g id="edge34" class="edge">
<title>expr_37:f1&#45;&gt;expr_38</title>
<path fill="none" stroke="black" d="M647,-249C647,-240.57 647,-231.46 647,-223"/>
<polygon fill="black" stroke="black" points="650.5,-222.72 647,-212.72 643.5,-222.72 650.5,-222.72"/>
</g>
<!-- expr_39 -->
<g id="node40" class="node">
<title>expr_39</title>
<polygon fill="none" stroke="black" points="587.5,-83.5 587.5,-129.5 658.5,-129.5 658.5,-83.5 587.5,-83.5"/>
<text text-anchor="middle" x="623" y="-114.3" font-family="Arial" font-size="14.00">x</text>
<polyline fill="none" stroke="black" points="587.5,-106.5 658.5,-106.5 "/>
<text text-anchor="middle" x="605" y="-91.3" font-family="Arial" font-size="14.00">lhs</text>
<polyline fill="none" stroke="black" points="622.5,-83.5 622.5,-106.5 "/>
<text text-anchor="middle" x="640.5" y="-91.3" font-family="Arial" font-size="14.00">rhs</text>
</g>
<!-- expr_38&#45;&gt;expr_39 -->
<g id="edge32" class="edge">
<title>expr_38:f1&#45;&gt;expr_39</title>
<path fill="none" stroke="black" d="M629,-166C629,-157.44 628.36,-148.2 627.49,-139.66"/>
<polygon fill="black" stroke="black" points="630.96,-139.21 626.35,-129.67 624.01,-140 630.96,-139.21"/>
</g>
<!-- expr_40 -->
<g id="node41" class="node">
<title>expr_40</title>
<polygon fill="none" stroke="black" points="676.5,-83.5 676.5,-129.5 747.5,-129.5 747.5,-83.5 676.5,-83.5"/>
<text text-anchor="middle" x="712" y="-114.3" font-family="Arial" font-size="14.00">2</text>
<polyline fill="none" stroke="black" points="676.5,-106.5 747.5,-106.5 "/>
<text text-anchor="middle" x="694" y="-91.3" font-family="Arial" font-size="14.00">lhs</text>
<polyline fill="none" stroke="black" points="711.5,-83.5 711.5,-106.5 "/>
<text text-anchor="middle" x="729.5" y="-91.3" font-family="Arial" font-size="14.00">rhs</text>
</g>
<!-- expr_38&#45;&gt;expr_40 -->
<g id="edge33" class="edge">
<title>expr_38:f2&#45;&gt;expr_40</title>
<path fill="none" stroke="black" d="M665,-166C665,-155.44 669.72,-145.7 676.16,-137.32"/>
<polygon fill="black" stroke="black" points="678.85,-139.56 682.77,-129.72 673.56,-134.96 678.85,-139.56"/>
</g>
<!-- expr_42 -->
<g id="node43" class="node">
<title>expr_42</title>
<polygon fill="none" stroke="black" points="736.5,-332.5 736.5,-378.5 807.5,-378.5 807.5,-332.5 736.5,-332.5"/>
<text text-anchor="middle" x="772" y="-363.3" font-family="Arial" font-size="14.00">=</text>
<polyline fill="none" stroke="black" points="736.5,-355.5 807.5,-355.5 "/>
<text text-anchor="middle" x="754" y="-340.3" font-family="Arial" font-size="14.00">lhs</text>
<polyline fill="none" stroke="black" points="771.5,-332.5 771.5,-355.5 "/>
<text text-anchor="middle" x="789.5" y="-340.3" font-family="Arial" font-size="14.00">rhs</text>
</g>
<!-- stmt_41&#45;&gt;expr_42 -->
<g id="edge46" class="edge">
<title>stmt_41:f1&#45;&gt;expr_42</title>
<path fill="none" stroke="black" d="M734,-415C734,-405.02 737.94,-395.41 743.27,-386.96"/>
<polygon fill="black" stroke="black" points="746.27,-388.78 749.24,-378.6 740.58,-384.71 746.27,-388.78"/>
</g>
<!-- expr_43 -->
<g id="node44" class="node">
<title>expr_43</title>
<polygon fill="none" stroke="black" points="718.5,-249.5 718.5,-295.5 789.5,-295.5 789.5,-249.5 718.5,-249.5"/>
<text text-anchor="middle" x="754" y="-280.3" font-family="Arial" font-size="14.00">x</text>
<polyline fill="none" stroke="black" points="718.5,-272.5 789.5,-272.5 "/>
<text text-anchor="middle" x="736" y="-257.3" font-family="Arial" font-size="14.00">lhs</text>
<polyline fill="none" stroke="black" points="753.5,-249.5 753.5,-272.5 "/>
<text text-anchor="middle" x="771.5" y="-257.3" font-family="Arial" font-size="14.00">rhs</text>
</g>
<!-- expr_42&#45;&gt;expr_43 -->
<g id="edge38" class="edge">
<title>expr_42:f1&#45;&gt;expr_43</title>
<path fill="none" stroke="black" d="M754,-332C754,-323.57 754,-314.46 754,-306"/>
<polygon fill="black" stroke="black" points="757.5,-305.72 754,-295.72 750.5,-305.72 757.5,-305.72"/>
</g>
<!-- expr_44 -->
<g id="node45" class="node">
<title>expr_44</title>
<polygon fill="none" stroke="black" points="807.5,-249.5 807.5,-295.5 878.5,-295.5 878.5,-249.5 807.5,-249.5"/>
<text text-anchor="middle" x="843" y="-280.3" font-family="Arial" font-size="14.00">+</text>
<polyline fill="none" stroke="black" points="807.5,-272.5 878.5,-272.5 "/>
<text text-anchor="middle" x="825" y="-257.3" font-family="Arial" font-size="14.00">lhs</text>
<polyline fill="none" stroke="black" points="842.5,-249.5 842.5,-272.5 "/>
<text text-anchor="middle" x="860.5" y="-257.3" font-family="Arial" font-size="14.00">rhs</text>
</g>
<!-- expr_42&#45;&gt;expr_44 -->
<g id="edge45" class="edge">
<title>expr_42:f2&#45;&gt;expr_44</title>
<path fill="none" stroke="black" d="M809,-343.5C827.24,-343.5 835.7,-324.03 839.62,-305.63"/>
<polygon fill="black" stroke="black" points="843.09,-306.1 841.36,-295.65 836.19,-304.9 843.09,-306.1"/>
</g>
<!-- expr_45 -->
<g id="node46" class="node">
<title>expr_45</title>
<polygon fill="none" stroke="black" points="740.5,-166.5 740.5,-212.5 811.5,-212.5 811.5,-166.5 740.5,-166.5"/>
<text text-anchor="middle" x="776" y="-197.3" font-family="Arial" font-size="14.00">x</text>
<polyline fill="none" stroke="black" points="740.5,-189.5 811.5,-189.5 "/>
<text text-anchor="middle" x="758" y="-174.3" font-family="Arial" font-size="14.00">lhs</text>
<polyline fill="none" stroke="black" points="775.5,-166.5 775.5,-189.5 "/>
<text text-anchor="middle" x="793.5" y="-174.3" font-family="Arial" font-size="14.00">rhs</text>
</g>
<!-- expr_44&#45;&gt;expr_45 -->
<g id="edge39" class="edge">
<title>expr_44:f1&#45;&gt;expr_45</title>
<path fill="none" stroke="black" d="M825,-249C825,-238.36 820.18,-228.63 813.55,-220.3"/>
<polygon fill="black" stroke="black" points="816.05,-217.84 806.75,-212.75 810.85,-222.53 816.05,-217.84"/>
</g>
<!-- expr_46 -->
<g id="node47" class="node">
<title>expr_46</title>
<polygon fill="none" stroke="black" points="829.5,-166.5 829.5,-212.5 900.5,-212.5 900.5,-166.5 829.5,-166.5"/>
<text text-anchor="middle" x="865" y="-197.3" font-family="Arial" font-size="14.00">/</text>
<polyline fill="none" stroke="black" points="829.5,-189.5 900.5,-189.5 "/>
<text text-anchor="middle" x="847" y="-174.3" font-family="Arial" font-size="14.00">lhs</text>
<polyline fill="none" stroke="black" points="864.5,-166.5 864.5,-189.5 "/>
<text text-anchor="middle" x="882.5" y="-174.3" font-family="Arial" font-size="14.00">rhs</text>
</g>
<!-- expr_44&#45;&gt;expr_46 -->
<g id="edge44" class="edge">
<title>expr_44:f2&#45;&gt;expr_46</title>
<path fill="none" stroke="black" d="M861,-249C861,-240.46 861.43,-231.23 862.01,-222.69"/>
<polygon fill="black" stroke="black" points="865.5,-222.94 862.77,-212.7 858.52,-222.4 865.5,-222.94"/>
</g>
<!-- expr_47 -->
<g id="node48" class="node">
<title>expr_47</title>
<polygon fill="none" stroke="black" points="766.5,-83.5 766.5,-129.5 837.5,-129.5 837.5,-83.5 766.5,-83.5"/>
<text text-anchor="middle" x="802" y="-114.3" font-family="Arial" font-size="14.00">43</text>
<polyline fill="none" stroke="black" points="766.5,-106.5 837.5,-106.5 "/>
<text text-anchor="middle" x="784" y="-91.3" font-family="Arial" font-size="14.00">lhs</text>
<polyline fill="none" stroke="black" points="801.5,-83.5 801.5,-106.5 "/>
<text text-anchor="middle" x="819.5" y="-91.3" font-family="Arial" font-size="14.00">rhs</text>
</g>
<!-- expr_46&#45;&gt;expr_47 -->
<g id="edge40" class="edge">
<title>expr_46:f1&#45;&gt;expr_47</title>
<path fill="none" stroke="black" d="M847,-166C847,-155.62 842.49,-145.95 836.34,-137.59"/>
<polygon fill="black" stroke="black" points="838.83,-135.11 829.73,-129.67 833.45,-139.59 838.83,-135.11"/>
</g>
<!-- expr_48 -->
<g id="node49" class="node">
<title>expr_48</title>
<polygon fill="none" stroke="black" points="855.5,-83.5 855.5,-129.5 926.5,-129.5 926.5,-83.5 855.5,-83.5"/>
<text text-anchor="middle" x="891" y="-114.3" font-family="Arial" font-size="14.00">+</text>
<polyline fill="none" stroke="black" points="855.5,-106.5 926.5,-106.5 "/>
<text text-anchor="middle" x="873" y="-91.3" font-family="Arial" font-size="14.00">lhs</text>
<polyline fill="none" stroke="black" points="890.5,-83.5 890.5,-106.5 "/>
<text text-anchor="middle" x="908.5" y="-91.3" font-family="Arial" font-size="14.00">rhs</text>
</g>
<!-- expr_46&#45;&gt;expr_48 -->
<g id="edge43" class="edge">
<title>expr_46:f2&#45;&gt;expr_48</title>
<path fill="none" stroke="black" d="M883,-166C883,-157.4 883.86,-148.16 885.01,-139.61"/>
<polygon fill="black" stroke="black" points="888.49,-140.04 886.53,-129.63 881.57,-138.99 888.49,-140.04"/>
</g>
<!-- expr_49 -->
<g id="node50" class="node">
<title>expr_49</title>
<polygon fill="none" stroke="black" points="810.5,-0.5 810.5,-46.5 881.5,-46.5 881.5,-0.5 810.5,-0.5"/>
<text text-anchor="middle" x="846" y="-31.3" font-family="Arial" font-size="14.00">2</text>
<polyline fill="none" stroke="black" points="810.5,-23.5 881.5,-23.5 "/>
<text text-anchor="middle" x="828" y="-8.3" font-family="Arial" font-size="14.00">lhs</text>
<polyline fill="none" stroke="black" points="845.5,-0.5 845.5,-23.5 "/>
<text text-anchor="middle" x="863.5" y="-8.3" font-family="Arial" font-size="14.00">rhs</text>
</g>
<!-- expr_48&#45;&gt;expr_49 -->
<g id="edge41" class="edge">
<title>expr_48:f1&#45;&gt;expr_49</title>
<path fill="none" stroke="black" d="M873,-83C873,-73.74 870.17,-64.34 866.35,-55.87"/>
<polygon fill="black" stroke="black" points="869.36,-54.08 861.71,-46.76 863.13,-57.26 869.36,-54.08"/>
</g>
<!-- expr_50 -->
<g id="node51" class="node">
<title>expr_50</title>
<polygon fill="none" stroke="black" points="899.5,-0.5 899.5,-46.5 970.5,-46.5 970.5,-0.5 899.5,-0.5"/>
<text text-anchor="middle" x="935" y="-31.3" font-family="Arial" font-size="14.00">3</text>
<polyline fill="none" stroke="black" points="899.5,-23.5 970.5,-23.5 "/>
<text text-anchor="middle" x="917" y="-8.3" font-family="Arial" font-size="14.00">lhs</text>
<polyline fill="none" stroke="black" points="934.5,-0.5 934.5,-23.5 "/>
<text text-anchor="middle" x="952.5" y="-8.3" font-family="Arial" font-size="14.00">rhs</text>
</g>
<!-- expr_48&#45;&gt;expr_50 -->
<g id="edge42" class="edge">
<title>expr_48:f2&#45;&gt;expr_50</title>
<path fill="none" stroke="black" d="M909,-83C909,-73.71 911.77,-64.26 915.5,-55.73"/>
<polygon fill="black" stroke="black" points="918.74,-57.08 920.03,-46.56 912.46,-53.98 918.74,-57.08"/>
</g>
</g>
</svg>
