<?xml version="1.0" encoding="UTF-8" standalone="no"?>
<!DOCTYPE svg PUBLIC "-//W3C//DTD SVG 1.1//EN"
 "http://www.w3.org/Graphics/SVG/1.1/DTD/svg11.dtd">
<!-- Generated by graphviz version 2.44.1 (20200629.0800)
 -->
<!-- Title: G Pages: 1 -->
<svg width="683pt" height="636pt"
 viewBox="0.00 0.00 682.50 636.00" xmlns="http://www.w3.org/2000/svg" xmlns:xlink="http://www.w3.org/1999/xlink">
<g id="graph0" class="graph" transform="scale(1 1) rotate(0) translate(4 632)">
<title>G</title>
<polygon fill="white" stroke="transparent" points="-4,4 -4,-632 678.5,-632 678.5,4 -4,4"/>
<!-- decl_0 -->
<g id="node1" class="node">
<title>decl_0</title>
<polygon fill="none" stroke="black" points="88,-581.5 88,-627.5 348,-627.5 348,-581.5 88,-581.5"/>
<text text-anchor="middle" x="218" y="-612.3" font-family="Arial" font-size="14.00">FunctionDecl</text>
<polyline fill="none" stroke="black" points="88,-604.5 348,-604.5 "/>
<text text-anchor="middle" x="114" y="-589.3" font-family="Arial" font-size="14.00">name</text>
<polyline fill="none" stroke="black" points="140,-581.5 140,-604.5 "/>
<text text-anchor="middle" x="172" y="-589.3" font-family="Arial" font-size="14.00">params</text>
<polyline fill="none" stroke="black" points="204,-581.5 204,-604.5 "/>
<text text-anchor="middle" x="230.5" y="-589.3" font-family="Arial" font-size="14.00">return</text>
<polyline fill="none" stroke="black" points="257,-581.5 257,-604.5 "/>
<text text-anchor="middle" x="281" y="-589.3" font-family="Arial" font-size="14.00">body</text>
<polyline fill="none" stroke="black" points="305,-581.5 305,-604.5 "/>
<text text-anchor="middle" x="326.5" y="-589.3" font-family="Arial" font-size="14.00">next</text>
</g>
<!-- str_1 -->
<g id="node2" class="node">
<title>str_1</title>
<polygon fill="none" stroke="black" points="0,-503.5 0,-539.5 84,-539.5 84,-503.5 0,-503.5"/>
<text text-anchor="middle" x="42" y="-517.8" font-family="Arial" font-size="14.00">&quot;fibonacci&quot;</text>
</g>
<!-- decl_0&#45;&gt;str_1 -->
<g id="edge1" class="edge">
<title>decl_0:f1&#45;&gt;str_1</title>
<path fill="none" stroke="black" d="M87,-592.5C65.72,-592.5 54.03,-569.32 47.94,-549.64"/>
<polygon fill="black" stroke="black" points="51.26,-548.52 45.24,-539.8 44.51,-550.37 51.26,-548.52"/>
</g>
<!-- param_2 -->
<g id="node3" class="node">
<title>param_2</title>
<polygon fill="none" stroke="black" points="102.5,-498.5 102.5,-544.5 241.5,-544.5 241.5,-498.5 102.5,-498.5"/>
<text text-anchor="middle" x="172" y="-529.3" font-family="Arial" font-size="14.00">ParameterNode</text>
<polyline fill="none" stroke="black" points="102.5,-521.5 241.5,-521.5 "/>
<text text-anchor="middle" x="128.5" y="-506.3" font-family="Arial" font-size="14.00">name</text>
<polyline fill="none" stroke="black" points="154.5,-498.5 154.5,-521.5 "/>
<text text-anchor="middle" x="176.5" y="-506.3" font-family="Arial" font-size="14.00">type</text>
<polyline fill="none" stroke="black" points="198.5,-498.5 198.5,-521.5 "/>
<text text-anchor="middle" x="220" y="-506.3" font-family="Arial" font-size="14.00">next</text>
</g>
<!-- decl_0&#45;&gt;param_2 -->
<g id="edge3" class="edge">
<title>decl_0:f2&#45;&gt;param_2</title>
<path fill="none" stroke="black" d="M172,-581C172,-572.57 172,-563.46 172,-555"/>
<polygon fill="black" stroke="black" points="175.5,-554.72 172,-544.72 168.5,-554.72 175.5,-554.72"/>
</g>
<!-- stmt_4 -->
<g id="node5" class="node">
<title>stmt_4</title>
<polygon fill="none" stroke="black" points="259.5,-498.5 259.5,-544.5 464.5,-544.5 464.5,-498.5 259.5,-498.5"/>
<text text-anchor="middle" x="362" y="-529.3" font-family="Arial" font-size="14.00">IfStatement</text>
<polyline fill="none" stroke="black" points="259.5,-521.5 464.5,-521.5 "/>
<text text-anchor="middle" x="296.5" y="-506.3" font-family="Arial" font-size="14.00">condition</text>
<polyline fill="none" stroke="black" points="333.5,-498.5 333.5,-521.5 "/>
<text text-anchor="middle" x="355.5" y="-506.3" font-family="Arial" font-size="14.00">then</text>
<polyline fill="none" stroke="black" points="377.5,-498.5 377.5,-521.5 "/>
<text text-anchor="middle" x="399.5" y="-506.3" font-family="Arial" font-size="14.00">else</text>
<polyline fill="none" stroke="black" points="421.5,-498.5 421.5,-521.5 "/>
<text text-anchor="middle" x="443" y="-506.3" font-family="Arial" font-size="14.00">next</text>
</g>
<!-- decl_0&#45;&gt;stmt_4 -->
<g id="edge23" class="edge">
<title>decl_0:f4&#45;&gt;stmt_4</title>
<path fill="none" stroke="black" d="M281,-581C281,-568.8 287.11,-558.89 295.97,-550.93"/>
<polygon fill="black" stroke="black" points="298.25,-553.6 303.99,-544.7 293.95,-548.07 298.25,-553.6"/>
</g>
<!-- str_3 -->
<g id="node4" class="node">
<title>str_3</title>
<polygon fill="none" stroke="black" points="101,-420.5 101,-456.5 155,-456.5 155,-420.5 101,-420.5"/>
<text text-anchor="middle" x="128" y="-434.8" font-family="Arial" font-size="14.00">&quot;x&quot;</text>
</g>
<!-- param_2&#45;&gt;str_3 -->
<g id="edge2" class="edge">
<title>param_2:f1&#45;&gt;str_3</title>
<path fill="none" stroke="black" d="M128,-498C128,-487.78 128,-476.56 128,-466.7"/>
<polygon fill="black" stroke="black" points="131.5,-466.65 128,-456.65 124.5,-466.65 131.5,-466.65"/>
</g>
<!-- expr_5 -->
<g id="node6" class="node">
<title>expr_5</title>
<polygon fill="none" stroke="black" points="192.5,-415.5 192.5,-461.5 263.5,-461.5 263.5,-415.5 192.5,-415.5"/>
<text text-anchor="middle" x="228" y="-446.3" font-family="Arial" font-size="14.00">op</text>
<polyline fill="none" stroke="black" points="192.5,-438.5 263.5,-438.5 "/>
<text text-anchor="middle" x="210" y="-423.3" font-family="Arial" font-size="14.00">lhs</text>
<polyline fill="none" stroke="black" points="227.5,-415.5 227.5,-438.5 "/>
<text text-anchor="middle" x="245.5" y="-423.3" font-family="Arial" font-size="14.00">rhs</text>
</g>
<!-- stmt_4&#45;&gt;expr_5 -->
<g id="edge6" class="edge">
<title>stmt_4:f1&#45;&gt;expr_5</title>
<path fill="none" stroke="black" d="M258,-509.5C255.75,-509.5 247.4,-489.67 240.07,-471.12"/>
<polygon fill="black" stroke="black" points="243.27,-469.69 236.38,-461.65 236.75,-472.24 243.27,-469.69"/>
</g>
<!-- stmt_8 -->
<g id="node9" class="node">
<title>stmt_8</title>
<polygon fill="none" stroke="black" points="293.5,-415.5 293.5,-461.5 416.5,-461.5 416.5,-415.5 293.5,-415.5"/>
<text text-anchor="middle" x="355" y="-446.3" font-family="Arial" font-size="14.00">ReturnStatement</text>
<polyline fill="none" stroke="black" points="293.5,-438.5 416.5,-438.5 "/>
<text text-anchor="middle" x="324.5" y="-423.3" font-family="Arial" font-size="14.00">expr</text>
<polyline fill="none" stroke="black" points="355.5,-415.5 355.5,-438.5 "/>
<text text-anchor="middle" x="386" y="-423.3" font-family="Arial" font-size="14.00">next</text>
</g>
<!-- stmt_4&#45;&gt;stmt_8 -->
<g id="edge8" class="edge">
<title>stmt_4:f2&#45;&gt;stmt_8</title>
<path fill="none" stroke="black" d="M355,-498C355,-489.57 355,-480.46 355,-472"/>
<polygon fill="black" stroke="black" points="358.5,-471.72 355,-461.72 351.5,-471.72 358.5,-471.72"/>
</g>
<!-- stmt_10 -->
<g id="node11" class="node">
<title>stmt_10</title>
<polygon fill="none" stroke="black" points="434.5,-415.5 434.5,-461.5 557.5,-461.5 557.5,-415.5 434.5,-415.5"/>
<text text-anchor="middle" x="496" y="-446.3" font-family="Arial" font-size="14.00">ReturnStatement</text>
<polyline fill="none" stroke="black" points="434.5,-438.5 557.5,-438.5 "/>
<text text-anchor="middle" x="465.5" y="-423.3" font-family="Arial" font-size="14.00">expr</text>
<polyline fill="none" stroke="black" points="496.5,-415.5 496.5,-438.5 "/>
<text text-anchor="middle" x="527" y="-423.3" font-family="Arial" font-size="14.00">next</text>
</g>
<!-- stmt_4&#45;&gt;stmt_10 -->
<g id="edge22" class="edge">
<title>stmt_4:f3&#45;&gt;stmt_10</title>
<path fill="none" stroke="black" d="M400,-498C400,-487.89 415.72,-476.38 434.44,-466.27"/>
<polygon fill="black" stroke="black" points="436.23,-469.28 443.51,-461.57 433.02,-463.06 436.23,-469.28"/>
</g>
<!-- expr_6 -->
<g id="node7" class="node">
<title>expr_6</title>
<polygon fill="none" stroke="black" points="121.5,-332.5 121.5,-378.5 192.5,-378.5 192.5,-332.5 121.5,-332.5"/>
<text text-anchor="middle" x="157" y="-363.3" font-family="Arial" font-size="14.00">x</text>
<polyline fill="none" stroke="black" points="121.5,-355.5 192.5,-355.5 "/>
<text text-anchor="middle" x="139" y="-340.3" font-family="Arial" font-size="14.00">lhs</text>
<polyline fill="none" stroke="black" points="156.5,-332.5 156.5,-355.5 "/>
<text text-anchor="middle" x="174.5" y="-340.3" font-family="Arial" font-size="14.00">rhs</text>
</g>
<!-- expr_5&#45;&gt;expr_6 -->
<g id="edge4" class="edge">
<title>expr_5:f1&#45;&gt;expr_6</title>
<path fill="none" stroke="black" d="M210,-415C210,-403.98 204.77,-394.12 197.6,-385.76"/>
<polygon fill="black" stroke="black" points="200.05,-383.26 190.57,-378.53 195.03,-388.14 200.05,-383.26"/>
</g>
<!-- expr_7 -->
<g id="node8" class="node">
<title>expr_7</title>
<polygon fill="none" stroke="black" points="210.5,-332.5 210.5,-378.5 281.5,-378.5 281.5,-332.5 210.5,-332.5"/>
<text text-anchor="middle" x="246" y="-363.3" font-family="Arial" font-size="14.00">2</text>
<polyline fill="none" stroke="black" points="210.5,-355.5 281.5,-355.5 "/>
<text text-anchor="middle" x="228" y="-340.3" font-family="Arial" font-size="14.00">lhs</text>
<polyline fill="none" stroke="black" points="245.5,-332.5 245.5,-355.5 "/>
<text text-anchor="middle" x="263.5" y="-340.3" font-family="Arial" font-size="14.00">rhs</text>
</g>
<!-- expr_5&#45;&gt;expr_7 -->
<g id="edge5" class="edge">
<title>expr_5:f2&#45;&gt;expr_7</title>
<path fill="none" stroke="black" d="M246,-415C246,-406.57 246,-397.46 246,-389"/>
<polygon fill="black" stroke="black" points="249.5,-388.72 246,-378.72 242.5,-388.72 249.5,-388.72"/>
</g>
<!-- expr_9 -->
<g id="node10" class="node">
<title>expr_9</title>
<polygon fill="none" stroke="black" points="299.5,-332.5 299.5,-378.5 370.5,-378.5 370.5,-332.5 299.5,-332.5"/>
<text text-anchor="middle" x="335" y="-363.3" font-family="Arial" font-size="14.00">x</text>
<polyline fill="none" stroke="black" points="299.5,-355.5 370.5,-355.5 "/>
<text text-anchor="middle" x="317" y="-340.3" font-family="Arial" font-size="14.00">lhs</text>
<polyline fill="none" stroke="black" points="334.5,-332.5 334.5,-355.5 "/>
<text text-anchor="middle" x="352.5" y="-340.3" font-family="Arial" font-size="14.00">rhs</text>
</g>
<!-- stmt_8&#45;&gt;expr_9 -->
<g id="edge7" class="edge">
<title>stmt_8:f1&#45;&gt;expr_9</title>
<path fill="none" stroke="black" d="M324,-415C324,-406.33 325.18,-397.06 326.77,-388.52"/>
<polygon fill="black" stroke="black" points="330.23,-389.04 328.86,-378.54 323.38,-387.61 330.23,-389.04"/>
</g>
<!-- expr_11 -->
<g id="node12" class="node">
<title>expr_11</title>
<polygon fill="none" stroke="black" points="429.5,-332.5 429.5,-378.5 500.5,-378.5 500.5,-332.5 429.5,-332.5"/>
<text text-anchor="middle" x="465" y="-363.3" font-family="Arial" font-size="14.00">op</text>
<polyline fill="none" stroke="black" points="429.5,-355.5 500.5,-355.5 "/>
<text text-anchor="middle" x="447" y="-340.3" font-family="Arial" font-size="14.00">lhs</text>
<polyline fill="none" stroke="black" points="464.5,-332.5 464.5,-355.5 "/>
<text text-anchor="middle" x="482.5" y="-340.3" font-family="Arial" font-size="14.00">rhs</text>
</g>
<!-- stmt_10&#45;&gt;expr_11 -->
<g id="edge21" class="edge">
<title>stmt_10:f1&#45;&gt;expr_11</title>
<path fill="none" stroke="black" d="M465,-415C465,-406.57 465,-397.46 465,-389"/>
<polygon fill="black" stroke="black" points="468.5,-388.72 465,-378.72 461.5,-388.72 468.5,-388.72"/>
</g>
<!-- expr_12 -->
<g id="node13" class="node">
<title>expr_12</title>
<polygon fill="none" stroke="black" points="365.5,-249.5 365.5,-295.5 436.5,-295.5 436.5,-249.5 365.5,-249.5"/>
<text text-anchor="middle" x="401" y="-280.3" font-family="Arial" font-size="14.00">&lt;call&gt;</text>
<polyline fill="none" stroke="black" points="365.5,-272.5 436.5,-272.5 "/>
<text text-anchor="middle" x="383" y="-257.3" font-family="Arial" font-size="14.00">lhs</text>
<polyline fill="none" stroke="black" points="400.5,-249.5 400.5,-272.5 "/>
<text text-anchor="middle" x="418.5" y="-257.3" font-family="Arial" font-size="14.00">rhs</text>
</g>
<!-- expr_11&#45;&gt;expr_12 -->
<g id="edge14" class="edge">
<title>expr_11:f1&#45;&gt;expr_12</title>
<path fill="none" stroke="black" d="M447,-332C447,-321.43 442.3,-311.63 435.9,-303.2"/>
<polygon fill="black" stroke="black" points="438.51,-300.87 429.35,-295.56 433.2,-305.43 438.51,-300.87"/>
</g>
<!-- expr_18 -->
<g id="node19" class="node">
<title>expr_18</title>
<polygon fill="none" stroke="black" points="492.5,-249.5 492.5,-295.5 563.5,-295.5 563.5,-249.5 492.5,-249.5"/>
<text text-anchor="middle" x="528" y="-280.3" font-family="Arial" font-size="14.00">&lt;call&gt;</text>
<polyline fill="none" stroke="black" points="492.5,-272.5 563.5,-272.5 "/>
<text text-anchor="middle" x="510" y="-257.3" font-family="Arial" font-size="14.00">lhs</text>
<polyline fill="none" stroke="black" points="527.5,-249.5 527.5,-272.5 "/>
<text text-anchor="middle" x="545.5" y="-257.3" font-family="Arial" font-size="14.00">rhs</text>
</g>
<!-- expr_11&#45;&gt;expr_18 -->
<g id="edge20" class="edge">
<title>expr_11:f2&#45;&gt;expr_18</title>
<path fill="none" stroke="black" d="M483,-332C483,-321.62 487.51,-311.95 493.66,-303.59"/>
<polygon fill="black" stroke="black" points="496.55,-305.59 500.27,-295.67 491.17,-301.11 496.55,-305.59"/>
</g>
<!-- expr_13 -->
<g id="node14" class="node">
<title>expr_13</title>
<polygon fill="none" stroke="black" points="291,-166.5 291,-212.5 365,-212.5 365,-166.5 291,-166.5"/>
<text text-anchor="middle" x="328" y="-197.3" font-family="Arial" font-size="14.00">fibonacci</text>
<polyline fill="none" stroke="black" points="291,-189.5 365,-189.5 "/>
<text text-anchor="middle" x="309" y="-174.3" font-family="Arial" font-size="14.00">lhs</text>
<polyline fill="none" stroke="black" points="327,-166.5 327,-189.5 "/>
<text text-anchor="middle" x="346" y="-174.3" font-family="Arial" font-size="14.00">rhs</text>
</g>
<!-- expr_12&#45;&gt;expr_13 -->
<g id="edge9" class="edge">
<title>expr_12:f1&#45;&gt;expr_13</title>
<path fill="none" stroke="black" d="M383,-249C383,-237.9 377.68,-228.05 370.35,-219.74"/>
<polygon fill="black" stroke="black" points="372.69,-217.13 363.14,-212.55 367.75,-222.09 372.69,-217.13"/>
</g>
<!-- expr_14 -->
<g id="node15" class="node">
<title>expr_14</title>
<polygon fill="none" stroke="black" points="383.5,-166.5 383.5,-212.5 454.5,-212.5 454.5,-166.5 383.5,-166.5"/>
<text text-anchor="middle" x="419" y="-197.3" font-family="Arial" font-size="14.00">&lt;args&gt;</text>
<polyline fill="none" stroke="black" points="383.5,-189.5 454.5,-189.5 "/>
<text text-anchor="middle" x="401" y="-174.3" font-family="Arial" font-size="14.00">lhs</text>
<polyline fill="none" stroke="black" points="418.5,-166.5 418.5,-189.5 "/>
<text text-anchor="middle" x="436.5" y="-174.3" font-family="Arial" font-size="14.00">rhs</text>
</g>
<!-- expr_12&#45;&gt;expr_14 -->
<g id="edge13" class="edge">
<title>expr_12:f2&#45;&gt;expr_14</title>
<path fill="none" stroke="black" d="M419,-249C419,-240.57 419,-231.46 419,-223"/>
<polygon fill="black" stroke="black" points="422.5,-222.72 419,-212.72 415.5,-222.72 422.5,-222.72"/>
</g>
<!-- expr_15 -->
<g id="node16" class="node">
<title>expr_15</title>
<polygon fill="none" stroke="black" points="365.5,-83.5 365.5,-129.5 436.5,-129.5 436.5,-83.5 365.5,-83.5"/>
<text text-anchor="middle" x="401" y="-114.3" font-family="Arial" font-size="14.00">op</text>
<polyline fill="none" stroke="black" points="365.5,-106.5 436.5,-106.5 "/>
<text text-anchor="middle" x="383" y="-91.3" font-family="Arial" font-size="14.00">lhs</text>
<polyline fill="none" stroke="black" points="400.5,-83.5 400.5,-106.5 "/>
<text text-anchor="middle" x="418.5" y="-91.3" font-family="Arial" font-size="14.00">rhs</text>
</g>
<!-- expr_14&#45;&gt;expr_15 -->
<g id="edge12" class="edge">
<title>expr_14:f1&#45;&gt;expr_15</title>
<path fill="none" stroke="black" d="M401,-166C401,-157.57 401,-148.46 401,-140"/>
<polygon fill="black" stroke="black" points="404.5,-139.72 401,-129.72 397.5,-139.72 404.5,-139.72"/>
</g>
<!-- expr_16 -->
<g id="node17" class="node">
<title>expr_16</title>
<polygon fill="none" stroke="black" points="321.5,-0.5 321.5,-46.5 392.5,-46.5 392.5,-0.5 321.5,-0.5"/>
<text text-anchor="middle" x="357" y="-31.3" font-family="Arial" font-size="14.00">x</text>
<polyline fill="none" stroke="black" points="321.5,-23.5 392.5,-23.5 "/>
<text text-anchor="middle" x="339" y="-8.3" font-family="Arial" font-size="14.00">lhs</text>
<polyline fill="none" stroke="black" points="356.5,-0.5 356.5,-23.5 "/>
<text text-anchor="middle" x="374.5" y="-8.3" font-family="Arial" font-size="14.00">rhs</text>
</g>
<!-- expr_15&#45;&gt;expr_16 -->
<g id="edge10" class="edge">
<title>expr_15:f1&#45;&gt;expr_16</title>
<path fill="none" stroke="black" d="M383,-83C383,-73.71 380.23,-64.26 376.5,-55.73"/>
<polygon fill="black" stroke="black" points="379.54,-53.98 371.97,-46.56 373.26,-57.08 379.54,-53.98"/>
</g>
<!-- expr_17 -->
<g id="node18" class="node">
<title>expr_17</title>
<polygon fill="none" stroke="black" points="410.5,-0.5 410.5,-46.5 481.5,-46.5 481.5,-0.5 410.5,-0.5"/>
<text text-anchor="middle" x="446" y="-31.3" font-family="Arial" font-size="14.00">1</text>
<polyline fill="none" stroke="black" points="410.5,-23.5 481.5,-23.5 "/>
<text text-anchor="middle" x="428" y="-8.3" font-family="Arial" font-size="14.00">lhs</text>
<polyline fill="none" stroke="black" points="445.5,-0.5 445.5,-23.5 "/>
<text text-anchor="middle" x="463.5" y="-8.3" font-family="Arial" font-size="14.00">rhs</text>
</g>
<!-- expr_15&#45;&gt;expr_17 -->
<g id="edge11" class="edge">
<title>expr_15:f2&#45;&gt;expr_17</title>
<path fill="none" stroke="black" d="M419,-83C419,-73.74 421.83,-64.34 425.65,-55.87"/>
<polygon fill="black" stroke="black" points="428.87,-57.26 430.29,-46.76 422.64,-54.08 428.87,-57.26"/>
</g>
<!-- expr_19 -->
<g id="node20" class="node">
<title>expr_19</title>
<polygon fill="none" stroke="black" points="473,-166.5 473,-212.5 547,-212.5 547,-166.5 473,-166.5"/>
<text text-anchor="middle" x="510" y="-197.3" font-family="Arial" font-size="14.00">fibonacci</text>
<polyline fill="none" stroke="black" points="473,-189.5 547,-189.5 "/>
<text text-anchor="middle" x="491" y="-174.3" font-family="Arial" font-size="14.00">lhs</text>
<polyline fill="none" stroke="black" points="509,-166.5 509,-189.5 "/>
<text text-anchor="middle" x="528" y="-174.3" font-family="Arial" font-size="14.00">rhs</text>
</g>
<!-- expr_18&#45;&gt;expr_19 -->
<g id="edge15" class="edge">
<title>expr_18:f1&#45;&gt;expr_19</title>
<path fill="none" stroke="black" d="M510,-249C510,-240.57 510,-231.46 510,-223"/>
<polygon fill="black" stroke="black" points="513.5,-222.72 510,-212.72 506.5,-222.72 513.5,-222.72"/>
</g>
<!-- expr_20 -->
<g id="node21" class="node">
<title>expr_20</title>
<polygon fill="none" stroke="black" points="565.5,-166.5 565.5,-212.5 636.5,-212.5 636.5,-166.5 565.5,-166.5"/>
<text text-anchor="middle" x="601" y="-197.3" font-family="Arial" font-size="14.00">&lt;args&gt;</text>
<polyline fill="none" stroke="black" points="565.5,-189.5 636.5,-189.5 "/>
<text text-anchor="middle" x="583" y="-174.3" font-family="Arial" font-size="14.00">lhs</text>
<polyline fill="none" stroke="black" points="600.5,-166.5 600.5,-189.5 "/>
<text text-anchor="middle" x="618.5" y="-174.3" font-family="Arial" font-size="14.00">rhs</text>
</g>
<!-- expr_18&#45;&gt;expr_20 -->
<g id="edge19" class="edge">
<title>expr_18:f2&#45;&gt;expr_20</title>
<path fill="none" stroke="black" d="M565,-260.5C583.45,-260.5 592.45,-241.03 596.84,-222.63"/>
<polygon fill="black" stroke="black" points="600.31,-223.14 598.83,-212.65 593.44,-221.77 600.31,-223.14"/>
</g>
<!-- expr_21 -->
<g id="node22" class="node">
<title>expr_21</title>
<polygon fill="none" stroke="black" points="547.5,-83.5 547.5,-129.5 618.5,-129.5 618.5,-83.5 547.5,-83.5"/>
<text text-anchor="middle" x="583" y="-114.3" font-family="Arial" font-size="14.00">op</text>
<polyline fill="none" stroke="black" points="547.5,-106.5 618.5,-106.5 "/>
<text text-anchor="middle" x="565" y="-91.3" font-family="Arial" font-size="14.00">lhs</text>
<polyline fill="none" stroke="black" points="582.5,-83.5 582.5,-106.5 "/>
<text text-anchor="middle" x="600.5" y="-91.3" font-family="Arial" font-size="14.00">rhs</text>
</g>
<!-- expr_20&#45;&gt;expr_21 -->
<g id="edge18" class="edge">
<title>expr_20:f1&#45;&gt;expr_21</title>
<path fill="none" stroke="black" d="M583,-166C583,-157.57 583,-148.46 583,-140"/>
<polygon fill="black" stroke="black" points="586.5,-139.72 583,-129.72 579.5,-139.72 586.5,-139.72"/>
</g>
<!-- expr_22 -->
<g id="node23" class="node">
<title>expr_22</title>
<polygon fill="none" stroke="black" points="514.5,-0.5 514.5,-46.5 585.5,-46.5 585.5,-0.5 514.5,-0.5"/>
<text text-anchor="middle" x="550" y="-31.3" font-family="Arial" font-size="14.00">x</text>
<polyline fill="none" stroke="black" points="514.5,-23.5 585.5,-23.5 "/>
<text text-anchor="middle" x="532" y="-8.3" font-family="Arial" font-size="14.00">lhs</text>
<polyline fill="none" stroke="black" points="549.5,-0.5 549.5,-23.5 "/>
<text text-anchor="middle" x="567.5" y="-8.3" font-family="Arial" font-size="14.00">rhs</text>
</g>
<!-- expr_21&#45;&gt;expr_22 -->
<g id="edge16" class="edge">
<title>expr_21:f1&#45;&gt;expr_22</title>
<path fill="none" stroke="black" d="M565,-83C565,-74.18 563.38,-64.85 561.21,-56.28"/>
<polygon fill="black" stroke="black" points="564.57,-55.32 558.46,-46.66 557.84,-57.24 564.57,-55.32"/>
</g>
<!-- expr_23 -->
<g id="node24" class="node">
<title>expr_23</title>
<polygon fill="none" stroke="black" points="603.5,-0.5 603.5,-46.5 674.5,-46.5 674.5,-0.5 603.5,-0.5"/>
<text text-anchor="middle" x="639" y="-31.3" font-family="Arial" font-size="14.00">2</text>
<polyline fill="none" stroke="black" points="603.5,-23.5 674.5,-23.5 "/>
<text text-anchor="middle" x="621" y="-8.3" font-family="Arial" font-size="14.00">lhs</text>
<polyline fill="none" stroke="black" points="638.5,-0.5 638.5,-23.5 "/>
<text text-anchor="middle" x="656.5" y="-8.3" font-family="Arial" font-size="14.00">rhs</text>
</g>
<!-- expr_21&#45;&gt;expr_23 -->
<g id="edge17" class="edge">
<title>expr_21:f2&#45;&gt;expr_23</title>
<path fill="none" stroke="black" d="M601,-83C601,-73.02 604.94,-63.41 610.27,-54.96"/>
<polygon fill="black" stroke="black" points="613.27,-56.78 616.24,-46.6 607.58,-52.71 613.27,-56.78"/>
</g>
</g>
</svg>
