<?xml version="1.0" encoding="UTF-8" standalone="no"?>
<!DOCTYPE svg PUBLIC "-//W3C//DTD SVG 1.1//EN"
 "http://www.w3.org/Graphics/SVG/1.1/DTD/svg11.dtd">
<!-- Generated by graphviz version 2.44.1 (20200629.0800)
 -->
<!-- Title: G Pages: 1 -->
<svg width="1014pt" height="802pt"
 viewBox="0.00 0.00 1013.50 802.00" xmlns="http://www.w3.org/2000/svg" xmlns:xlink="http://www.w3.org/1999/xlink">
<g id="graph0" class="graph" transform="scale(1 1) rotate(0) translate(4 798)">
<title>G</title>
<polygon fill="white" stroke="transparent" points="-4,4 -4,-798 1009.5,-798 1009.5,4 -4,4"/>
<!-- decl_0 -->
<g id="node1" class="node">
<title>decl_0</title>
<polygon fill="none" stroke="black" points="140.5,-747.5 140.5,-793.5 415.5,-793.5 415.5,-747.5 140.5,-747.5"/>
<text text-anchor="middle" x="278" y="-778.3" font-family="Arial" font-size="14.00">FunctionDecl</text>
<polyline fill="none" stroke="black" points="140.5,-770.5 415.5,-770.5 "/>
<text text-anchor="middle" x="166.5" y="-755.3" font-family="Arial" font-size="14.00">name</text>
<polyline fill="none" stroke="black" points="192.5,-747.5 192.5,-770.5 "/>
<text text-anchor="middle" x="224.5" y="-755.3" font-family="Arial" font-size="14.00">params</text>
<polyline fill="none" stroke="black" points="256.5,-747.5 256.5,-770.5 "/>
<text text-anchor="middle" x="290.5" y="-755.3" font-family="Arial" font-size="14.00">ret_type</text>
<polyline fill="none" stroke="black" points="324.5,-747.5 324.5,-770.5 "/>
<text text-anchor="middle" x="348.5" y="-755.3" font-family="Arial" font-size="14.00">body</text>
<polyline fill="none" stroke="black" points="372.5,-747.5 372.5,-770.5 "/>
<text text-anchor="middle" x="394" y="-755.3" font-family="Arial" font-size="14.00">next</text>
</g>
<!-- str_1 -->
<g id="node2" class="node">
<title>str_1</title>
<polygon fill="none" stroke="black" points="0,-669.5 0,-705.5 84,-705.5 84,-669.5 0,-669.5"/>
<text text-anchor="middle" x="42" y="-683.8" font-family="Arial" font-size="14.00">&quot;fibonacci&quot;</text>
</g>
<!-- decl_0&#45;&gt;str_1 -->
<g id="edge1" class="edge">
<title>decl_0:f1&#45;&gt;str_1</title>
<path fill="none" stroke="black" d="M139,-758.5C107.28,-758.5 78.89,-733.59 61.14,-713.48"/>
<polygon fill="black" stroke="black" points="63.77,-711.18 54.65,-705.8 58.43,-715.7 63.77,-711.18"/>
</g>
<!-- str_2 -->
<g id="node3" class="node">
<title>str_2</title>
<polygon fill="none" stroke="black" points="260,-669.5 260,-705.5 322,-705.5 322,-669.5 260,-669.5"/>
<text text-anchor="middle" x="291" y="-683.8" font-family="Arial" font-size="14.00">Integer</text>
</g>
<!-- decl_0&#45;&gt;str_2 -->
<g id="edge2" class="edge">
<title>decl_0:f3&#45;&gt;str_2</title>
<path fill="none" stroke="black" d="M291,-747C291,-736.78 291,-725.56 291,-715.7"/>
<polygon fill="black" stroke="black" points="294.5,-715.65 291,-705.65 287.5,-715.65 294.5,-715.65"/>
</g>
<!-- param_3 -->
<g id="node4" class="node">
<title>param_3</title>
<polygon fill="none" stroke="black" points="102.5,-664.5 102.5,-710.5 241.5,-710.5 241.5,-664.5 102.5,-664.5"/>
<text text-anchor="middle" x="172" y="-695.3" font-family="Arial" font-size="14.00">ParameterNode</text>
<polyline fill="none" stroke="black" points="102.5,-687.5 241.5,-687.5 "/>
<text text-anchor="middle" x="128.5" y="-672.3" font-family="Arial" font-size="14.00">name</text>
<polyline fill="none" stroke="black" points="154.5,-664.5 154.5,-687.5 "/>
<text text-anchor="middle" x="176.5" y="-672.3" font-family="Arial" font-size="14.00">type</text>
<polyline fill="none" stroke="black" points="198.5,-664.5 198.5,-687.5 "/>
<text text-anchor="middle" x="220" y="-672.3" font-family="Arial" font-size="14.00">next</text>
</g>
<!-- decl_0&#45;&gt;param_3 -->
<g id="edge5" class="edge">
<title>decl_0:f2&#45;&gt;param_3</title>
<path fill="none" stroke="black" d="M224,-747C224,-736.08 218.87,-726.24 211.84,-717.9"/>
<polygon fill="black" stroke="black" points="214.37,-715.48 204.93,-710.66 209.3,-720.31 214.37,-715.48"/>
</g>
<!-- stmt_6 -->
<g id="node10" class="node">
<title>stmt_6</title>
<polygon fill="none" stroke="black" points="340,-664.5 340,-710.5 472,-710.5 472,-664.5 340,-664.5"/>
<text text-anchor="middle" x="406" y="-695.3" font-family="Arial" font-size="14.00">VarDeclStatement</text>
<polyline fill="none" stroke="black" points="340,-687.5 472,-687.5 "/>
<text text-anchor="middle" x="373" y="-672.3" font-family="Arial" font-size="14.00">decl</text>
<polyline fill="none" stroke="black" points="406,-664.5 406,-687.5 "/>
<text text-anchor="middle" x="439" y="-672.3" font-family="Arial" font-size="14.00">next</text>
</g>
<!-- decl_0&#45;&gt;stmt_6 -->
<g id="edge35" class="edge">
<title>decl_0:f4&#45;&gt;stmt_6</title>
<path fill="none" stroke="black" d="M349,-747C349,-735.82 354.41,-725.97 361.89,-717.7"/>
<polygon fill="black" stroke="black" points="364.52,-720.04 369.26,-710.56 359.64,-715.01 364.52,-720.04"/>
</g>
<!-- decl_36 -->
<g id="node37" class="node">
<title>decl_36</title>
<polygon fill="none" stroke="black" points="603.5,-664.5 603.5,-710.5 878.5,-710.5 878.5,-664.5 603.5,-664.5"/>
<text text-anchor="middle" x="741" y="-695.3" font-family="Arial" font-size="14.00">FunctionDecl</text>
<polyline fill="none" stroke="black" points="603.5,-687.5 878.5,-687.5 "/>
<text text-anchor="middle" x="629.5" y="-672.3" font-family="Arial" font-size="14.00">name</text>
<polyline fill="none" stroke="black" points="655.5,-664.5 655.5,-687.5 "/>
<text text-anchor="middle" x="687.5" y="-672.3" font-family="Arial" font-size="14.00">params</text>
<polyline fill="none" stroke="black" points="719.5,-664.5 719.5,-687.5 "/>
<text text-anchor="middle" x="753.5" y="-672.3" font-family="Arial" font-size="14.00">ret_type</text>
<polyline fill="none" stroke="black" points="787.5,-664.5 787.5,-687.5 "/>
<text text-anchor="middle" x="811.5" y="-672.3" font-family="Arial" font-size="14.00">body</text>
<polyline fill="none" stroke="black" points="835.5,-664.5 835.5,-687.5 "/>
<text text-anchor="middle" x="857" y="-672.3" font-family="Arial" font-size="14.00">next</text>
</g>
<!-- decl_0&#45;&gt;decl_36 -->
<g id="edge48" class="edge">
<title>decl_0:f5&#45;&gt;decl_36</title>
<path fill="none" stroke="black" d="M417,-758.5C504.72,-758.5 602.84,-733.68 667.88,-713.6"/>
<polygon fill="black" stroke="black" points="669.13,-716.88 677.63,-710.55 667.04,-710.2 669.13,-716.88"/>
</g>
<!-- str_4 -->
<g id="node5" class="node">
<title>str_4</title>
<polygon fill="none" stroke="black" points="74,-586.5 74,-622.5 128,-622.5 128,-586.5 74,-586.5"/>
<text text-anchor="middle" x="101" y="-600.8" font-family="Arial" font-size="14.00">&quot;x&quot;</text>
</g>
<!-- param_3&#45;&gt;str_4 -->
<g id="edge3" class="edge">
<title>param_3:f1&#45;&gt;str_4</title>
<path fill="none" stroke="black" d="M128,-664C128,-652.73 123.81,-641.26 118.74,-631.5"/>
<polygon fill="black" stroke="black" points="121.72,-629.67 113.71,-622.73 115.65,-633.15 121.72,-629.67"/>
</g>
<!-- str_5 -->
<g id="node6" class="node">
<title>str_5</title>
<polygon fill="none" stroke="black" points="146,-586.5 146,-622.5 208,-622.5 208,-586.5 146,-586.5"/>
<text text-anchor="middle" x="177" y="-600.8" font-family="Arial" font-size="14.00">Integer</text>
</g>
<!-- param_3&#45;&gt;str_5 -->
<g id="edge4" class="edge">
<title>param_3:f2&#45;&gt;str_5</title>
<path fill="none" stroke="black" d="M177,-664C177,-653.78 177,-642.56 177,-632.7"/>
<polygon fill="black" stroke="black" points="180.5,-632.65 177,-622.65 173.5,-632.65 180.5,-632.65"/>
</g>
<!-- decl_7 -->
<g id="node7" class="node">
<title>decl_7</title>
<polygon fill="none" stroke="black" points="226,-581.5 226,-627.5 314,-627.5 314,-581.5 226,-581.5"/>
<text text-anchor="middle" x="270" y="-612.3" font-family="Arial" font-size="14.00">x</text>
<polyline fill="none" stroke="black" points="226,-604.5 314,-604.5 "/>
<text text-anchor="middle" x="248" y="-589.3" font-family="Arial" font-size="14.00">type</text>
<polyline fill="none" stroke="black" points="270,-581.5 270,-604.5 "/>
<text text-anchor="middle" x="292" y="-589.3" font-family="Arial" font-size="14.00">expr</text>
</g>
<!-- str_8 -->
<g id="node8" class="node">
<title>str_8</title>
<polygon fill="none" stroke="black" points="147,-503.5 147,-539.5 209,-539.5 209,-503.5 147,-503.5"/>
<text text-anchor="middle" x="178" y="-517.8" font-family="Arial" font-size="14.00">Integer</text>
</g>
<!-- decl_7&#45;&gt;str_8 -->
<g id="edge6" class="edge">
<title>decl_7:f1&#45;&gt;str_8</title>
<path fill="none" stroke="black" d="M225,-592.5C224.66,-592.5 208.43,-568.24 195.14,-548.29"/>
<polygon fill="black" stroke="black" points="197.95,-546.19 189.49,-539.8 192.12,-550.07 197.95,-546.19"/>
</g>
<!-- expr_9 -->
<g id="node9" class="node">
<title>expr_9</title>
<polygon fill="none" stroke="black" points="227.5,-498.5 227.5,-544.5 298.5,-544.5 298.5,-498.5 227.5,-498.5"/>
<text text-anchor="middle" x="263" y="-529.3" font-family="Arial" font-size="14.00">0</text>
<polyline fill="none" stroke="black" points="227.5,-521.5 298.5,-521.5 "/>
<text text-anchor="middle" x="245" y="-506.3" font-family="Arial" font-size="14.00">lhs</text>
<polyline fill="none" stroke="black" points="262.5,-498.5 262.5,-521.5 "/>
<text text-anchor="middle" x="280.5" y="-506.3" font-family="Arial" font-size="14.00">rhs</text>
</g>
<!-- decl_7&#45;&gt;expr_9 -->
<g id="edge7" class="edge">
<title>decl_7:f2&#45;&gt;expr_9</title>
<path fill="none" stroke="black" d="M292,-581C292,-571.51 288.9,-561.97 284.72,-553.43"/>
<polygon fill="black" stroke="black" points="287.76,-551.68 279.87,-544.6 281.62,-555.05 287.76,-551.68"/>
</g>
<!-- stmt_6&#45;&gt;decl_7 -->
<g id="edge8" class="edge">
<title>stmt_6:f1&#45;&gt;decl_7</title>
<path fill="none" stroke="black" d="M339,-675.5C332.77,-675.5 335.04,-668.73 331,-664 322.35,-653.88 312.17,-643.58 302.63,-634.51"/>
<polygon fill="black" stroke="black" points="304.85,-631.79 295.15,-627.52 300.07,-636.9 304.85,-631.79"/>
</g>
<!-- stmt_10 -->
<g id="node11" class="node">
<title>stmt_10</title>
<polygon fill="none" stroke="black" points="365.5,-581.5 365.5,-627.5 570.5,-627.5 570.5,-581.5 365.5,-581.5"/>
<text text-anchor="middle" x="468" y="-612.3" font-family="Arial" font-size="14.00">IfStatement</text>
<polyline fill="none" stroke="black" points="365.5,-604.5 570.5,-604.5 "/>
<text text-anchor="middle" x="402.5" y="-589.3" font-family="Arial" font-size="14.00">condition</text>
<polyline fill="none" stroke="black" points="439.5,-581.5 439.5,-604.5 "/>
<text text-anchor="middle" x="461.5" y="-589.3" font-family="Arial" font-size="14.00">then</text>
<polyline fill="none" stroke="black" points="483.5,-581.5 483.5,-604.5 "/>
<text text-anchor="middle" x="505.5" y="-589.3" font-family="Arial" font-size="14.00">else</text>
<polyline fill="none" stroke="black" points="527.5,-581.5 527.5,-604.5 "/>
<text text-anchor="middle" x="549" y="-589.3" font-family="Arial" font-size="14.00">next</text>
</g>
<!-- stmt_6&#45;&gt;stmt_10 -->
<g id="edge34" class="edge">
<title>stmt_6:f2&#45;&gt;stmt_10</title>
<path fill="none" stroke="black" d="M439,-664C439,-654.51 442.1,-644.97 446.28,-636.43"/>
<polygon fill="black" stroke="black" points="449.38,-638.05 451.13,-627.6 443.24,-634.68 449.38,-638.05"/>
</g>
<!-- expr_11 -->
<g id="node12" class="node">
<title>expr_11</title>
<polygon fill="none" stroke="black" points="316.5,-498.5 316.5,-544.5 387.5,-544.5 387.5,-498.5 316.5,-498.5"/>
<text text-anchor="middle" x="352" y="-529.3" font-family="Arial" font-size="14.00">&lt;</text>
<polyline fill="none" stroke="black" points="316.5,-521.5 387.5,-521.5 "/>
<text text-anchor="middle" x="334" y="-506.3" font-family="Arial" font-size="14.00">lhs</text>
<polyline fill="none" stroke="black" points="351.5,-498.5 351.5,-521.5 "/>
<text text-anchor="middle" x="369.5" y="-506.3" font-family="Arial" font-size="14.00">rhs</text>
</g>
<!-- stmt_10&#45;&gt;expr_11 -->
<g id="edge11" class="edge">
<title>stmt_10:f1&#45;&gt;expr_11</title>
<path fill="none" stroke="black" d="M364,-592.5C347.35,-592.5 344.93,-573.03 346.35,-554.63"/>
<polygon fill="black" stroke="black" points="349.84,-554.98 347.47,-544.65 342.88,-554.2 349.84,-554.98"/>
</g>
<!-- stmt_14 -->
<g id="node15" class="node">
<title>stmt_14</title>
<polygon fill="none" stroke="black" points="406,-498.5 406,-544.5 516,-544.5 516,-498.5 406,-498.5"/>
<text text-anchor="middle" x="461" y="-529.3" font-family="Arial" font-size="14.00">ExprStatement</text>
<polyline fill="none" stroke="black" points="406,-521.5 516,-521.5 "/>
<text text-anchor="middle" x="433.5" y="-506.3" font-family="Arial" font-size="14.00">expr</text>
<polyline fill="none" stroke="black" points="461,-498.5 461,-521.5 "/>
<text text-anchor="middle" x="488.5" y="-506.3" font-family="Arial" font-size="14.00">next</text>
</g>
<!-- stmt_10&#45;&gt;stmt_14 -->
<g id="edge15" class="edge">
<title>stmt_10:f2&#45;&gt;stmt_14</title>
<path fill="none" stroke="black" d="M461,-581C461,-572.57 461,-563.46 461,-555"/>
<polygon fill="black" stroke="black" points="464.5,-554.72 461,-544.72 457.5,-554.72 464.5,-554.72"/>
</g>
<!-- stmt_18 -->
<g id="node19" class="node">
<title>stmt_18</title>
<polygon fill="none" stroke="black" points="534,-498.5 534,-544.5 644,-544.5 644,-498.5 534,-498.5"/>
<text text-anchor="middle" x="589" y="-529.3" font-family="Arial" font-size="14.00">ExprStatement</text>
<polyline fill="none" stroke="black" points="534,-521.5 644,-521.5 "/>
<text text-anchor="middle" x="561.5" y="-506.3" font-family="Arial" font-size="14.00">expr</text>
<polyline fill="none" stroke="black" points="589,-498.5 589,-521.5 "/>
<text text-anchor="middle" x="616.5" y="-506.3" font-family="Arial" font-size="14.00">next</text>
</g>
<!-- stmt_10&#45;&gt;stmt_18 -->
<g id="edge31" class="edge">
<title>stmt_10:f3&#45;&gt;stmt_18</title>
<path fill="none" stroke="black" d="M506,-581C506,-566.96 514.04,-555.99 525.11,-547.54"/>
<polygon fill="black" stroke="black" points="527.28,-550.3 533.64,-541.83 523.38,-544.49 527.28,-550.3"/>
</g>
<!-- stmt_34 -->
<g id="node35" class="node">
<title>stmt_34</title>
<polygon fill="none" stroke="black" points="662.5,-498.5 662.5,-544.5 785.5,-544.5 785.5,-498.5 662.5,-498.5"/>
<text text-anchor="middle" x="724" y="-529.3" font-family="Arial" font-size="14.00">ReturnStatement</text>
<polyline fill="none" stroke="black" points="662.5,-521.5 785.5,-521.5 "/>
<text text-anchor="middle" x="693.5" y="-506.3" font-family="Arial" font-size="14.00">expr</text>
<polyline fill="none" stroke="black" points="724.5,-498.5 724.5,-521.5 "/>
<text text-anchor="middle" x="755" y="-506.3" font-family="Arial" font-size="14.00">next</text>
</g>
<!-- stmt_10&#45;&gt;stmt_34 -->
<g id="edge33" class="edge">
<title>stmt_10:f4&#45;&gt;stmt_34</title>
<path fill="none" stroke="black" d="M572,-592.5C581.87,-592.5 582.24,-585.55 591,-581 613.13,-569.5 638.01,-558.15 660.21,-548.56"/>
<polygon fill="black" stroke="black" points="661.73,-551.72 669.54,-544.56 658.97,-545.28 661.73,-551.72"/>
</g>
<!-- expr_12 -->
<g id="node13" class="node">
<title>expr_12</title>
<polygon fill="none" stroke="black" points="234.5,-415.5 234.5,-461.5 305.5,-461.5 305.5,-415.5 234.5,-415.5"/>
<text text-anchor="middle" x="270" y="-446.3" font-family="Arial" font-size="14.00">x</text>
<polyline fill="none" stroke="black" points="234.5,-438.5 305.5,-438.5 "/>
<text text-anchor="middle" x="252" y="-423.3" font-family="Arial" font-size="14.00">lhs</text>
<polyline fill="none" stroke="black" points="269.5,-415.5 269.5,-438.5 "/>
<text text-anchor="middle" x="287.5" y="-423.3" font-family="Arial" font-size="14.00">rhs</text>
</g>
<!-- expr_11&#45;&gt;expr_12 -->
<g id="edge9" class="edge">
<title>expr_11:f1&#45;&gt;expr_12</title>
<path fill="none" stroke="black" d="M315,-509.5C314.37,-509.5 301.21,-488.94 289.28,-470.1"/>
<polygon fill="black" stroke="black" points="292.24,-468.23 283.93,-461.65 286.32,-471.97 292.24,-468.23"/>
</g>
<!-- expr_13 -->
<g id="node14" class="node">
<title>expr_13</title>
<polygon fill="none" stroke="black" points="323.5,-415.5 323.5,-461.5 394.5,-461.5 394.5,-415.5 323.5,-415.5"/>
<text text-anchor="middle" x="359" y="-446.3" font-family="Arial" font-size="14.00">2</text>
<polyline fill="none" stroke="black" points="323.5,-438.5 394.5,-438.5 "/>
<text text-anchor="middle" x="341" y="-423.3" font-family="Arial" font-size="14.00">lhs</text>
<polyline fill="none" stroke="black" points="358.5,-415.5 358.5,-438.5 "/>
<text text-anchor="middle" x="376.5" y="-423.3" font-family="Arial" font-size="14.00">rhs</text>
</g>
<!-- expr_11&#45;&gt;expr_13 -->
<g id="edge10" class="edge">
<title>expr_11:f2&#45;&gt;expr_13</title>
<path fill="none" stroke="black" d="M370,-498C370,-489.33 368.82,-480.06 367.23,-471.52"/>
<polygon fill="black" stroke="black" points="370.62,-470.61 365.14,-461.54 363.77,-472.04 370.62,-470.61"/>
</g>
<!-- expr_15 -->
<g id="node16" class="node">
<title>expr_15</title>
<polygon fill="none" stroke="black" points="412.5,-415.5 412.5,-461.5 483.5,-461.5 483.5,-415.5 412.5,-415.5"/>
<text text-anchor="middle" x="448" y="-446.3" font-family="Arial" font-size="14.00">=</text>
<polyline fill="none" stroke="black" points="412.5,-438.5 483.5,-438.5 "/>
<text text-anchor="middle" x="430" y="-423.3" font-family="Arial" font-size="14.00">lhs</text>
<polyline fill="none" stroke="black" points="447.5,-415.5 447.5,-438.5 "/>
<text text-anchor="middle" x="465.5" y="-423.3" font-family="Arial" font-size="14.00">rhs</text>
</g>
<!-- stmt_14&#45;&gt;expr_15 -->
<g id="edge14" class="edge">
<title>stmt_14:f1&#45;&gt;expr_15</title>
<path fill="none" stroke="black" d="M433,-498C433,-489.18 434.62,-479.85 436.79,-471.28"/>
<polygon fill="black" stroke="black" points="440.16,-472.24 439.54,-461.66 433.43,-470.32 440.16,-472.24"/>
</g>
<!-- expr_16 -->
<g id="node17" class="node">
<title>expr_16</title>
<polygon fill="none" stroke="black" points="341.5,-332.5 341.5,-378.5 412.5,-378.5 412.5,-332.5 341.5,-332.5"/>
<text text-anchor="middle" x="377" y="-363.3" font-family="Arial" font-size="14.00">x</text>
<polyline fill="none" stroke="black" points="341.5,-355.5 412.5,-355.5 "/>
<text text-anchor="middle" x="359" y="-340.3" font-family="Arial" font-size="14.00">lhs</text>
<polyline fill="none" stroke="black" points="376.5,-332.5 376.5,-355.5 "/>
<text text-anchor="middle" x="394.5" y="-340.3" font-family="Arial" font-size="14.00">rhs</text>
</g>
<!-- expr_15&#45;&gt;expr_16 -->
<g id="edge12" class="edge">
<title>expr_15:f1&#45;&gt;expr_16</title>
<path fill="none" stroke="black" d="M430,-415C430,-403.98 424.77,-394.12 417.6,-385.76"/>
<polygon fill="black" stroke="black" points="420.05,-383.26 410.57,-378.53 415.03,-388.14 420.05,-383.26"/>
</g>
<!-- expr_17 -->
<g id="node18" class="node">
<title>expr_17</title>
<polygon fill="none" stroke="black" points="430.5,-332.5 430.5,-378.5 501.5,-378.5 501.5,-332.5 430.5,-332.5"/>
<text text-anchor="middle" x="466" y="-363.3" font-family="Arial" font-size="14.00">1</text>
<polyline fill="none" stroke="black" points="430.5,-355.5 501.5,-355.5 "/>
<text text-anchor="middle" x="448" y="-340.3" font-family="Arial" font-size="14.00">lhs</text>
<polyline fill="none" stroke="black" points="465.5,-332.5 465.5,-355.5 "/>
<text text-anchor="middle" x="483.5" y="-340.3" font-family="Arial" font-size="14.00">rhs</text>
</g>
<!-- expr_15&#45;&gt;expr_17 -->
<g id="edge13" class="edge">
<title>expr_15:f2&#45;&gt;expr_17</title>
<path fill="none" stroke="black" d="M466,-415C466,-406.57 466,-397.46 466,-389"/>
<polygon fill="black" stroke="black" points="469.5,-388.72 466,-378.72 462.5,-388.72 469.5,-388.72"/>
</g>
<!-- expr_19 -->
<g id="node20" class="node">
<title>expr_19</title>
<polygon fill="none" stroke="black" points="537.5,-415.5 537.5,-461.5 608.5,-461.5 608.5,-415.5 537.5,-415.5"/>
<text text-anchor="middle" x="573" y="-446.3" font-family="Arial" font-size="14.00">=</text>
<polyline fill="none" stroke="black" points="537.5,-438.5 608.5,-438.5 "/>
<text text-anchor="middle" x="555" y="-423.3" font-family="Arial" font-size="14.00">lhs</text>
<polyline fill="none" stroke="black" points="572.5,-415.5 572.5,-438.5 "/>
<text text-anchor="middle" x="590.5" y="-423.3" font-family="Arial" font-size="14.00">rhs</text>
</g>
<!-- stmt_18&#45;&gt;expr_19 -->
<g id="edge30" class="edge">
<title>stmt_18:f1&#45;&gt;expr_19</title>
<path fill="none" stroke="black" d="M561,-498C561,-489.3 562.29,-480.02 564.02,-471.48"/>
<polygon fill="black" stroke="black" points="567.48,-472.03 566.3,-461.51 560.66,-470.48 567.48,-472.03"/>
</g>
<!-- expr_20 -->
<g id="node21" class="node">
<title>expr_20</title>
<polygon fill="none" stroke="black" points="519.5,-332.5 519.5,-378.5 590.5,-378.5 590.5,-332.5 519.5,-332.5"/>
<text text-anchor="middle" x="555" y="-363.3" font-family="Arial" font-size="14.00">x</text>
<polyline fill="none" stroke="black" points="519.5,-355.5 590.5,-355.5 "/>
<text text-anchor="middle" x="537" y="-340.3" font-family="Arial" font-size="14.00">lhs</text>
<polyline fill="none" stroke="black" points="554.5,-332.5 554.5,-355.5 "/>
<text text-anchor="middle" x="572.5" y="-340.3" font-family="Arial" font-size="14.00">rhs</text>
</g>
<!-- expr_19&#45;&gt;expr_20 -->
<g id="edge16" class="edge">
<title>expr_19:f1&#45;&gt;expr_20</title>
<path fill="none" stroke="black" d="M555,-415C555,-406.57 555,-397.46 555,-389"/>
<polygon fill="black" stroke="black" points="558.5,-388.72 555,-378.72 551.5,-388.72 558.5,-388.72"/>
</g>
<!-- expr_21 -->
<g id="node22" class="node">
<title>expr_21</title>
<polygon fill="none" stroke="black" points="608.5,-332.5 608.5,-378.5 679.5,-378.5 679.5,-332.5 608.5,-332.5"/>
<text text-anchor="middle" x="644" y="-363.3" font-family="Arial" font-size="14.00">+</text>
<polyline fill="none" stroke="black" points="608.5,-355.5 679.5,-355.5 "/>
<text text-anchor="middle" x="626" y="-340.3" font-family="Arial" font-size="14.00">lhs</text>
<polyline fill="none" stroke="black" points="643.5,-332.5 643.5,-355.5 "/>
<text text-anchor="middle" x="661.5" y="-340.3" font-family="Arial" font-size="14.00">rhs</text>
</g>
<!-- expr_19&#45;&gt;expr_21 -->
<g id="edge29" class="edge">
<title>expr_19:f2&#45;&gt;expr_21</title>
<path fill="none" stroke="black" d="M610,-426.5C628.24,-426.5 636.7,-407.03 640.62,-388.63"/>
<polygon fill="black" stroke="black" points="644.09,-389.1 642.36,-378.65 637.19,-387.9 644.09,-389.1"/>
</g>
<!-- expr_22 -->
<g id="node23" class="node">
<title>expr_22</title>
<polygon fill="none" stroke="black" points="534.5,-249.5 534.5,-295.5 605.5,-295.5 605.5,-249.5 534.5,-249.5"/>
<text text-anchor="middle" x="570" y="-280.3" font-family="Arial" font-size="14.00">&lt;call&gt;</text>
<polyline fill="none" stroke="black" points="534.5,-272.5 605.5,-272.5 "/>
<text text-anchor="middle" x="552" y="-257.3" font-family="Arial" font-size="14.00">lhs</text>
<polyline fill="none" stroke="black" points="569.5,-249.5 569.5,-272.5 "/>
<text text-anchor="middle" x="587.5" y="-257.3" font-family="Arial" font-size="14.00">rhs</text>
</g>
<!-- expr_21&#45;&gt;expr_22 -->
<g id="edge22" class="edge">
<title>expr_21:f1&#45;&gt;expr_22</title>
<path fill="none" stroke="black" d="M607,-343.5C604.65,-343.5 594.23,-323.49 585.05,-304.87"/>
<polygon fill="black" stroke="black" points="588.08,-303.1 580.55,-295.65 581.79,-306.17 588.08,-303.1"/>
</g>
<!-- expr_28 -->
<g id="node29" class="node">
<title>expr_28</title>
<polygon fill="none" stroke="black" points="661.5,-249.5 661.5,-295.5 732.5,-295.5 732.5,-249.5 661.5,-249.5"/>
<text text-anchor="middle" x="697" y="-280.3" font-family="Arial" font-size="14.00">&lt;call&gt;</text>
<polyline fill="none" stroke="black" points="661.5,-272.5 732.5,-272.5 "/>
<text text-anchor="middle" x="679" y="-257.3" font-family="Arial" font-size="14.00">lhs</text>
<polyline fill="none" stroke="black" points="696.5,-249.5 696.5,-272.5 "/>
<text text-anchor="middle" x="714.5" y="-257.3" font-family="Arial" font-size="14.00">rhs</text>
</g>
<!-- expr_21&#45;&gt;expr_28 -->
<g id="edge28" class="edge">
<title>expr_21:f2&#45;&gt;expr_28</title>
<path fill="none" stroke="black" d="M662,-332C662,-322.16 665.69,-312.54 670.67,-304.04"/>
<polygon fill="black" stroke="black" points="673.64,-305.9 676.24,-295.62 667.8,-302.04 673.64,-305.9"/>
</g>
<!-- expr_23 -->
<g id="node24" class="node">
<title>expr_23</title>
<polygon fill="none" stroke="black" points="460,-166.5 460,-212.5 534,-212.5 534,-166.5 460,-166.5"/>
<text text-anchor="middle" x="497" y="-197.3" font-family="Arial" font-size="14.00">fibonacci</text>
<polyline fill="none" stroke="black" points="460,-189.5 534,-189.5 "/>
<text text-anchor="middle" x="478" y="-174.3" font-family="Arial" font-size="14.00">lhs</text>
<polyline fill="none" stroke="black" points="496,-166.5 496,-189.5 "/>
<text text-anchor="middle" x="515" y="-174.3" font-family="Arial" font-size="14.00">rhs</text>
</g>
<!-- expr_22&#45;&gt;expr_23 -->
<g id="edge17" class="edge">
<title>expr_22:f1&#45;&gt;expr_23</title>
<path fill="none" stroke="black" d="M552,-249C552,-237.9 546.68,-228.05 539.35,-219.74"/>
<polygon fill="black" stroke="black" points="541.69,-217.13 532.14,-212.55 536.75,-222.09 541.69,-217.13"/>
</g>
<!-- expr_24 -->
<g id="node25" class="node">
<title>expr_24</title>
<polygon fill="none" stroke="black" points="552.5,-166.5 552.5,-212.5 623.5,-212.5 623.5,-166.5 552.5,-166.5"/>
<text text-anchor="middle" x="588" y="-197.3" font-family="Arial" font-size="14.00">&lt;args&gt;</text>
<polyline fill="none" stroke="black" points="552.5,-189.5 623.5,-189.5 "/>
<text text-anchor="middle" x="570" y="-174.3" font-family="Arial" font-size="14.00">lhs</text>
<polyline fill="none" stroke="black" points="587.5,-166.5 587.5,-189.5 "/>
<text text-anchor="middle" x="605.5" y="-174.3" font-family="Arial" font-size="14.00">rhs</text>
</g>
<!-- expr_22&#45;&gt;expr_24 -->
<g id="edge21" class="edge">
<title>expr_22:f2&#45;&gt;expr_24</title>
<path fill="none" stroke="black" d="M588,-249C588,-240.57 588,-231.46 588,-223"/>
<polygon fill="black" stroke="black" points="591.5,-222.72 588,-212.72 584.5,-222.72 591.5,-222.72"/>
</g>
<!-- expr_25 -->
<g id="node26" class="node">
<title>expr_25</title>
<polygon fill="none" stroke="black" points="534.5,-83.5 534.5,-129.5 605.5,-129.5 605.5,-83.5 534.5,-83.5"/>
<text text-anchor="middle" x="570" y="-114.3" font-family="Arial" font-size="14.00">&#45;</text>
<polyline fill="none" stroke="black" points="534.5,-106.5 605.5,-106.5 "/>
<text text-anchor="middle" x="552" y="-91.3" font-family="Arial" font-size="14.00">lhs</text>
<polyline fill="none" stroke="black" points="569.5,-83.5 569.5,-106.5 "/>
<text text-anchor="middle" x="587.5" y="-91.3" font-family="Arial" font-size="14.00">rhs</text>
</g>
<!-- expr_24&#45;&gt;expr_25 -->
<g id="edge20" class="edge">
<title>expr_24:f1&#45;&gt;expr_25</title>
<path fill="none" stroke="black" d="M570,-166C570,-157.57 570,-148.46 570,-140"/>
<polygon fill="black" stroke="black" points="573.5,-139.72 570,-129.72 566.5,-139.72 573.5,-139.72"/>
</g>
<!-- expr_26 -->
<g id="node27" class="node">
<title>expr_26</title>
<polygon fill="none" stroke="black" points="490.5,-0.5 490.5,-46.5 561.5,-46.5 561.5,-0.5 490.5,-0.5"/>
<text text-anchor="middle" x="526" y="-31.3" font-family="Arial" font-size="14.00">x</text>
<polyline fill="none" stroke="black" points="490.5,-23.5 561.5,-23.5 "/>
<text text-anchor="middle" x="508" y="-8.3" font-family="Arial" font-size="14.00">lhs</text>
<polyline fill="none" stroke="black" points="525.5,-0.5 525.5,-23.5 "/>
<text text-anchor="middle" x="543.5" y="-8.3" font-family="Arial" font-size="14.00">rhs</text>
</g>
<!-- expr_25&#45;&gt;expr_26 -->
<g id="edge18" class="edge">
<title>expr_25:f1&#45;&gt;expr_26</title>
<path fill="none" stroke="black" d="M552,-83C552,-73.71 549.23,-64.26 545.5,-55.73"/>
<polygon fill="black" stroke="black" points="548.54,-53.98 540.97,-46.56 542.26,-57.08 548.54,-53.98"/>
</g>
<!-- expr_27 -->
<g id="node28" class="node">
<title>expr_27</title>
<polygon fill="none" stroke="black" points="579.5,-0.5 579.5,-46.5 650.5,-46.5 650.5,-0.5 579.5,-0.5"/>
<text text-anchor="middle" x="615" y="-31.3" font-family="Arial" font-size="14.00">1</text>
<polyline fill="none" stroke="black" points="579.5,-23.5 650.5,-23.5 "/>
<text text-anchor="middle" x="597" y="-8.3" font-family="Arial" font-size="14.00">lhs</text>
<polyline fill="none" stroke="black" points="614.5,-0.5 614.5,-23.5 "/>
<text text-anchor="middle" x="632.5" y="-8.3" font-family="Arial" font-size="14.00">rhs</text>
</g>
<!-- expr_25&#45;&gt;expr_27 -->
<g id="edge19" class="edge">
<title>expr_25:f2&#45;&gt;expr_27</title>
<path fill="none" stroke="black" d="M588,-83C588,-73.74 590.83,-64.34 594.65,-55.87"/>
<polygon fill="black" stroke="black" points="597.87,-57.26 599.29,-46.76 591.64,-54.08 597.87,-57.26"/>
</g>
<!-- expr_29 -->
<g id="node30" class="node">
<title>expr_29</title>
<polygon fill="none" stroke="black" points="642,-166.5 642,-212.5 716,-212.5 716,-166.5 642,-166.5"/>
<text text-anchor="middle" x="679" y="-197.3" font-family="Arial" font-size="14.00">fibonacci</text>
<polyline fill="none" stroke="black" points="642,-189.5 716,-189.5 "/>
<text text-anchor="middle" x="660" y="-174.3" font-family="Arial" font-size="14.00">lhs</text>
<polyline fill="none" stroke="black" points="678,-166.5 678,-189.5 "/>
<text text-anchor="middle" x="697" y="-174.3" font-family="Arial" font-size="14.00">rhs</text>
</g>
<!-- expr_28&#45;&gt;expr_29 -->
<g id="edge23" class="edge">
<title>expr_28:f1&#45;&gt;expr_29</title>
<path fill="none" stroke="black" d="M679,-249C679,-240.57 679,-231.46 679,-223"/>
<polygon fill="black" stroke="black" points="682.5,-222.72 679,-212.72 675.5,-222.72 682.5,-222.72"/>
</g>
<!-- expr_30 -->
<g id="node31" class="node">
<title>expr_30</title>
<polygon fill="none" stroke="black" points="734.5,-166.5 734.5,-212.5 805.5,-212.5 805.5,-166.5 734.5,-166.5"/>
<text text-anchor="middle" x="770" y="-197.3" font-family="Arial" font-size="14.00">&lt;args&gt;</text>
<polyline fill="none" stroke="black" points="734.5,-189.5 805.5,-189.5 "/>
<text text-anchor="middle" x="752" y="-174.3" font-family="Arial" font-size="14.00">lhs</text>
<polyline fill="none" stroke="black" points="769.5,-166.5 769.5,-189.5 "/>
<text text-anchor="middle" x="787.5" y="-174.3" font-family="Arial" font-size="14.00">rhs</text>
</g>
<!-- expr_28&#45;&gt;expr_30 -->
<g id="edge27" class="edge">
<title>expr_28:f2&#45;&gt;expr_30</title>
<path fill="none" stroke="black" d="M734,-260.5C752.45,-260.5 761.45,-241.03 765.84,-222.63"/>
<polygon fill="black" stroke="black" points="769.31,-223.14 767.83,-212.65 762.44,-221.77 769.31,-223.14"/>
</g>
<!-- expr_31 -->
<g id="node32" class="node">
<title>expr_31</title>
<polygon fill="none" stroke="black" points="716.5,-83.5 716.5,-129.5 787.5,-129.5 787.5,-83.5 716.5,-83.5"/>
<text text-anchor="middle" x="752" y="-114.3" font-family="Arial" font-size="14.00">&#45;</text>
<polyline fill="none" stroke="black" points="716.5,-106.5 787.5,-106.5 "/>
<text text-anchor="middle" x="734" y="-91.3" font-family="Arial" font-size="14.00">lhs</text>
<polyline fill="none" stroke="black" points="751.5,-83.5 751.5,-106.5 "/>
<text text-anchor="middle" x="769.5" y="-91.3" font-family="Arial" font-size="14.00">rhs</text>
</g>
<!-- expr_30&#45;&gt;expr_31 -->
<g id="edge26" class="edge">
<title>expr_30:f1&#45;&gt;expr_31</title>
<path fill="none" stroke="black" d="M752,-166C752,-157.57 752,-148.46 752,-140"/>
<polygon fill="black" stroke="black" points="755.5,-139.72 752,-129.72 748.5,-139.72 755.5,-139.72"/>
</g>
<!-- expr_32 -->
<g id="node33" class="node">
<title>expr_32</title>
<polygon fill="none" stroke="black" points="683.5,-0.5 683.5,-46.5 754.5,-46.5 754.5,-0.5 683.5,-0.5"/>
<text text-anchor="middle" x="719" y="-31.3" font-family="Arial" font-size="14.00">x</text>
<polyline fill="none" stroke="black" points="683.5,-23.5 754.5,-23.5 "/>
<text text-anchor="middle" x="701" y="-8.3" font-family="Arial" font-size="14.00">lhs</text>
<polyline fill="none" stroke="black" points="718.5,-0.5 718.5,-23.5 "/>
<text text-anchor="middle" x="736.5" y="-8.3" font-family="Arial" font-size="14.00">rhs</text>
</g>
<!-- expr_31&#45;&gt;expr_32 -->
<g id="edge24" class="edge">
<title>expr_31:f1&#45;&gt;expr_32</title>
<path fill="none" stroke="black" d="M734,-83C734,-74.18 732.38,-64.85 730.21,-56.28"/>
<polygon fill="black" stroke="black" points="733.57,-55.32 727.46,-46.66 726.84,-57.24 733.57,-55.32"/>
</g>
<!-- expr_33 -->
<g id="node34" class="node">
<title>expr_33</title>
<polygon fill="none" stroke="black" points="772.5,-0.5 772.5,-46.5 843.5,-46.5 843.5,-0.5 772.5,-0.5"/>
<text text-anchor="middle" x="808" y="-31.3" font-family="Arial" font-size="14.00">2</text>
<polyline fill="none" stroke="black" points="772.5,-23.5 843.5,-23.5 "/>
<text text-anchor="middle" x="790" y="-8.3" font-family="Arial" font-size="14.00">lhs</text>
<polyline fill="none" stroke="black" points="807.5,-0.5 807.5,-23.5 "/>
<text text-anchor="middle" x="825.5" y="-8.3" font-family="Arial" font-size="14.00">rhs</text>
</g>
<!-- expr_31&#45;&gt;expr_33 -->
<g id="edge25" class="edge">
<title>expr_31:f2&#45;&gt;expr_33</title>
<path fill="none" stroke="black" d="M770,-83C770,-73.02 773.94,-63.41 779.27,-54.96"/>
<polygon fill="black" stroke="black" points="782.27,-56.78 785.24,-46.6 776.58,-52.71 782.27,-56.78"/>
</g>
<!-- expr_35 -->
<g id="node36" class="node">
<title>expr_35</title>
<polygon fill="none" stroke="black" points="657.5,-415.5 657.5,-461.5 728.5,-461.5 728.5,-415.5 657.5,-415.5"/>
<text text-anchor="middle" x="693" y="-446.3" font-family="Arial" font-size="14.00">x</text>
<polyline fill="none" stroke="black" points="657.5,-438.5 728.5,-438.5 "/>
<text text-anchor="middle" x="675" y="-423.3" font-family="Arial" font-size="14.00">lhs</text>
<polyline fill="none" stroke="black" points="692.5,-415.5 692.5,-438.5 "/>
<text text-anchor="middle" x="710.5" y="-423.3" font-family="Arial" font-size="14.00">rhs</text>
</g>
<!-- stmt_34&#45;&gt;expr_35 -->
<g id="edge32" class="edge">
<title>stmt_34:f1&#45;&gt;expr_35</title>
<path fill="none" stroke="black" d="M693,-498C693,-489.57 693,-480.46 693,-472"/>
<polygon fill="black" stroke="black" points="696.5,-471.72 693,-461.72 689.5,-471.72 696.5,-471.72"/>
</g>
<!-- str_37 -->
<g id="node38" class="node">
<title>str_37</title>
<polygon fill="none" stroke="black" points="600.5,-586.5 600.5,-622.5 657.5,-622.5 657.5,-586.5 600.5,-586.5"/>
<text text-anchor="middle" x="629" y="-600.8" font-family="Arial" font-size="14.00">&quot;main&quot;</text>
</g>
<!-- decl_36&#45;&gt;str_37 -->
<g id="edge36" class="edge">
<title>decl_36:f1&#45;&gt;str_37</title>
<path fill="none" stroke="black" d="M629,-664C629,-653.78 629,-642.56 629,-632.7"/>
<polygon fill="black" stroke="black" points="632.5,-632.65 629,-622.65 625.5,-632.65 632.5,-632.65"/>
</g>
<!-- str_38 -->
<g id="node39" class="node">
<title>str_38</title>
<polygon fill="none" stroke="black" points="727,-586.5 727,-622.5 781,-622.5 781,-586.5 727,-586.5"/>
<text text-anchor="middle" x="754" y="-600.8" font-family="Arial" font-size="14.00">Void</text>
</g>
<!-- decl_36&#45;&gt;str_38 -->
<g id="edge37" class="edge">
<title>decl_36:f3&#45;&gt;str_38</title>
<path fill="none" stroke="black" d="M754,-664C754,-653.78 754,-642.56 754,-632.7"/>
<polygon fill="black" stroke="black" points="757.5,-632.65 754,-622.65 750.5,-632.65 757.5,-632.65"/>
</g>
<!-- stmt_39 -->
<g id="node40" class="node">
<title>stmt_39</title>
<polygon fill="none" stroke="black" points="805,-581.5 805,-627.5 915,-627.5 915,-581.5 805,-581.5"/>
<text text-anchor="middle" x="860" y="-612.3" font-family="Arial" font-size="14.00">ExprStatement</text>
<polyline fill="none" stroke="black" points="805,-604.5 915,-604.5 "/>
<text text-anchor="middle" x="832.5" y="-589.3" font-family="Arial" font-size="14.00">expr</text>
<polyline fill="none" stroke="black" points="860,-581.5 860,-604.5 "/>
<text text-anchor="middle" x="887.5" y="-589.3" font-family="Arial" font-size="14.00">next</text>
</g>
<!-- decl_36&#45;&gt;stmt_39 -->
<g id="edge47" class="edge">
<title>decl_36:f4&#45;&gt;stmt_39</title>
<path fill="none" stroke="black" d="M812,-664C812,-653.35 816.82,-643.57 823.4,-635.19"/>
<polygon fill="black" stroke="black" points="826.12,-637.4 830.15,-627.6 820.89,-632.75 826.12,-637.4"/>
</g>
<!-- expr_40 -->
<g id="node41" class="node">
<title>expr_40</title>
<polygon fill="none" stroke="black" points="803.5,-498.5 803.5,-544.5 874.5,-544.5 874.5,-498.5 803.5,-498.5"/>
<text text-anchor="middle" x="839" y="-529.3" font-family="Arial" font-size="14.00">&lt;call&gt;</text>
<polyline fill="none" stroke="black" points="803.5,-521.5 874.5,-521.5 "/>
<text text-anchor="middle" x="821" y="-506.3" font-family="Arial" font-size="14.00">lhs</text>
<polyline fill="none" stroke="black" points="838.5,-498.5 838.5,-521.5 "/>
<text text-anchor="middle" x="856.5" y="-506.3" font-family="Arial" font-size="14.00">rhs</text>
</g>
<!-- stmt_39&#45;&gt;expr_40 -->
<g id="edge46" class="edge">
<title>stmt_39:f1&#45;&gt;expr_40</title>
<path fill="none" stroke="black" d="M832,-581C832,-572.42 832.75,-563.18 833.76,-554.64"/>
<polygon fill="black" stroke="black" points="837.24,-555.02 835.09,-544.65 830.3,-554.1 837.24,-555.02"/>
</g>
<!-- expr_41 -->
<g id="node42" class="node">
<title>expr_41</title>
<polygon fill="none" stroke="black" points="765.5,-415.5 765.5,-461.5 836.5,-461.5 836.5,-415.5 765.5,-415.5"/>
<text text-anchor="middle" x="801" y="-446.3" font-family="Arial" font-size="14.00">print</text>
<polyline fill="none" stroke="black" points="765.5,-438.5 836.5,-438.5 "/>
<text text-anchor="middle" x="783" y="-423.3" font-family="Arial" font-size="14.00">lhs</text>
<polyline fill="none" stroke="black" points="800.5,-415.5 800.5,-438.5 "/>
<text text-anchor="middle" x="818.5" y="-423.3" font-family="Arial" font-size="14.00">rhs</text>
</g>
<!-- expr_40&#45;&gt;expr_41 -->
<g id="edge38" class="edge">
<title>expr_40:f1&#45;&gt;expr_41</title>
<path fill="none" stroke="black" d="M821,-498C821,-489.05 818.88,-479.73 816.02,-471.22"/>
<polygon fill="black" stroke="black" points="819.22,-469.79 812.4,-461.68 812.67,-472.27 819.22,-469.79"/>
</g>
<!-- expr_42 -->
<g id="node43" class="node">
<title>expr_42</title>
<polygon fill="none" stroke="black" points="854.5,-415.5 854.5,-461.5 925.5,-461.5 925.5,-415.5 854.5,-415.5"/>
<text text-anchor="middle" x="890" y="-446.3" font-family="Arial" font-size="14.00">&lt;args&gt;</text>
<polyline fill="none" stroke="black" points="854.5,-438.5 925.5,-438.5 "/>
<text text-anchor="middle" x="872" y="-423.3" font-family="Arial" font-size="14.00">lhs</text>
<polyline fill="none" stroke="black" points="889.5,-415.5 889.5,-438.5 "/>
<text text-anchor="middle" x="907.5" y="-423.3" font-family="Arial" font-size="14.00">rhs</text>
</g>
<!-- expr_40&#45;&gt;expr_42 -->
<g id="edge45" class="edge">
<title>expr_40:f2&#45;&gt;expr_42</title>
<path fill="none" stroke="black" d="M857,-498C857,-488.22 860.54,-478.57 865.3,-470.01"/>
<polygon fill="black" stroke="black" points="868.27,-471.87 870.61,-461.53 862.34,-468.15 868.27,-471.87"/>
</g>
<!-- expr_43 -->
<g id="node44" class="node">
<title>expr_43</title>
<polygon fill="none" stroke="black" points="732.5,-332.5 732.5,-378.5 879.5,-378.5 879.5,-332.5 732.5,-332.5"/>
<text text-anchor="middle" x="806" y="-363.3" font-family="Arial" font-size="14.00">&quot;Fibonacci of 13 is: &quot;</text>
<polyline fill="none" stroke="black" points="732.5,-355.5 879.5,-355.5 "/>
<text text-anchor="middle" x="769" y="-340.3" font-family="Arial" font-size="14.00">lhs</text>
<polyline fill="none" stroke="black" points="805.5,-332.5 805.5,-355.5 "/>
<text text-anchor="middle" x="842.5" y="-340.3" font-family="Arial" font-size="14.00">rhs</text>
</g>
<!-- expr_42&#45;&gt;expr_43 -->
<g id="edge39" class="edge">
<title>expr_42:f1&#45;&gt;expr_43</title>
<path fill="none" stroke="black" d="M853,-426.5C852.68,-426.5 838.9,-405.94 826.35,-387.1"/>
<polygon fill="black" stroke="black" points="829.17,-385.03 820.72,-378.65 823.35,-388.91 829.17,-385.03"/>
</g>
<!-- expr_44 -->
<g id="node45" class="node">
<title>expr_44</title>
<polygon fill="none" stroke="black" points="897.5,-332.5 897.5,-378.5 968.5,-378.5 968.5,-332.5 897.5,-332.5"/>
<text text-anchor="middle" x="933" y="-363.3" font-family="Arial" font-size="14.00">&lt;args&gt;</text>
<polyline fill="none" stroke="black" points="897.5,-355.5 968.5,-355.5 "/>
<text text-anchor="middle" x="915" y="-340.3" font-family="Arial" font-size="14.00">lhs</text>
<polyline fill="none" stroke="black" points="932.5,-332.5 932.5,-355.5 "/>
<text text-anchor="middle" x="950.5" y="-340.3" font-family="Arial" font-size="14.00">rhs</text>
</g>
<!-- expr_42&#45;&gt;expr_44 -->
<g id="edge44" class="edge">
<title>expr_42:f2&#45;&gt;expr_44</title>
<path fill="none" stroke="black" d="M908,-415C908,-405.77 910.66,-396.34 914.25,-387.81"/>
<polygon fill="black" stroke="black" points="917.48,-389.17 918.6,-378.63 911.16,-386.17 917.48,-389.17"/>
</g>
<!-- expr_45 -->
<g id="node46" class="node">
<title>expr_45</title>
<polygon fill="none" stroke="black" points="879.5,-249.5 879.5,-295.5 950.5,-295.5 950.5,-249.5 879.5,-249.5"/>
<text text-anchor="middle" x="915" y="-280.3" font-family="Arial" font-size="14.00">&lt;call&gt;</text>
<polyline fill="none" stroke="black" points="879.5,-272.5 950.5,-272.5 "/>
<text text-anchor="middle" x="897" y="-257.3" font-family="Arial" font-size="14.00">lhs</text>
<polyline fill="none" stroke="black" points="914.5,-249.5 914.5,-272.5 "/>
<text text-anchor="middle" x="932.5" y="-257.3" font-family="Arial" font-size="14.00">rhs</text>
</g>
<!-- expr_44&#45;&gt;expr_45 -->
<g id="edge43" class="edge">
<title>expr_44:f1&#45;&gt;expr_45</title>
<path fill="none" stroke="black" d="M915,-332C915,-323.57 915,-314.46 915,-306"/>
<polygon fill="black" stroke="black" points="918.5,-305.72 915,-295.72 911.5,-305.72 918.5,-305.72"/>
</g>
<!-- expr_46 -->
<g id="node47" class="node">
<title>expr_46</title>
<polygon fill="none" stroke="black" points="842,-166.5 842,-212.5 916,-212.5 916,-166.5 842,-166.5"/>
<text text-anchor="middle" x="879" y="-197.3" font-family="Arial" font-size="14.00">fibonacci</text>
<polyline fill="none" stroke="black" points="842,-189.5 916,-189.5 "/>
<text text-anchor="middle" x="860" y="-174.3" font-family="Arial" font-size="14.00">lhs</text>
<polyline fill="none" stroke="black" points="878,-166.5 878,-189.5 "/>
<text text-anchor="middle" x="897" y="-174.3" font-family="Arial" font-size="14.00">rhs</text>
</g>
<!-- expr_45&#45;&gt;expr_46 -->
<g id="edge40" class="edge">
<title>expr_45:f1&#45;&gt;expr_46</title>
<path fill="none" stroke="black" d="M897,-249C897,-240.06 895.06,-230.69 892.45,-222.12"/>
<polygon fill="black" stroke="black" points="895.71,-220.84 889.16,-212.52 889.09,-223.11 895.71,-220.84"/>
</g>
<!-- expr_47 -->
<g id="node48" class="node">
<title>expr_47</title>
<polygon fill="none" stroke="black" points="934.5,-166.5 934.5,-212.5 1005.5,-212.5 1005.5,-166.5 934.5,-166.5"/>
<text text-anchor="middle" x="970" y="-197.3" font-family="Arial" font-size="14.00">&lt;args&gt;</text>
<polyline fill="none" stroke="black" points="934.5,-189.5 1005.5,-189.5 "/>
<text text-anchor="middle" x="952" y="-174.3" font-family="Arial" font-size="14.00">lhs</text>
<polyline fill="none" stroke="black" points="969.5,-166.5 969.5,-189.5 "/>
<text text-anchor="middle" x="987.5" y="-174.3" font-family="Arial" font-size="14.00">rhs</text>
</g>
<!-- expr_45&#45;&gt;expr_47 -->
<g id="edge42" class="edge">
<title>expr_45:f2&#45;&gt;expr_47</title>
<path fill="none" stroke="black" d="M933,-249C933,-239.1 936.83,-229.51 942.03,-221.06"/>
<polygon fill="black" stroke="black" points="945.01,-222.91 947.84,-212.7 939.26,-218.92 945.01,-222.91"/>
</g>
<!-- expr_48 -->
<g id="node49" class="node">
<title>expr_48</title>
<polygon fill="none" stroke="black" points="916.5,-83.5 916.5,-129.5 987.5,-129.5 987.5,-83.5 916.5,-83.5"/>
<text text-anchor="middle" x="952" y="-114.3" font-family="Arial" font-size="14.00">13</text>
<polyline fill="none" stroke="black" points="916.5,-106.5 987.5,-106.5 "/>
<text text-anchor="middle" x="934" y="-91.3" font-family="Arial" font-size="14.00">lhs</text>
<polyline fill="none" stroke="black" points="951.5,-83.5 951.5,-106.5 "/>
<text text-anchor="middle" x="969.5" y="-91.3" font-family="Arial" font-size="14.00">rhs</text>
</g>
<!-- expr_47&#45;&gt;expr_48 -->
<g id="edge41" class="edge">
<title>expr_47:f1&#45;&gt;expr_48</title>
<path fill="none" stroke="black" d="M952,-166C952,-157.57 952,-148.46 952,-140"/>
<polygon fill="black" stroke="black" points="955.5,-139.72 952,-129.72 948.5,-139.72 955.5,-139.72"/>
</g>
</g>
</svg>
