<?xml version="1.0" encoding="UTF-8" standalone="no"?>
<!DOCTYPE svg PUBLIC "-//W3C//DTD SVG 1.1//EN"
 "http://www.w3.org/Graphics/SVG/1.1/DTD/svg11.dtd">
<!-- Generated by graphviz version 2.44.1 (20200629.0800)
 -->
<!-- Title: G Pages: 1 -->
<svg width="949pt" height="802pt"
 viewBox="0.00 0.00 948.50 802.00" xmlns="http://www.w3.org/2000/svg" xmlns:xlink="http://www.w3.org/1999/xlink">
<g id="graph0" class="graph" transform="scale(1 1) rotate(0) translate(4 798)">
<title>G</title>
<polygon fill="white" stroke="transparent" points="-4,4 -4,-798 944.5,-798 944.5,4 -4,4"/>
<!-- decl_0 -->
<g id="node1" class="node">
<title>decl_0</title>
<polygon fill="none" stroke="black" points="114.5,-747.5 114.5,-793.5 389.5,-793.5 389.5,-747.5 114.5,-747.5"/>
<text text-anchor="middle" x="252" y="-778.3" font-family="Arial" font-size="14.00">FunctionDecl</text>
<polyline fill="none" stroke="black" points="114.5,-770.5 389.5,-770.5 "/>
<text text-anchor="middle" x="140.5" y="-755.3" font-family="Arial" font-size="14.00">name</text>
<polyline fill="none" stroke="black" points="166.5,-747.5 166.5,-770.5 "/>
<text text-anchor="middle" x="198.5" y="-755.3" font-family="Arial" font-size="14.00">params</text>
<polyline fill="none" stroke="black" points="230.5,-747.5 230.5,-770.5 "/>
<text text-anchor="middle" x="264.5" y="-755.3" font-family="Arial" font-size="14.00">ret_type</text>
<polyline fill="none" stroke="black" points="298.5,-747.5 298.5,-770.5 "/>
<text text-anchor="middle" x="322.5" y="-755.3" font-family="Arial" font-size="14.00">body</text>
<polyline fill="none" stroke="black" points="346.5,-747.5 346.5,-770.5 "/>
<text text-anchor="middle" x="368" y="-755.3" font-family="Arial" font-size="14.00">next</text>
</g>
<!-- str_1 -->
<g id="node2" class="node">
<title>str_1</title>
<polygon fill="none" stroke="black" points="0,-669.5 0,-705.5 84,-705.5 84,-669.5 0,-669.5"/>
<text text-anchor="middle" x="42" y="-683.8" font-family="Arial" font-size="14.00">&quot;fibonacci&quot;</text>
</g>
<!-- decl_0&#45;&gt;str_1 -->
<g id="edge1" class="edge">
<title>decl_0:f1&#45;&gt;str_1</title>
<path fill="none" stroke="black" d="M113,-758.5C87.03,-758.5 67.12,-734.46 55.08,-714.56"/>
<polygon fill="black" stroke="black" points="58.09,-712.77 50.11,-705.8 52,-716.23 58.09,-712.77"/>
</g>
<!-- str_2 -->
<g id="node3" class="node">
<title>str_2</title>
<polygon fill="none" stroke="black" points="260,-669.5 260,-705.5 322,-705.5 322,-669.5 260,-669.5"/>
<text text-anchor="middle" x="291" y="-683.8" font-family="Arial" font-size="14.00">Integer</text>
</g>
<!-- decl_0&#45;&gt;str_2 -->
<g id="edge2" class="edge">
<title>decl_0:f3&#45;&gt;str_2</title>
<path fill="none" stroke="black" d="M265,-747C265,-735.71 269.09,-724.18 274.03,-714.36"/>
<polygon fill="black" stroke="black" points="277.13,-715.99 278.91,-705.55 271,-712.6 277.13,-715.99"/>
</g>
<!-- param_3 -->
<g id="node4" class="node">
<title>param_3</title>
<polygon fill="none" stroke="black" points="102.5,-664.5 102.5,-710.5 241.5,-710.5 241.5,-664.5 102.5,-664.5"/>
<text text-anchor="middle" x="172" y="-695.3" font-family="Arial" font-size="14.00">ParameterNode</text>
<polyline fill="none" stroke="black" points="102.5,-687.5 241.5,-687.5 "/>
<text text-anchor="middle" x="128.5" y="-672.3" font-family="Arial" font-size="14.00">name</text>
<polyline fill="none" stroke="black" points="154.5,-664.5 154.5,-687.5 "/>
<text text-anchor="middle" x="176.5" y="-672.3" font-family="Arial" font-size="14.00">type</text>
<polyline fill="none" stroke="black" points="198.5,-664.5 198.5,-687.5 "/>
<text text-anchor="middle" x="220" y="-672.3" font-family="Arial" font-size="14.00">next</text>
</g>
<!-- decl_0&#45;&gt;param_3 -->
<g id="edge5" class="edge">
<title>decl_0:f2&#45;&gt;param_3</title>
<path fill="none" stroke="black" d="M198,-747C198,-737.71 195.23,-728.26 191.5,-719.73"/>
<polygon fill="black" stroke="black" points="194.54,-717.98 186.97,-710.56 188.26,-721.08 194.54,-717.98"/>
</g>
<!-- stmt_6 -->
<g id="node10" class="node">
<title>stmt_6</title>
<polygon fill="none" stroke="black" points="340,-664.5 340,-710.5 472,-710.5 472,-664.5 340,-664.5"/>
<text text-anchor="middle" x="406" y="-695.3" font-family="Arial" font-size="14.00">VarDeclStatement</text>
<polyline fill="none" stroke="black" points="340,-687.5 472,-687.5 "/>
<text text-anchor="middle" x="373" y="-672.3" font-family="Arial" font-size="14.00">decl</text>
<polyline fill="none" stroke="black" points="406,-664.5 406,-687.5 "/>
<text text-anchor="middle" x="439" y="-672.3" font-family="Arial" font-size="14.00">next</text>
</g>
<!-- decl_0&#45;&gt;stmt_6 -->
<g id="edge35" class="edge">
<title>decl_0:f4&#45;&gt;stmt_6</title>
<path fill="none" stroke="black" d="M323,-747C323,-734.74 329.12,-724.83 338.04,-716.89"/>
<polygon fill="black" stroke="black" points="340.33,-719.55 346.12,-710.67 336.06,-714 340.33,-719.55"/>
</g>
<!-- str_4 -->
<g id="node5" class="node">
<title>str_4</title>
<polygon fill="none" stroke="black" points="88,-586.5 88,-622.5 142,-622.5 142,-586.5 88,-586.5"/>
<text text-anchor="middle" x="115" y="-600.8" font-family="Arial" font-size="14.00">&quot;x&quot;</text>
</g>
<!-- param_3&#45;&gt;str_4 -->
<g id="edge3" class="edge">
<title>param_3:f1&#45;&gt;str_4</title>
<path fill="none" stroke="black" d="M128,-664C128,-653.61 126.02,-642.42 123.61,-632.64"/>
<polygon fill="black" stroke="black" points="126.9,-631.41 120.89,-622.68 120.15,-633.25 126.9,-631.41"/>
</g>
<!-- str_5 -->
<g id="node6" class="node">
<title>str_5</title>
<polygon fill="none" stroke="black" points="160,-586.5 160,-622.5 222,-622.5 222,-586.5 160,-586.5"/>
<text text-anchor="middle" x="191" y="-600.8" font-family="Arial" font-size="14.00">Integer</text>
</g>
<!-- param_3&#45;&gt;str_5 -->
<g id="edge4" class="edge">
<title>param_3:f2&#45;&gt;str_5</title>
<path fill="none" stroke="black" d="M177,-664C177,-653.46 179.18,-642.14 181.81,-632.29"/>
<polygon fill="black" stroke="black" points="185.18,-633.23 184.66,-622.65 178.47,-631.25 185.18,-633.23"/>
</g>
<!-- decl_7 -->
<g id="node7" class="node">
<title>decl_7</title>
<polygon fill="none" stroke="black" points="278,-581.5 278,-627.5 366,-627.5 366,-581.5 278,-581.5"/>
<text text-anchor="middle" x="322" y="-612.3" font-family="Arial" font-size="14.00">x</text>
<polyline fill="none" stroke="black" points="278,-604.5 366,-604.5 "/>
<text text-anchor="middle" x="300" y="-589.3" font-family="Arial" font-size="14.00">type</text>
<polyline fill="none" stroke="black" points="322,-581.5 322,-604.5 "/>
<text text-anchor="middle" x="344" y="-589.3" font-family="Arial" font-size="14.00">expr</text>
</g>
<!-- str_8 -->
<g id="node8" class="node">
<title>str_8</title>
<polygon fill="none" stroke="black" points="228,-503.5 228,-539.5 290,-539.5 290,-503.5 228,-503.5"/>
<text text-anchor="middle" x="259" y="-517.8" font-family="Arial" font-size="14.00">Integer</text>
</g>
<!-- decl_7&#45;&gt;str_8 -->
<g id="edge6" class="edge">
<title>decl_7:f1&#45;&gt;str_8</title>
<path fill="none" stroke="black" d="M300,-581C300,-568.6 293.74,-556.96 286.12,-547.38"/>
<polygon fill="black" stroke="black" points="288.73,-545.05 279.5,-539.84 283.47,-549.67 288.73,-545.05"/>
</g>
<!-- expr_9 -->
<g id="node9" class="node">
<title>expr_9</title>
<polygon fill="none" stroke="black" points="308.5,-498.5 308.5,-544.5 379.5,-544.5 379.5,-498.5 308.5,-498.5"/>
<text text-anchor="middle" x="344" y="-529.3" font-family="Arial" font-size="14.00">0</text>
<polyline fill="none" stroke="black" points="308.5,-521.5 379.5,-521.5 "/>
<text text-anchor="middle" x="326" y="-506.3" font-family="Arial" font-size="14.00">lhs</text>
<polyline fill="none" stroke="black" points="343.5,-498.5 343.5,-521.5 "/>
<text text-anchor="middle" x="361.5" y="-506.3" font-family="Arial" font-size="14.00">rhs</text>
</g>
<!-- decl_7&#45;&gt;expr_9 -->
<g id="edge7" class="edge">
<title>decl_7:f2&#45;&gt;expr_9</title>
<path fill="none" stroke="black" d="M344,-581C344,-572.57 344,-563.46 344,-555"/>
<polygon fill="black" stroke="black" points="347.5,-554.72 344,-544.72 340.5,-554.72 347.5,-554.72"/>
</g>
<!-- stmt_6&#45;&gt;decl_7 -->
<g id="edge8" class="edge">
<title>stmt_6:f1&#45;&gt;decl_7</title>
<path fill="none" stroke="black" d="M339,-675.5C334.78,-675.5 330.28,-656.03 326.97,-637.63"/>
<polygon fill="black" stroke="black" points="330.4,-636.92 325.27,-627.65 323.5,-638.1 330.4,-636.92"/>
</g>
<!-- stmt_10 -->
<g id="node11" class="node">
<title>stmt_10</title>
<polygon fill="none" stroke="black" points="457.5,-581.5 457.5,-627.5 662.5,-627.5 662.5,-581.5 457.5,-581.5"/>
<text text-anchor="middle" x="560" y="-612.3" font-family="Arial" font-size="14.00">IfStatement</text>
<polyline fill="none" stroke="black" points="457.5,-604.5 662.5,-604.5 "/>
<text text-anchor="middle" x="494.5" y="-589.3" font-family="Arial" font-size="14.00">condition</text>
<polyline fill="none" stroke="black" points="531.5,-581.5 531.5,-604.5 "/>
<text text-anchor="middle" x="553.5" y="-589.3" font-family="Arial" font-size="14.00">then</text>
<polyline fill="none" stroke="black" points="575.5,-581.5 575.5,-604.5 "/>
<text text-anchor="middle" x="597.5" y="-589.3" font-family="Arial" font-size="14.00">else</text>
<polyline fill="none" stroke="black" points="619.5,-581.5 619.5,-604.5 "/>
<text text-anchor="middle" x="641" y="-589.3" font-family="Arial" font-size="14.00">next</text>
</g>
<!-- stmt_6&#45;&gt;stmt_10 -->
<g id="edge34" class="edge">
<title>stmt_6:f2&#45;&gt;stmt_10</title>
<path fill="none" stroke="black" d="M473,-675.5C500.14,-675.5 523.62,-654.56 539.32,-635.59"/>
<polygon fill="black" stroke="black" points="542.13,-637.67 545.56,-627.65 536.63,-633.35 542.13,-637.67"/>
</g>
<!-- expr_11 -->
<g id="node12" class="node">
<title>expr_11</title>
<polygon fill="none" stroke="black" points="397.5,-498.5 397.5,-544.5 468.5,-544.5 468.5,-498.5 397.5,-498.5"/>
<text text-anchor="middle" x="433" y="-529.3" font-family="Arial" font-size="14.00">&lt;</text>
<polyline fill="none" stroke="black" points="397.5,-521.5 468.5,-521.5 "/>
<text text-anchor="middle" x="415" y="-506.3" font-family="Arial" font-size="14.00">lhs</text>
<polyline fill="none" stroke="black" points="432.5,-498.5 432.5,-521.5 "/>
<text text-anchor="middle" x="450.5" y="-506.3" font-family="Arial" font-size="14.00">rhs</text>
</g>
<!-- stmt_10&#45;&gt;expr_11 -->
<g id="edge11" class="edge">
<title>stmt_10:f1&#45;&gt;expr_11</title>
<path fill="none" stroke="black" d="M456,-592.5C438.81,-592.5 433.33,-573.21 432,-554.89"/>
<polygon fill="black" stroke="black" points="435.49,-554.52 431.64,-544.65 428.5,-554.76 435.49,-554.52"/>
</g>
<!-- stmt_14 -->
<g id="node15" class="node">
<title>stmt_14</title>
<polygon fill="none" stroke="black" points="498,-498.5 498,-544.5 608,-544.5 608,-498.5 498,-498.5"/>
<text text-anchor="middle" x="553" y="-529.3" font-family="Arial" font-size="14.00">ExprStatement</text>
<polyline fill="none" stroke="black" points="498,-521.5 608,-521.5 "/>
<text text-anchor="middle" x="525.5" y="-506.3" font-family="Arial" font-size="14.00">expr</text>
<polyline fill="none" stroke="black" points="553,-498.5 553,-521.5 "/>
<text text-anchor="middle" x="580.5" y="-506.3" font-family="Arial" font-size="14.00">next</text>
</g>
<!-- stmt_10&#45;&gt;stmt_14 -->
<g id="edge15" class="edge">
<title>stmt_10:f2&#45;&gt;stmt_14</title>
<path fill="none" stroke="black" d="M553,-581C553,-572.57 553,-563.46 553,-555"/>
<polygon fill="black" stroke="black" points="556.5,-554.72 553,-544.72 549.5,-554.72 556.5,-554.72"/>
</g>
<!-- stmt_18 -->
<g id="node19" class="node">
<title>stmt_18</title>
<polygon fill="none" stroke="black" points="626,-498.5 626,-544.5 736,-544.5 736,-498.5 626,-498.5"/>
<text text-anchor="middle" x="681" y="-529.3" font-family="Arial" font-size="14.00">ExprStatement</text>
<polyline fill="none" stroke="black" points="626,-521.5 736,-521.5 "/>
<text text-anchor="middle" x="653.5" y="-506.3" font-family="Arial" font-size="14.00">expr</text>
<polyline fill="none" stroke="black" points="681,-498.5 681,-521.5 "/>
<text text-anchor="middle" x="708.5" y="-506.3" font-family="Arial" font-size="14.00">next</text>
</g>
<!-- stmt_10&#45;&gt;stmt_18 -->
<g id="edge31" class="edge">
<title>stmt_10:f3&#45;&gt;stmt_18</title>
<path fill="none" stroke="black" d="M598,-581C598,-566.96 606.04,-555.99 617.11,-547.54"/>
<polygon fill="black" stroke="black" points="619.28,-550.3 625.64,-541.83 615.38,-544.49 619.28,-550.3"/>
</g>
<!-- stmt_34 -->
<g id="node35" class="node">
<title>stmt_34</title>
<polygon fill="none" stroke="black" points="754.5,-498.5 754.5,-544.5 877.5,-544.5 877.5,-498.5 754.5,-498.5"/>
<text text-anchor="middle" x="816" y="-529.3" font-family="Arial" font-size="14.00">ReturnStatement</text>
<polyline fill="none" stroke="black" points="754.5,-521.5 877.5,-521.5 "/>
<text text-anchor="middle" x="785.5" y="-506.3" font-family="Arial" font-size="14.00">expr</text>
<polyline fill="none" stroke="black" points="816.5,-498.5 816.5,-521.5 "/>
<text text-anchor="middle" x="847" y="-506.3" font-family="Arial" font-size="14.00">next</text>
</g>
<!-- stmt_10&#45;&gt;stmt_34 -->
<g id="edge33" class="edge">
<title>stmt_10:f4&#45;&gt;stmt_34</title>
<path fill="none" stroke="black" d="M664,-592.5C706.31,-592.5 749.67,-569.85 779.19,-550.32"/>
<polygon fill="black" stroke="black" points="781.22,-553.17 787.52,-544.65 777.28,-547.38 781.22,-553.17"/>
</g>
<!-- expr_12 -->
<g id="node13" class="node">
<title>expr_12</title>
<polygon fill="none" stroke="black" points="320.5,-415.5 320.5,-461.5 391.5,-461.5 391.5,-415.5 320.5,-415.5"/>
<text text-anchor="middle" x="356" y="-446.3" font-family="Arial" font-size="14.00">x</text>
<polyline fill="none" stroke="black" points="320.5,-438.5 391.5,-438.5 "/>
<text text-anchor="middle" x="338" y="-423.3" font-family="Arial" font-size="14.00">lhs</text>
<polyline fill="none" stroke="black" points="355.5,-415.5 355.5,-438.5 "/>
<text text-anchor="middle" x="373.5" y="-423.3" font-family="Arial" font-size="14.00">rhs</text>
</g>
<!-- expr_11&#45;&gt;expr_12 -->
<g id="edge9" class="edge">
<title>expr_11:f1&#45;&gt;expr_12</title>
<path fill="none" stroke="black" d="M396,-509.5C394.8,-509.5 383.35,-489.31 373,-470.61"/>
<polygon fill="black" stroke="black" points="375.96,-468.72 368.07,-461.65 369.83,-472.1 375.96,-468.72"/>
</g>
<!-- expr_13 -->
<g id="node14" class="node">
<title>expr_13</title>
<polygon fill="none" stroke="black" points="409.5,-415.5 409.5,-461.5 480.5,-461.5 480.5,-415.5 409.5,-415.5"/>
<text text-anchor="middle" x="445" y="-446.3" font-family="Arial" font-size="14.00">2</text>
<polyline fill="none" stroke="black" points="409.5,-438.5 480.5,-438.5 "/>
<text text-anchor="middle" x="427" y="-423.3" font-family="Arial" font-size="14.00">lhs</text>
<polyline fill="none" stroke="black" points="444.5,-415.5 444.5,-438.5 "/>
<text text-anchor="middle" x="462.5" y="-423.3" font-family="Arial" font-size="14.00">rhs</text>
</g>
<!-- expr_11&#45;&gt;expr_13 -->
<g id="edge10" class="edge">
<title>expr_11:f2&#45;&gt;expr_13</title>
<path fill="none" stroke="black" d="M451,-498C451,-489.44 450.36,-480.2 449.49,-471.66"/>
<polygon fill="black" stroke="black" points="452.96,-471.21 448.35,-461.67 446.01,-472 452.96,-471.21"/>
</g>
<!-- expr_15 -->
<g id="node16" class="node">
<title>expr_15</title>
<polygon fill="none" stroke="black" points="498.5,-415.5 498.5,-461.5 569.5,-461.5 569.5,-415.5 498.5,-415.5"/>
<text text-anchor="middle" x="534" y="-446.3" font-family="Arial" font-size="14.00">=</text>
<polyline fill="none" stroke="black" points="498.5,-438.5 569.5,-438.5 "/>
<text text-anchor="middle" x="516" y="-423.3" font-family="Arial" font-size="14.00">lhs</text>
<polyline fill="none" stroke="black" points="533.5,-415.5 533.5,-438.5 "/>
<text text-anchor="middle" x="551.5" y="-423.3" font-family="Arial" font-size="14.00">rhs</text>
</g>
<!-- stmt_14&#45;&gt;expr_15 -->
<g id="edge14" class="edge">
<title>stmt_14:f1&#45;&gt;expr_15</title>
<path fill="none" stroke="black" d="M525,-498C525,-489.38 525.97,-480.13 527.27,-471.58"/>
<polygon fill="black" stroke="black" points="530.74,-472.05 528.97,-461.6 523.84,-470.87 530.74,-472.05"/>
</g>
<!-- expr_16 -->
<g id="node17" class="node">
<title>expr_16</title>
<polygon fill="none" stroke="black" points="427.5,-332.5 427.5,-378.5 498.5,-378.5 498.5,-332.5 427.5,-332.5"/>
<text text-anchor="middle" x="463" y="-363.3" font-family="Arial" font-size="14.00">x</text>
<polyline fill="none" stroke="black" points="427.5,-355.5 498.5,-355.5 "/>
<text text-anchor="middle" x="445" y="-340.3" font-family="Arial" font-size="14.00">lhs</text>
<polyline fill="none" stroke="black" points="462.5,-332.5 462.5,-355.5 "/>
<text text-anchor="middle" x="480.5" y="-340.3" font-family="Arial" font-size="14.00">rhs</text>
</g>
<!-- expr_15&#45;&gt;expr_16 -->
<g id="edge12" class="edge">
<title>expr_15:f1&#45;&gt;expr_16</title>
<path fill="none" stroke="black" d="M516,-415C516,-403.98 510.77,-394.12 503.6,-385.76"/>
<polygon fill="black" stroke="black" points="506.05,-383.26 496.57,-378.53 501.03,-388.14 506.05,-383.26"/>
</g>
<!-- expr_17 -->
<g id="node18" class="node">
<title>expr_17</title>
<polygon fill="none" stroke="black" points="516.5,-332.5 516.5,-378.5 587.5,-378.5 587.5,-332.5 516.5,-332.5"/>
<text text-anchor="middle" x="552" y="-363.3" font-family="Arial" font-size="14.00">1</text>
<polyline fill="none" stroke="black" points="516.5,-355.5 587.5,-355.5 "/>
<text text-anchor="middle" x="534" y="-340.3" font-family="Arial" font-size="14.00">lhs</text>
<polyline fill="none" stroke="black" points="551.5,-332.5 551.5,-355.5 "/>
<text text-anchor="middle" x="569.5" y="-340.3" font-family="Arial" font-size="14.00">rhs</text>
</g>
<!-- expr_15&#45;&gt;expr_17 -->
<g id="edge13" class="edge">
<title>expr_15:f2&#45;&gt;expr_17</title>
<path fill="none" stroke="black" d="M552,-415C552,-406.57 552,-397.46 552,-389"/>
<polygon fill="black" stroke="black" points="555.5,-388.72 552,-378.72 548.5,-388.72 555.5,-388.72"/>
</g>
<!-- expr_19 -->
<g id="node20" class="node">
<title>expr_19</title>
<polygon fill="none" stroke="black" points="623.5,-415.5 623.5,-461.5 694.5,-461.5 694.5,-415.5 623.5,-415.5"/>
<text text-anchor="middle" x="659" y="-446.3" font-family="Arial" font-size="14.00">=</text>
<polyline fill="none" stroke="black" points="623.5,-438.5 694.5,-438.5 "/>
<text text-anchor="middle" x="641" y="-423.3" font-family="Arial" font-size="14.00">lhs</text>
<polyline fill="none" stroke="black" points="658.5,-415.5 658.5,-438.5 "/>
<text text-anchor="middle" x="676.5" y="-423.3" font-family="Arial" font-size="14.00">rhs</text>
</g>
<!-- stmt_18&#45;&gt;expr_19 -->
<g id="edge30" class="edge">
<title>stmt_18:f1&#45;&gt;expr_19</title>
<path fill="none" stroke="black" d="M653,-498C653,-489.44 653.64,-480.2 654.51,-471.66"/>
<polygon fill="black" stroke="black" points="657.99,-472 655.65,-461.67 651.04,-471.21 657.99,-472"/>
</g>
<!-- expr_20 -->
<g id="node21" class="node">
<title>expr_20</title>
<polygon fill="none" stroke="black" points="605.5,-332.5 605.5,-378.5 676.5,-378.5 676.5,-332.5 605.5,-332.5"/>
<text text-anchor="middle" x="641" y="-363.3" font-family="Arial" font-size="14.00">x</text>
<polyline fill="none" stroke="black" points="605.5,-355.5 676.5,-355.5 "/>
<text text-anchor="middle" x="623" y="-340.3" font-family="Arial" font-size="14.00">lhs</text>
<polyline fill="none" stroke="black" points="640.5,-332.5 640.5,-355.5 "/>
<text text-anchor="middle" x="658.5" y="-340.3" font-family="Arial" font-size="14.00">rhs</text>
</g>
<!-- expr_19&#45;&gt;expr_20 -->
<g id="edge16" class="edge">
<title>expr_19:f1&#45;&gt;expr_20</title>
<path fill="none" stroke="black" d="M641,-415C641,-406.57 641,-397.46 641,-389"/>
<polygon fill="black" stroke="black" points="644.5,-388.72 641,-378.72 637.5,-388.72 644.5,-388.72"/>
</g>
<!-- expr_21 -->
<g id="node22" class="node">
<title>expr_21</title>
<polygon fill="none" stroke="black" points="694.5,-332.5 694.5,-378.5 765.5,-378.5 765.5,-332.5 694.5,-332.5"/>
<text text-anchor="middle" x="730" y="-363.3" font-family="Arial" font-size="14.00">+</text>
<polyline fill="none" stroke="black" points="694.5,-355.5 765.5,-355.5 "/>
<text text-anchor="middle" x="712" y="-340.3" font-family="Arial" font-size="14.00">lhs</text>
<polyline fill="none" stroke="black" points="729.5,-332.5 729.5,-355.5 "/>
<text text-anchor="middle" x="747.5" y="-340.3" font-family="Arial" font-size="14.00">rhs</text>
</g>
<!-- expr_19&#45;&gt;expr_21 -->
<g id="edge29" class="edge">
<title>expr_19:f2&#45;&gt;expr_21</title>
<path fill="none" stroke="black" d="M696,-426.5C714.24,-426.5 722.7,-407.03 726.62,-388.63"/>
<polygon fill="black" stroke="black" points="730.09,-389.1 728.36,-378.65 723.19,-387.9 730.09,-389.1"/>
</g>
<!-- expr_22 -->
<g id="node23" class="node">
<title>expr_22</title>
<polygon fill="none" stroke="black" points="631.5,-249.5 631.5,-295.5 702.5,-295.5 702.5,-249.5 631.5,-249.5"/>
<text text-anchor="middle" x="667" y="-280.3" font-family="Arial" font-size="14.00">&lt;call&gt;</text>
<polyline fill="none" stroke="black" points="631.5,-272.5 702.5,-272.5 "/>
<text text-anchor="middle" x="649" y="-257.3" font-family="Arial" font-size="14.00">lhs</text>
<polyline fill="none" stroke="black" points="666.5,-249.5 666.5,-272.5 "/>
<text text-anchor="middle" x="684.5" y="-257.3" font-family="Arial" font-size="14.00">rhs</text>
</g>
<!-- expr_21&#45;&gt;expr_22 -->
<g id="edge22" class="edge">
<title>expr_21:f1&#45;&gt;expr_22</title>
<path fill="none" stroke="black" d="M712,-332C712,-321.62 707.49,-311.95 701.34,-303.59"/>
<polygon fill="black" stroke="black" points="703.83,-301.11 694.73,-295.67 698.45,-305.59 703.83,-301.11"/>
</g>
<!-- expr_28 -->
<g id="node29" class="node">
<title>expr_28</title>
<polygon fill="none" stroke="black" points="758.5,-249.5 758.5,-295.5 829.5,-295.5 829.5,-249.5 758.5,-249.5"/>
<text text-anchor="middle" x="794" y="-280.3" font-family="Arial" font-size="14.00">&lt;call&gt;</text>
<polyline fill="none" stroke="black" points="758.5,-272.5 829.5,-272.5 "/>
<text text-anchor="middle" x="776" y="-257.3" font-family="Arial" font-size="14.00">lhs</text>
<polyline fill="none" stroke="black" points="793.5,-249.5 793.5,-272.5 "/>
<text text-anchor="middle" x="811.5" y="-257.3" font-family="Arial" font-size="14.00">rhs</text>
</g>
<!-- expr_21&#45;&gt;expr_28 -->
<g id="edge28" class="edge">
<title>expr_21:f2&#45;&gt;expr_28</title>
<path fill="none" stroke="black" d="M748,-332C748,-321.43 752.7,-311.63 759.1,-303.2"/>
<polygon fill="black" stroke="black" points="761.8,-305.43 765.65,-295.56 756.49,-300.87 761.8,-305.43"/>
</g>
<!-- expr_23 -->
<g id="node24" class="node">
<title>expr_23</title>
<polygon fill="none" stroke="black" points="557,-166.5 557,-212.5 631,-212.5 631,-166.5 557,-166.5"/>
<text text-anchor="middle" x="594" y="-197.3" font-family="Arial" font-size="14.00">fibonacci</text>
<polyline fill="none" stroke="black" points="557,-189.5 631,-189.5 "/>
<text text-anchor="middle" x="575" y="-174.3" font-family="Arial" font-size="14.00">lhs</text>
<polyline fill="none" stroke="black" points="593,-166.5 593,-189.5 "/>
<text text-anchor="middle" x="612" y="-174.3" font-family="Arial" font-size="14.00">rhs</text>
</g>
<!-- expr_22&#45;&gt;expr_23 -->
<g id="edge17" class="edge">
<title>expr_22:f1&#45;&gt;expr_23</title>
<path fill="none" stroke="black" d="M649,-249C649,-237.9 643.68,-228.05 636.35,-219.74"/>
<polygon fill="black" stroke="black" points="638.69,-217.13 629.14,-212.55 633.75,-222.09 638.69,-217.13"/>
</g>
<!-- expr_24 -->
<g id="node25" class="node">
<title>expr_24</title>
<polygon fill="none" stroke="black" points="649.5,-166.5 649.5,-212.5 720.5,-212.5 720.5,-166.5 649.5,-166.5"/>
<text text-anchor="middle" x="685" y="-197.3" font-family="Arial" font-size="14.00">&lt;args&gt;</text>
<polyline fill="none" stroke="black" points="649.5,-189.5 720.5,-189.5 "/>
<text text-anchor="middle" x="667" y="-174.3" font-family="Arial" font-size="14.00">lhs</text>
<polyline fill="none" stroke="black" points="684.5,-166.5 684.5,-189.5 "/>
<text text-anchor="middle" x="702.5" y="-174.3" font-family="Arial" font-size="14.00">rhs</text>
</g>
<!-- expr_22&#45;&gt;expr_24 -->
<g id="edge21" class="edge">
<title>expr_22:f2&#45;&gt;expr_24</title>
<path fill="none" stroke="black" d="M685,-249C685,-240.57 685,-231.46 685,-223"/>
<polygon fill="black" stroke="black" points="688.5,-222.72 685,-212.72 681.5,-222.72 688.5,-222.72"/>
</g>
<!-- expr_25 -->
<g id="node26" class="node">
<title>expr_25</title>
<polygon fill="none" stroke="black" points="631.5,-83.5 631.5,-129.5 702.5,-129.5 702.5,-83.5 631.5,-83.5"/>
<text text-anchor="middle" x="667" y="-114.3" font-family="Arial" font-size="14.00">&#45;</text>
<polyline fill="none" stroke="black" points="631.5,-106.5 702.5,-106.5 "/>
<text text-anchor="middle" x="649" y="-91.3" font-family="Arial" font-size="14.00">lhs</text>
<polyline fill="none" stroke="black" points="666.5,-83.5 666.5,-106.5 "/>
<text text-anchor="middle" x="684.5" y="-91.3" font-family="Arial" font-size="14.00">rhs</text>
</g>
<!-- expr_24&#45;&gt;expr_25 -->
<g id="edge20" class="edge">
<title>expr_24:f1&#45;&gt;expr_25</title>
<path fill="none" stroke="black" d="M667,-166C667,-157.57 667,-148.46 667,-140"/>
<polygon fill="black" stroke="black" points="670.5,-139.72 667,-129.72 663.5,-139.72 670.5,-139.72"/>
</g>
<!-- expr_26 -->
<g id="node27" class="node">
<title>expr_26</title>
<polygon fill="none" stroke="black" points="587.5,-0.5 587.5,-46.5 658.5,-46.5 658.5,-0.5 587.5,-0.5"/>
<text text-anchor="middle" x="623" y="-31.3" font-family="Arial" font-size="14.00">x</text>
<polyline fill="none" stroke="black" points="587.5,-23.5 658.5,-23.5 "/>
<text text-anchor="middle" x="605" y="-8.3" font-family="Arial" font-size="14.00">lhs</text>
<polyline fill="none" stroke="black" points="622.5,-0.5 622.5,-23.5 "/>
<text text-anchor="middle" x="640.5" y="-8.3" font-family="Arial" font-size="14.00">rhs</text>
</g>
<!-- expr_25&#45;&gt;expr_26 -->
<g id="edge18" class="edge">
<title>expr_25:f1&#45;&gt;expr_26</title>
<path fill="none" stroke="black" d="M649,-83C649,-73.71 646.23,-64.26 642.5,-55.73"/>
<polygon fill="black" stroke="black" points="645.54,-53.98 637.97,-46.56 639.26,-57.08 645.54,-53.98"/>
</g>
<!-- expr_27 -->
<g id="node28" class="node">
<title>expr_27</title>
<polygon fill="none" stroke="black" points="676.5,-0.5 676.5,-46.5 747.5,-46.5 747.5,-0.5 676.5,-0.5"/>
<text text-anchor="middle" x="712" y="-31.3" font-family="Arial" font-size="14.00">1</text>
<polyline fill="none" stroke="black" points="676.5,-23.5 747.5,-23.5 "/>
<text text-anchor="middle" x="694" y="-8.3" font-family="Arial" font-size="14.00">lhs</text>
<polyline fill="none" stroke="black" points="711.5,-0.5 711.5,-23.5 "/>
<text text-anchor="middle" x="729.5" y="-8.3" font-family="Arial" font-size="14.00">rhs</text>
</g>
<!-- expr_25&#45;&gt;expr_27 -->
<g id="edge19" class="edge">
<title>expr_25:f2&#45;&gt;expr_27</title>
<path fill="none" stroke="black" d="M685,-83C685,-73.74 687.83,-64.34 691.65,-55.87"/>
<polygon fill="black" stroke="black" points="694.87,-57.26 696.29,-46.76 688.64,-54.08 694.87,-57.26"/>
</g>
<!-- expr_29 -->
<g id="node30" class="node">
<title>expr_29</title>
<polygon fill="none" stroke="black" points="739,-166.5 739,-212.5 813,-212.5 813,-166.5 739,-166.5"/>
<text text-anchor="middle" x="776" y="-197.3" font-family="Arial" font-size="14.00">fibonacci</text>
<polyline fill="none" stroke="black" points="739,-189.5 813,-189.5 "/>
<text text-anchor="middle" x="757" y="-174.3" font-family="Arial" font-size="14.00">lhs</text>
<polyline fill="none" stroke="black" points="775,-166.5 775,-189.5 "/>
<text text-anchor="middle" x="794" y="-174.3" font-family="Arial" font-size="14.00">rhs</text>
</g>
<!-- expr_28&#45;&gt;expr_29 -->
<g id="edge23" class="edge">
<title>expr_28:f1&#45;&gt;expr_29</title>
<path fill="none" stroke="black" d="M776,-249C776,-240.57 776,-231.46 776,-223"/>
<polygon fill="black" stroke="black" points="779.5,-222.72 776,-212.72 772.5,-222.72 779.5,-222.72"/>
</g>
<!-- expr_30 -->
<g id="node31" class="node">
<title>expr_30</title>
<polygon fill="none" stroke="black" points="831.5,-166.5 831.5,-212.5 902.5,-212.5 902.5,-166.5 831.5,-166.5"/>
<text text-anchor="middle" x="867" y="-197.3" font-family="Arial" font-size="14.00">&lt;args&gt;</text>
<polyline fill="none" stroke="black" points="831.5,-189.5 902.5,-189.5 "/>
<text text-anchor="middle" x="849" y="-174.3" font-family="Arial" font-size="14.00">lhs</text>
<polyline fill="none" stroke="black" points="866.5,-166.5 866.5,-189.5 "/>
<text text-anchor="middle" x="884.5" y="-174.3" font-family="Arial" font-size="14.00">rhs</text>
</g>
<!-- expr_28&#45;&gt;expr_30 -->
<g id="edge27" class="edge">
<title>expr_28:f2&#45;&gt;expr_30</title>
<path fill="none" stroke="black" d="M831,-260.5C849.45,-260.5 858.45,-241.03 862.84,-222.63"/>
<polygon fill="black" stroke="black" points="866.31,-223.14 864.83,-212.65 859.44,-221.77 866.31,-223.14"/>
</g>
<!-- expr_31 -->
<g id="node32" class="node">
<title>expr_31</title>
<polygon fill="none" stroke="black" points="813.5,-83.5 813.5,-129.5 884.5,-129.5 884.5,-83.5 813.5,-83.5"/>
<text text-anchor="middle" x="849" y="-114.3" font-family="Arial" font-size="14.00">&#45;</text>
<polyline fill="none" stroke="black" points="813.5,-106.5 884.5,-106.5 "/>
<text text-anchor="middle" x="831" y="-91.3" font-family="Arial" font-size="14.00">lhs</text>
<polyline fill="none" stroke="black" points="848.5,-83.5 848.5,-106.5 "/>
<text text-anchor="middle" x="866.5" y="-91.3" font-family="Arial" font-size="14.00">rhs</text>
</g>
<!-- expr_30&#45;&gt;expr_31 -->
<g id="edge26" class="edge">
<title>expr_30:f1&#45;&gt;expr_31</title>
<path fill="none" stroke="black" d="M849,-166C849,-157.57 849,-148.46 849,-140"/>
<polygon fill="black" stroke="black" points="852.5,-139.72 849,-129.72 845.5,-139.72 852.5,-139.72"/>
</g>
<!-- expr_32 -->
<g id="node33" class="node">
<title>expr_32</title>
<polygon fill="none" stroke="black" points="780.5,-0.5 780.5,-46.5 851.5,-46.5 851.5,-0.5 780.5,-0.5"/>
<text text-anchor="middle" x="816" y="-31.3" font-family="Arial" font-size="14.00">x</text>
<polyline fill="none" stroke="black" points="780.5,-23.5 851.5,-23.5 "/>
<text text-anchor="middle" x="798" y="-8.3" font-family="Arial" font-size="14.00">lhs</text>
<polyline fill="none" stroke="black" points="815.5,-0.5 815.5,-23.5 "/>
<text text-anchor="middle" x="833.5" y="-8.3" font-family="Arial" font-size="14.00">rhs</text>
</g>
<!-- expr_31&#45;&gt;expr_32 -->
<g id="edge24" class="edge">
<title>expr_31:f1&#45;&gt;expr_32</title>
<path fill="none" stroke="black" d="M831,-83C831,-74.18 829.38,-64.85 827.21,-56.28"/>
<polygon fill="black" stroke="black" points="830.57,-55.32 824.46,-46.66 823.84,-57.24 830.57,-55.32"/>
</g>
<!-- expr_33 -->
<g id="node34" class="node">
<title>expr_33</title>
<polygon fill="none" stroke="black" points="869.5,-0.5 869.5,-46.5 940.5,-46.5 940.5,-0.5 869.5,-0.5"/>
<text text-anchor="middle" x="905" y="-31.3" font-family="Arial" font-size="14.00">2</text>
<polyline fill="none" stroke="black" points="869.5,-23.5 940.5,-23.5 "/>
<text text-anchor="middle" x="887" y="-8.3" font-family="Arial" font-size="14.00">lhs</text>
<polyline fill="none" stroke="black" points="904.5,-0.5 904.5,-23.5 "/>
<text text-anchor="middle" x="922.5" y="-8.3" font-family="Arial" font-size="14.00">rhs</text>
</g>
<!-- expr_31&#45;&gt;expr_33 -->
<g id="edge25" class="edge">
<title>expr_31:f2&#45;&gt;expr_33</title>
<path fill="none" stroke="black" d="M867,-83C867,-73.02 870.94,-63.41 876.27,-54.96"/>
<polygon fill="black" stroke="black" points="879.27,-56.78 882.24,-46.6 873.58,-52.71 879.27,-56.78"/>
</g>
<!-- expr_35 -->
<g id="node36" class="node">
<title>expr_35</title>
<polygon fill="none" stroke="black" points="749.5,-415.5 749.5,-461.5 820.5,-461.5 820.5,-415.5 749.5,-415.5"/>
<text text-anchor="middle" x="785" y="-446.3" font-family="Arial" font-size="14.00">x</text>
<polyline fill="none" stroke="black" points="749.5,-438.5 820.5,-438.5 "/>
<text text-anchor="middle" x="767" y="-423.3" font-family="Arial" font-size="14.00">lhs</text>
<polyline fill="none" stroke="black" points="784.5,-415.5 784.5,-438.5 "/>
<text text-anchor="middle" x="802.5" y="-423.3" font-family="Arial" font-size="14.00">rhs</text>
</g>
<!-- stmt_34&#45;&gt;expr_35 -->
<g id="edge32" class="edge">
<title>stmt_34:f1&#45;&gt;expr_35</title>
<path fill="none" stroke="black" d="M785,-498C785,-489.57 785,-480.46 785,-472"/>
<polygon fill="black" stroke="black" points="788.5,-471.72 785,-461.72 781.5,-471.72 788.5,-471.72"/>
</g>
</g>
</svg>
